# Tiled2Unity generated file. Do not modify by hand.
# Wavefront file for 'Vila_oeste2_v2_mesh_0004.obj'

# Vertices (Count = 292)
v -19 -4 0
v -20 -4 0
v -20 -3 0
v -19 -3 0
v -5 -4 0
v -6 -4 0
v -6 -3 0
v -5 -3 0
v -4 -4 0
v -5 -4 0
v -5 -3 0
v -4 -3 0
v -3 -4 0
v -4 -4 0
v -4 -3 0
v -3 -3 0
v -20 -5 0
v -21 -5 0
v -21 -4 0
v -20 -4 0
v -19 -5 0
v -20 -5 0
v -20 -4 0
v -19 -4 0
v -5 -5 0
v -6 -5 0
v -6 -4 0
v -5 -4 0
v -4 -5 0
v -5 -5 0
v -5 -4 0
v -4 -4 0
v -3 -5 0
v -4 -5 0
v -4 -4 0
v -3 -4 0
v -20 -6 0
v -21 -6 0
v -21 -5 0
v -20 -5 0
v -19 -6 0
v -20 -6 0
v -20 -5 0
v -19 -5 0
v -20 -7 0
v -21 -7 0
v -21 -6 0
v -20 -6 0
v -19 -7 0
v -20 -7 0
v -20 -6 0
v -19 -6 0
v -19 -9 0
v -20 -9 0
v -20 -8 0
v -19 -8 0
v -18 -9 0
v -19 -9 0
v -19 -8 0
v -18 -8 0
v -17 -9 0
v -18 -9 0
v -18 -8 0
v -17 -8 0
v -7 -9 0
v -8 -9 0
v -8 -8 0
v -7 -8 0
v -6 -9 0
v -7 -9 0
v -7 -8 0
v -6 -8 0
v -23 -10 0
v -24 -10 0
v -24 -9 0
v -23 -9 0
v -22 -10 0
v -23 -10 0
v -23 -9 0
v -22 -9 0
v -19 -10 0
v -20 -10 0
v -20 -9 0
v -19 -9 0
v -18 -10 0
v -19 -10 0
v -19 -9 0
v -18 -9 0
v -17 -10 0
v -18 -10 0
v -18 -9 0
v -17 -9 0
v -11 -10 0
v -12 -10 0
v -12 -9 0
v -11 -9 0
v -10 -10 0
v -11 -10 0
v -11 -9 0
v -10 -9 0
v -9 -10 0
v -10 -10 0
v -10 -9 0
v -9 -9 0
v -7 -10 0
v -8 -10 0
v -8 -9 0
v -7 -9 0
v -6 -10 0
v -7 -10 0
v -7 -9 0
v -6 -9 0
v -23 -11 0
v -24 -11 0
v -24 -10 0
v -23 -10 0
v -22 -11 0
v -23 -11 0
v -23 -10 0
v -22 -10 0
v -19 -11 0
v -20 -11 0
v -20 -10 0
v -19 -10 0
v -18 -11 0
v -19 -11 0
v -19 -10 0
v -18 -10 0
v -17 -11 0
v -18 -11 0
v -18 -10 0
v -17 -10 0
v -11 -11 0
v -12 -11 0
v -12 -10 0
v -11 -10 0
v -10 -11 0
v -11 -11 0
v -11 -10 0
v -10 -10 0
v -9 -11 0
v -10 -11 0
v -10 -10 0
v -9 -10 0
v -11 -12 0
v -12 -12 0
v -12 -11 0
v -11 -11 0
v -10 -12 0
v -11 -12 0
v -11 -11 0
v -10 -11 0
v -9 -12 0
v -10 -12 0
v -10 -11 0
v -9 -11 0
v -23 -17 0
v -24 -17 0
v -24 -16 0
v -23 -16 0
v -22 -17 0
v -23 -17 0
v -23 -16 0
v -22 -16 0
v -2 -17 0
v -3 -17 0
v -3 -16 0
v -2 -16 0
v -1 -17 0
v -2 -17 0
v -2 -16 0
v -1 -16 0
v -23 -18 0
v -24 -18 0
v -24 -17 0
v -23 -17 0
v -22 -18 0
v -23 -18 0
v -23 -17 0
v -22 -17 0
v -11 -18 0
v -12 -18 0
v -12 -17 0
v -11 -17 0
v -10 -18 0
v -11 -18 0
v -11 -17 0
v -10 -17 0
v -9 -18 0
v -10 -18 0
v -10 -17 0
v -9 -17 0
v -2 -18 0
v -3 -18 0
v -3 -17 0
v -2 -17 0
v -1 -18 0
v -2 -18 0
v -2 -17 0
v -1 -17 0
v -11 -19 0
v -12 -19 0
v -12 -18 0
v -11 -18 0
v -10 -19 0
v -11 -19 0
v -11 -18 0
v -10 -18 0
v -9 -19 0
v -10 -19 0
v -10 -18 0
v -9 -18 0
v -11 -20 0
v -12 -20 0
v -12 -19 0
v -11 -19 0
v -10 -20 0
v -11 -20 0
v -11 -19 0
v -10 -19 0
v -9 -20 0
v -10 -20 0
v -10 -19 0
v -9 -19 0
v -12 -21 0
v -13 -21 0
v -13 -20 0
v -12 -20 0
v -16 -22 0
v -17 -22 0
v -17 -21 0
v -16 -21 0
v -15 -22 0
v -16 -22 0
v -16 -21 0
v -15 -21 0
v -12 -22 0
v -13 -22 0
v -13 -21 0
v -12 -21 0
v -6 -22 0
v -7 -22 0
v -7 -21 0
v -6 -21 0
v -5 -22 0
v -6 -22 0
v -6 -21 0
v -5 -21 0
v -4 -22 0
v -5 -22 0
v -5 -21 0
v -4 -21 0
v -1 -22 0
v -2 -22 0
v -2 -21 0
v -1 -21 0
v -16 -23 0
v -17 -23 0
v -17 -22 0
v -16 -22 0
v -15 -23 0
v -16 -23 0
v -16 -22 0
v -15 -22 0
v -6 -23 0
v -7 -23 0
v -7 -22 0
v -6 -22 0
v -5 -23 0
v -6 -23 0
v -6 -22 0
v -5 -22 0
v -4 -23 0
v -5 -23 0
v -5 -22 0
v -4 -22 0
v -1 -23 0
v -2 -23 0
v -2 -22 0
v -1 -22 0
v -6 -24 0
v -7 -24 0
v -7 -23 0
v -6 -23 0
v -5 -24 0
v -6 -24 0
v -6 -23 0
v -5 -23 0
v -4 -24 0
v -5 -24 0
v -5 -23 0
v -4 -23 0

# Texture cooridinates (Count = 54)
vt 0.7083333 0.4666666
vt 0.75 0.4666666
vt 0.75 0.5333333
vt 0.7083333 0.5333333
vt 0.625 0.1333333
vt 0.6666667 0.1333333
vt 0.6666667 0.2
vt 0.625 0.2
vt 0.5833333 0.1333333
vt 0.5833333 0.2
vt 0.5416667 0.1333333
vt 0.5416667 0.2
vt 0.75 0.4
vt 0.7916667 0.4
vt 0.7916667 0.4666666
vt 0.7083333 0.4
vt 0.625 0.06666666
vt 0.6666667 0.06666666
vt 0.5833333 0.06666666
vt 0.5416667 0.06666666
vt 0.75 0.3333333
vt 0.7916667 0.3333333
vt 0.7083333 0.3333333
vt 0.75 0.2666667
vt 0.7916667 0.2666667
vt 0.7083333 0.2666667
vt 0.625 0.4
vt 0.6666667 0.4
vt 0.6666667 0.4666666
vt 0.625 0.4666666
vt 0.5833333 0.4
vt 0.5833333 0.4666666
vt 0.5416667 0.4
vt 0.5416667 0.4666666
vt 0.5 0.3333333
vt 0.5416667 0.3333333
vt 0.5 0.4
vt 0.4583333 0.3333333
vt 0.4583333 0.4
vt 0.625 0.3333333
vt 0.6666667 0.3333333
vt 0.5833333 0.3333333
vt 0.5 0.2666667
vt 0.5416667 0.2666667
vt 0.4583333 0.2666667
vt 0.625 0.2666667
vt 0.6666667 0.2666667
vt 0.5833333 0.2666667
vt 0.375 0.3333333
vt 0.4166667 0.3333333
vt 0.4166667 0.4
vt 0.375 0.4
vt 0.375 0.2666667
vt 0.4166667 0.2666667

# Normal
vn 0 0 -1

# Mesh description
g Vila_oeste2_v2_mesh_0004

# Faces
f 1/1/1 2/2/1 3/3/1 4/4/1
f 5/5/1 6/6/1 7/7/1 8/8/1
f 9/9/1 10/5/1 11/8/1 12/10/1
f 13/11/1 14/9/1 15/10/1 16/12/1
f 17/13/1 18/14/1 19/15/1 20/2/1
f 21/16/1 22/13/1 23/2/1 24/1/1
f 25/17/1 26/18/1 27/6/1 28/5/1
f 29/19/1 30/17/1 31/5/1 32/9/1
f 33/20/1 34/19/1 35/9/1 36/11/1
f 37/21/1 38/22/1 39/14/1 40/13/1
f 41/23/1 42/21/1 43/13/1 44/16/1
f 45/24/1 46/25/1 47/22/1 48/21/1
f 49/26/1 50/24/1 51/21/1 52/23/1
f 53/27/1 54/28/1 55/29/1 56/30/1
f 57/31/1 58/27/1 59/30/1 60/32/1
f 61/33/1 62/31/1 63/32/1 64/34/1
f 65/35/1 66/36/1 67/33/1 68/37/1
f 69/38/1 70/35/1 71/37/1 72/39/1
f 73/9/1 74/5/1 75/8/1 76/10/1
f 77/11/1 78/9/1 79/10/1 80/12/1
f 81/40/1 82/41/1 83/28/1 84/27/1
f 85/42/1 86/40/1 87/27/1 88/31/1
f 89/36/1 90/42/1 91/31/1 92/33/1
f 93/27/1 94/28/1 95/29/1 96/30/1
f 97/31/1 98/27/1 99/30/1 100/32/1
f 101/33/1 102/31/1 103/32/1 104/34/1
f 105/43/1 106/44/1 107/36/1 108/35/1
f 109/45/1 110/43/1 111/35/1 112/38/1
f 113/19/1 114/17/1 115/5/1 116/9/1
f 117/20/1 118/19/1 119/9/1 120/11/1
f 121/46/1 122/47/1 123/41/1 124/40/1
f 125/48/1 126/46/1 127/40/1 128/42/1
f 129/44/1 130/48/1 131/42/1 132/36/1
f 133/40/1 134/41/1 135/28/1 136/27/1
f 137/42/1 138/40/1 139/27/1 140/31/1
f 141/36/1 142/42/1 143/31/1 144/33/1
f 145/46/1 146/47/1 147/41/1 148/40/1
f 149/48/1 150/46/1 151/40/1 152/42/1
f 153/44/1 154/48/1 155/42/1 156/36/1
f 157/35/1 158/36/1 159/33/1 160/37/1
f 161/38/1 162/35/1 163/37/1 164/39/1
f 165/35/1 166/36/1 167/33/1 168/37/1
f 169/38/1 170/35/1 171/37/1 172/39/1
f 173/43/1 174/44/1 175/36/1 176/35/1
f 177/45/1 178/43/1 179/35/1 180/38/1
f 181/27/1 182/28/1 183/29/1 184/30/1
f 185/31/1 186/27/1 187/30/1 188/32/1
f 189/33/1 190/31/1 191/32/1 192/34/1
f 193/43/1 194/44/1 195/36/1 196/35/1
f 197/45/1 198/43/1 199/35/1 200/38/1
f 201/40/1 202/41/1 203/28/1 204/27/1
f 205/42/1 206/40/1 207/27/1 208/31/1
f 209/36/1 210/42/1 211/31/1 212/33/1
f 213/46/1 214/47/1 215/41/1 216/40/1
f 217/48/1 218/46/1 219/40/1 220/42/1
f 221/44/1 222/48/1 223/42/1 224/36/1
f 225/49/1 226/50/1 227/51/1 228/52/1
f 229/35/1 230/36/1 231/33/1 232/37/1
f 233/38/1 234/35/1 235/37/1 236/39/1
f 237/53/1 238/54/1 239/50/1 240/49/1
f 241/27/1 242/28/1 243/29/1 244/30/1
f 245/31/1 246/27/1 247/30/1 248/32/1
f 249/33/1 250/31/1 251/32/1 252/34/1
f 253/49/1 254/50/1 255/51/1 256/52/1
f 257/43/1 258/44/1 259/36/1 260/35/1
f 261/45/1 262/43/1 263/35/1 264/38/1
f 265/40/1 266/41/1 267/28/1 268/27/1
f 269/42/1 270/40/1 271/27/1 272/31/1
f 273/36/1 274/42/1 275/31/1 276/33/1
f 277/53/1 278/54/1 279/50/1 280/49/1
f 281/46/1 282/47/1 283/41/1 284/40/1
f 285/48/1 286/46/1 287/40/1 288/42/1
f 289/44/1 290/48/1 291/42/1 292/36/1

