# Tiled2Unity generated file. Do not modify by hand.
# Wavefront file for 'Vila_oeste2_v2_mesh_0003.obj'

# Vertices (Count = 640)
v -24 -1 0
v -25 -1 0
v -25 0 0
v -24 0 0
v -23 -1 0
v -24 -1 0
v -24 0 0
v -23 0 0
v -22 -1 0
v -23 -1 0
v -23 0 0
v -22 0 0
v -21 -1 0
v -22 -1 0
v -22 0 0
v -21 0 0
v -20 -1 0
v -21 -1 0
v -21 0 0
v -20 0 0
v -19 -1 0
v -20 -1 0
v -20 0 0
v -19 0 0
v -18 -1 0
v -19 -1 0
v -19 0 0
v -18 0 0
v -17 -1 0
v -18 -1 0
v -18 0 0
v -17 0 0
v -16 -1 0
v -17 -1 0
v -17 0 0
v -16 0 0
v -15 -1 0
v -16 -1 0
v -16 0 0
v -15 0 0
v -14 -1 0
v -15 -1 0
v -15 0 0
v -14 0 0
v -13 -1 0
v -14 -1 0
v -14 0 0
v -13 0 0
v -12 -1 0
v -13 -1 0
v -13 0 0
v -12 0 0
v -11 -1 0
v -12 -1 0
v -12 0 0
v -11 0 0
v -10 -1 0
v -11 -1 0
v -11 0 0
v -10 0 0
v -9 -1 0
v -10 -1 0
v -10 0 0
v -9 0 0
v -8 -1 0
v -9 -1 0
v -9 0 0
v -8 0 0
v -7 -1 0
v -8 -1 0
v -8 0 0
v -7 0 0
v -6 -1 0
v -7 -1 0
v -7 0 0
v -6 0 0
v -5 -1 0
v -6 -1 0
v -6 0 0
v -5 0 0
v -4 -1 0
v -5 -1 0
v -5 0 0
v -4 0 0
v -3 -1 0
v -4 -1 0
v -4 0 0
v -3 0 0
v -2 -1 0
v -3 -1 0
v -3 0 0
v -2 0 0
v -1 -1 0
v -2 -1 0
v -2 0 0
v -1 0 0
v 0 -1 0
v -1 -1 0
v -1 0 0
v 0 0 0
v -24 -2 0
v -25 -2 0
v -25 -1 0
v -24 -1 0
v -23 -2 0
v -24 -2 0
v -24 -1 0
v -23 -1 0
v -22 -2 0
v -23 -2 0
v -23 -1 0
v -22 -1 0
v -21 -2 0
v -22 -2 0
v -22 -1 0
v -21 -1 0
v -20 -2 0
v -21 -2 0
v -21 -1 0
v -20 -1 0
v -19 -2 0
v -20 -2 0
v -20 -1 0
v -19 -1 0
v -18 -2 0
v -19 -2 0
v -19 -1 0
v -18 -1 0
v -17 -2 0
v -18 -2 0
v -18 -1 0
v -17 -1 0
v -16 -2 0
v -17 -2 0
v -17 -1 0
v -16 -1 0
v -15 -2 0
v -16 -2 0
v -16 -1 0
v -15 -1 0
v -14 -2 0
v -15 -2 0
v -15 -1 0
v -14 -1 0
v -13 -2 0
v -14 -2 0
v -14 -1 0
v -13 -1 0
v -12 -2 0
v -13 -2 0
v -13 -1 0
v -12 -1 0
v -11 -2 0
v -12 -2 0
v -12 -1 0
v -11 -1 0
v -10 -2 0
v -11 -2 0
v -11 -1 0
v -10 -1 0
v -9 -2 0
v -10 -2 0
v -10 -1 0
v -9 -1 0
v -8 -2 0
v -9 -2 0
v -9 -1 0
v -8 -1 0
v -7 -2 0
v -8 -2 0
v -8 -1 0
v -7 -1 0
v -6 -2 0
v -7 -2 0
v -7 -1 0
v -6 -1 0
v -5 -2 0
v -6 -2 0
v -6 -1 0
v -5 -1 0
v -4 -2 0
v -5 -2 0
v -5 -1 0
v -4 -1 0
v -3 -2 0
v -4 -2 0
v -4 -1 0
v -3 -1 0
v -2 -2 0
v -3 -2 0
v -3 -1 0
v -2 -1 0
v -1 -2 0
v -2 -2 0
v -2 -1 0
v -1 -1 0
v 0 -2 0
v -1 -2 0
v -1 -1 0
v 0 -1 0
v -24 -3 0
v -25 -3 0
v -25 -2 0
v -24 -2 0
v -23 -3 0
v -24 -3 0
v -24 -2 0
v -23 -2 0
v -22 -3 0
v -23 -3 0
v -23 -2 0
v -22 -2 0
v -21 -3 0
v -22 -3 0
v -22 -2 0
v -21 -2 0
v -20 -3 0
v -21 -3 0
v -21 -2 0
v -20 -2 0
v -19 -3 0
v -20 -3 0
v -20 -2 0
v -19 -2 0
v -18 -3 0
v -19 -3 0
v -19 -2 0
v -18 -2 0
v -17 -3 0
v -18 -3 0
v -18 -2 0
v -17 -2 0
v -16 -3 0
v -17 -3 0
v -17 -2 0
v -16 -2 0
v -15 -3 0
v -16 -3 0
v -16 -2 0
v -15 -2 0
v -14 -3 0
v -15 -3 0
v -15 -2 0
v -14 -2 0
v -13 -3 0
v -14 -3 0
v -14 -2 0
v -13 -2 0
v -12 -3 0
v -13 -3 0
v -13 -2 0
v -12 -2 0
v -11 -3 0
v -12 -3 0
v -12 -2 0
v -11 -2 0
v -10 -3 0
v -11 -3 0
v -11 -2 0
v -10 -2 0
v -9 -3 0
v -10 -3 0
v -10 -2 0
v -9 -2 0
v -8 -3 0
v -9 -3 0
v -9 -2 0
v -8 -2 0
v -7 -3 0
v -8 -3 0
v -8 -2 0
v -7 -2 0
v -6 -3 0
v -7 -3 0
v -7 -2 0
v -6 -2 0
v -5 -3 0
v -6 -3 0
v -6 -2 0
v -5 -2 0
v -4 -3 0
v -5 -3 0
v -5 -2 0
v -4 -2 0
v -3 -3 0
v -4 -3 0
v -4 -2 0
v -3 -2 0
v -2 -3 0
v -3 -3 0
v -3 -2 0
v -2 -2 0
v -1 -3 0
v -2 -3 0
v -2 -2 0
v -1 -2 0
v 0 -3 0
v -1 -3 0
v -1 -2 0
v 0 -2 0
v -24 -4 0
v -25 -4 0
v -25 -3 0
v -24 -3 0
v 0 -4 0
v -1 -4 0
v -1 -3 0
v 0 -3 0
v -24 -5 0
v -25 -5 0
v -25 -4 0
v -24 -4 0
v -18 -5 0
v -19 -5 0
v -19 -4 0
v -18 -4 0
v 0 -5 0
v -1 -5 0
v -1 -4 0
v 0 -4 0
v -24 -6 0
v -25 -6 0
v -25 -5 0
v -24 -5 0
v 0 -6 0
v -1 -6 0
v -1 -5 0
v 0 -5 0
v -24 -7 0
v -25 -7 0
v -25 -6 0
v -24 -6 0
v 0 -7 0
v -1 -7 0
v -1 -6 0
v 0 -6 0
v -24 -8 0
v -25 -8 0
v -25 -7 0
v -24 -7 0
v 0 -8 0
v -1 -8 0
v -1 -7 0
v 0 -7 0
v -24 -9 0
v -25 -9 0
v -25 -8 0
v -24 -8 0
v -14 -9 0
v -15 -9 0
v -15 -8 0
v -14 -8 0
v 0 -9 0
v -1 -9 0
v -1 -8 0
v 0 -8 0
v -24 -10 0
v -25 -10 0
v -25 -9 0
v -24 -9 0
v 0 -10 0
v -1 -10 0
v -1 -9 0
v 0 -9 0
v -24 -11 0
v -25 -11 0
v -25 -10 0
v -24 -10 0
v 0 -11 0
v -1 -11 0
v -1 -10 0
v 0 -10 0
v -24 -12 0
v -25 -12 0
v -25 -11 0
v -24 -11 0
v 0 -12 0
v -1 -12 0
v -1 -11 0
v 0 -11 0
v -16 -13 0
v -17 -13 0
v -17 -12 0
v -16 -12 0
v -15 -13 0
v -16 -13 0
v -16 -12 0
v -15 -12 0
v -14 -13 0
v -15 -13 0
v -15 -12 0
v -14 -12 0
v -13 -13 0
v -14 -13 0
v -14 -12 0
v -13 -12 0
v 0 -13 0
v -1 -13 0
v -1 -12 0
v 0 -12 0
v -16 -14 0
v -17 -14 0
v -17 -13 0
v -16 -13 0
v -15 -14 0
v -16 -14 0
v -16 -13 0
v -15 -13 0
v -14 -14 0
v -15 -14 0
v -15 -13 0
v -14 -13 0
v -13 -14 0
v -14 -14 0
v -14 -13 0
v -13 -13 0
v 0 -14 0
v -1 -14 0
v -1 -13 0
v 0 -13 0
v -24 -15 0
v -25 -15 0
v -25 -14 0
v -24 -14 0
v 0 -15 0
v -1 -15 0
v -1 -14 0
v 0 -14 0
v -24 -16 0
v -25 -16 0
v -25 -15 0
v -24 -15 0
v 0 -16 0
v -1 -16 0
v -1 -15 0
v 0 -15 0
v -24 -17 0
v -25 -17 0
v -25 -16 0
v -24 -16 0
v 0 -17 0
v -1 -17 0
v -1 -16 0
v 0 -16 0
v -24 -18 0
v -25 -18 0
v -25 -17 0
v -24 -17 0
v -16 -18 0
v -17 -18 0
v -17 -17 0
v -16 -17 0
v -15 -18 0
v -16 -18 0
v -16 -17 0
v -15 -17 0
v -14 -18 0
v -15 -18 0
v -15 -17 0
v -14 -17 0
v -13 -18 0
v -14 -18 0
v -14 -17 0
v -13 -17 0
v 0 -18 0
v -1 -18 0
v -1 -17 0
v 0 -17 0
v -24 -19 0
v -25 -19 0
v -25 -18 0
v -24 -18 0
v -16 -19 0
v -17 -19 0
v -17 -18 0
v -16 -18 0
v -15 -19 0
v -16 -19 0
v -16 -18 0
v -15 -18 0
v -14 -19 0
v -15 -19 0
v -15 -18 0
v -14 -18 0
v -13 -19 0
v -14 -19 0
v -14 -18 0
v -13 -18 0
v 0 -19 0
v -1 -19 0
v -1 -18 0
v 0 -18 0
v -24 -20 0
v -25 -20 0
v -25 -19 0
v -24 -19 0
v -3 -20 0
v -4 -20 0
v -4 -19 0
v -3 -19 0
v 0 -20 0
v -1 -20 0
v -1 -19 0
v 0 -19 0
v -24 -21 0
v -25 -21 0
v -25 -20 0
v -24 -20 0
v 0 -21 0
v -1 -21 0
v -1 -20 0
v 0 -20 0
v -24 -22 0
v -25 -22 0
v -25 -21 0
v -24 -21 0
v 0 -22 0
v -1 -22 0
v -1 -21 0
v 0 -21 0
v -24 -23 0
v -25 -23 0
v -25 -22 0
v -24 -22 0
v 0 -23 0
v -1 -23 0
v -1 -22 0
v 0 -22 0
v -24 -24 0
v -25 -24 0
v -25 -23 0
v -24 -23 0
v -11 -24 0
v -12 -24 0
v -12 -23 0
v -11 -23 0
v 0 -24 0
v -1 -24 0
v -1 -23 0
v 0 -23 0
v -24 -25 0
v -25 -25 0
v -25 -24 0
v -24 -24 0
v -23 -25 0
v -24 -25 0
v -24 -24 0
v -23 -24 0
v -22 -25 0
v -23 -25 0
v -23 -24 0
v -22 -24 0
v -21 -25 0
v -22 -25 0
v -22 -24 0
v -21 -24 0
v -20 -25 0
v -21 -25 0
v -21 -24 0
v -20 -24 0
v -19 -25 0
v -20 -25 0
v -20 -24 0
v -19 -24 0
v -18 -25 0
v -19 -25 0
v -19 -24 0
v -18 -24 0
v -17 -25 0
v -18 -25 0
v -18 -24 0
v -17 -24 0
v -16 -25 0
v -17 -25 0
v -17 -24 0
v -16 -24 0
v -15 -25 0
v -16 -25 0
v -16 -24 0
v -15 -24 0
v -14 -25 0
v -15 -25 0
v -15 -24 0
v -14 -24 0
v -13 -25 0
v -14 -25 0
v -14 -24 0
v -13 -24 0
v -12 -25 0
v -13 -25 0
v -13 -24 0
v -12 -24 0
v -11 -25 0
v -12 -25 0
v -12 -24 0
v -11 -24 0
v -10 -25 0
v -11 -25 0
v -11 -24 0
v -10 -24 0
v -9 -25 0
v -10 -25 0
v -10 -24 0
v -9 -24 0
v -8 -25 0
v -9 -25 0
v -9 -24 0
v -8 -24 0
v -7 -25 0
v -8 -25 0
v -8 -24 0
v -7 -24 0
v -6 -25 0
v -7 -25 0
v -7 -24 0
v -6 -24 0
v -5 -25 0
v -6 -25 0
v -6 -24 0
v -5 -24 0
v -4 -25 0
v -5 -25 0
v -5 -24 0
v -4 -24 0
v -3 -25 0
v -4 -25 0
v -4 -24 0
v -3 -24 0
v -2 -25 0
v -3 -25 0
v -3 -24 0
v -2 -24 0
v -1 -25 0
v -2 -25 0
v -2 -24 0
v -1 -24 0
v 0 -25 0
v -1 -25 0
v -1 -24 0
v 0 -24 0

# Texture cooridinates (Count = 63)
vt 0.1764706 0.9375
vt 0.2058824 0.9375
vt 0.2058824 0.96875
vt 0.1764706 0.96875
vt 0.2352941 0.8125
vt 0.2647059 0.8125
vt 0.2647059 0.84375
vt 0.2352941 0.84375
vt 0.2058824 0.8125
vt 0.2058824 0.84375
vt 0.1764706 0.8125
vt 0.1764706 0.84375
vt 0.1764706 0.90625
vt 0.2058824 0.90625
vt 0.2352941 0.78125
vt 0.2647059 0.78125
vt 0.2058824 0.78125
vt 0.1764706 0.78125
vt 0.1764706 0.875
vt 0.2058824 0.875
vt 0.2352941 0.75
vt 0.2647059 0.75
vt 0.2058824 0.75
vt 0.1764706 0.75
vt 0.4117647 0.8125
vt 0.4411765 0.8125
vt 0.4411765 0.84375
vt 0.4117647 0.84375
vt 0.4705882 0.8125
vt 0.5 0.8125
vt 0.5 0.84375
vt 0.4705882 0.84375
vt 0.3529412 0.65625
vt 0.3823529 0.65625
vt 0.3823529 0.6875
vt 0.3529412 0.6875
vt 0.9411765 0.5625
vt 0.9705882 0.5625
vt 0.9705882 0.59375
vt 0.9411765 0.59375
vt 0.9117647 0.5625
vt 0.9117647 0.59375
vt 0.8823529 0.5625
vt 0.8823529 0.59375
vt 0.8529412 0.5625
vt 0.8529412 0.59375
vt 0.9411765 0.53125
vt 0.9705882 0.53125
vt 0.9117647 0.53125
vt 0.8823529 0.53125
vt 0.8529412 0.53125
vt 0.4117647 0.5625
vt 0.4411765 0.5625
vt 0.4411765 0.59375
vt 0.4117647 0.59375
vt 0.2352941 0.5625
vt 0.2647059 0.5625
vt 0.2647059 0.59375
vt 0.2352941 0.59375
vt 0.1176471 0.5625
vt 0.1470588 0.5625
vt 0.1470588 0.59375
vt 0.1176471 0.59375

# Normal
vn 0 0 -1

# Mesh description
g Vila_oeste2_v2_mesh_0003

# Faces
f 1/1/1 2/2/1 3/3/1 4/4/1
f 5/1/1 6/2/1 7/3/1 8/4/1
f 9/1/1 10/2/1 11/3/1 12/4/1
f 13/1/1 14/2/1 15/3/1 16/4/1
f 17/1/1 18/2/1 19/3/1 20/4/1
f 21/1/1 22/2/1 23/3/1 24/4/1
f 25/1/1 26/2/1 27/3/1 28/4/1
f 29/1/1 30/2/1 31/3/1 32/4/1
f 33/5/1 34/6/1 35/7/1 36/8/1
f 37/9/1 38/5/1 39/8/1 40/10/1
f 41/11/1 42/9/1 43/10/1 44/12/1
f 45/1/1 46/2/1 47/3/1 48/4/1
f 49/1/1 50/2/1 51/3/1 52/4/1
f 53/1/1 54/2/1 55/3/1 56/4/1
f 57/1/1 58/2/1 59/3/1 60/4/1
f 61/1/1 62/2/1 63/3/1 64/4/1
f 65/1/1 66/2/1 67/3/1 68/4/1
f 69/1/1 70/2/1 71/3/1 72/4/1
f 73/1/1 74/2/1 75/3/1 76/4/1
f 77/1/1 78/2/1 79/3/1 80/4/1
f 81/1/1 82/2/1 83/3/1 84/4/1
f 85/1/1 86/2/1 87/3/1 88/4/1
f 89/1/1 90/2/1 91/3/1 92/4/1
f 93/1/1 94/2/1 95/3/1 96/4/1
f 97/1/1 98/2/1 99/3/1 100/4/1
f 101/13/1 102/14/1 103/2/1 104/1/1
f 105/13/1 106/14/1 107/2/1 108/1/1
f 109/13/1 110/14/1 111/2/1 112/1/1
f 113/13/1 114/14/1 115/2/1 116/1/1
f 117/13/1 118/14/1 119/2/1 120/1/1
f 121/13/1 122/14/1 123/2/1 124/1/1
f 125/13/1 126/14/1 127/2/1 128/1/1
f 129/13/1 130/14/1 131/2/1 132/1/1
f 133/15/1 134/16/1 135/6/1 136/5/1
f 137/17/1 138/15/1 139/5/1 140/9/1
f 141/18/1 142/17/1 143/9/1 144/11/1
f 145/13/1 146/14/1 147/2/1 148/1/1
f 149/13/1 150/14/1 151/2/1 152/1/1
f 153/13/1 154/14/1 155/2/1 156/1/1
f 157/13/1 158/14/1 159/2/1 160/1/1
f 161/13/1 162/14/1 163/2/1 164/1/1
f 165/13/1 166/14/1 167/2/1 168/1/1
f 169/13/1 170/14/1 171/2/1 172/1/1
f 173/13/1 174/14/1 175/2/1 176/1/1
f 177/13/1 178/14/1 179/2/1 180/1/1
f 181/13/1 182/14/1 183/2/1 184/1/1
f 185/13/1 186/14/1 187/2/1 188/1/1
f 189/13/1 190/14/1 191/2/1 192/1/1
f 193/13/1 194/14/1 195/2/1 196/1/1
f 197/13/1 198/14/1 199/2/1 200/1/1
f 201/19/1 202/20/1 203/14/1 204/13/1
f 205/19/1 206/20/1 207/14/1 208/13/1
f 209/19/1 210/20/1 211/14/1 212/13/1
f 213/19/1 214/20/1 215/14/1 216/13/1
f 217/19/1 218/20/1 219/14/1 220/13/1
f 221/19/1 222/20/1 223/14/1 224/13/1
f 225/19/1 226/20/1 227/14/1 228/13/1
f 229/19/1 230/20/1 231/14/1 232/13/1
f 233/21/1 234/22/1 235/16/1 236/15/1
f 237/23/1 238/21/1 239/15/1 240/17/1
f 241/24/1 242/23/1 243/17/1 244/18/1
f 245/19/1 246/20/1 247/14/1 248/13/1
f 249/19/1 250/20/1 251/14/1 252/13/1
f 253/19/1 254/20/1 255/14/1 256/13/1
f 257/19/1 258/20/1 259/14/1 260/13/1
f 261/19/1 262/20/1 263/14/1 264/13/1
f 265/19/1 266/20/1 267/14/1 268/13/1
f 269/19/1 270/20/1 271/14/1 272/13/1
f 273/19/1 274/20/1 275/14/1 276/13/1
f 277/19/1 278/20/1 279/14/1 280/13/1
f 281/19/1 282/20/1 283/14/1 284/13/1
f 285/19/1 286/20/1 287/14/1 288/13/1
f 289/19/1 290/20/1 291/14/1 292/13/1
f 293/19/1 294/20/1 295/14/1 296/13/1
f 297/19/1 298/20/1 299/14/1 300/13/1
f 301/25/1 302/26/1 303/27/1 304/28/1
f 305/29/1 306/30/1 307/31/1 308/32/1
f 309/25/1 310/26/1 311/27/1 312/28/1
f 313/33/1 314/34/1 315/35/1 316/36/1
f 317/29/1 318/30/1 319/31/1 320/32/1
f 321/25/1 322/26/1 323/27/1 324/28/1
f 325/29/1 326/30/1 327/31/1 328/32/1
f 329/25/1 330/26/1 331/27/1 332/28/1
f 333/29/1 334/30/1 335/31/1 336/32/1
f 337/25/1 338/26/1 339/27/1 340/28/1
f 341/29/1 342/30/1 343/31/1 344/32/1
f 345/25/1 346/26/1 347/27/1 348/28/1
f 349/33/1 350/34/1 351/35/1 352/36/1
f 353/29/1 354/30/1 355/31/1 356/32/1
f 357/25/1 358/26/1 359/27/1 360/28/1
f 361/29/1 362/30/1 363/31/1 364/32/1
f 365/25/1 366/26/1 367/27/1 368/28/1
f 369/29/1 370/30/1 371/31/1 372/32/1
f 373/25/1 374/26/1 375/27/1 376/28/1
f 377/29/1 378/30/1 379/31/1 380/32/1
f 381/37/1 382/38/1 383/39/1 384/40/1
f 385/41/1 386/37/1 387/40/1 388/42/1
f 389/43/1 390/41/1 391/42/1 392/44/1
f 393/45/1 394/43/1 395/44/1 396/46/1
f 397/29/1 398/30/1 399/31/1 400/32/1
f 401/47/1 402/48/1 403/38/1 404/37/1
f 405/49/1 406/47/1 407/37/1 408/41/1
f 409/50/1 410/49/1 411/41/1 412/43/1
f 413/51/1 414/50/1 415/43/1 416/45/1
f 417/29/1 418/30/1 419/31/1 420/32/1
f 421/25/1 422/26/1 423/27/1 424/28/1
f 425/29/1 426/30/1 427/31/1 428/32/1
f 429/25/1 430/26/1 431/27/1 432/28/1
f 433/29/1 434/30/1 435/31/1 436/32/1
f 437/25/1 438/26/1 439/27/1 440/28/1
f 441/29/1 442/30/1 443/31/1 444/32/1
f 445/25/1 446/26/1 447/27/1 448/28/1
f 449/37/1 450/38/1 451/39/1 452/40/1
f 453/41/1 454/37/1 455/40/1 456/42/1
f 457/43/1 458/41/1 459/42/1 460/44/1
f 461/45/1 462/43/1 463/44/1 464/46/1
f 465/29/1 466/30/1 467/31/1 468/32/1
f 469/25/1 470/26/1 471/27/1 472/28/1
f 473/47/1 474/48/1 475/38/1 476/37/1
f 477/49/1 478/47/1 479/37/1 480/41/1
f 481/50/1 482/49/1 483/41/1 484/43/1
f 485/51/1 486/50/1 487/43/1 488/45/1
f 489/29/1 490/30/1 491/31/1 492/32/1
f 493/25/1 494/26/1 495/27/1 496/28/1
f 497/33/1 498/34/1 499/35/1 500/36/1
f 501/29/1 502/30/1 503/31/1 504/32/1
f 505/25/1 506/26/1 507/27/1 508/28/1
f 509/29/1 510/30/1 511/31/1 512/32/1
f 513/25/1 514/26/1 515/27/1 516/28/1
f 517/29/1 518/30/1 519/31/1 520/32/1
f 521/25/1 522/26/1 523/27/1 524/28/1
f 525/29/1 526/30/1 527/31/1 528/32/1
f 529/25/1 530/26/1 531/27/1 532/28/1
f 533/33/1 534/34/1 535/35/1 536/36/1
f 537/29/1 538/30/1 539/31/1 540/32/1
f 541/52/1 542/53/1 543/54/1 544/55/1
f 545/56/1 546/57/1 547/58/1 548/59/1
f 549/56/1 550/57/1 551/58/1 552/59/1
f 553/56/1 554/57/1 555/58/1 556/59/1
f 557/56/1 558/57/1 559/58/1 560/59/1
f 561/56/1 562/57/1 563/58/1 564/59/1
f 565/56/1 566/57/1 567/58/1 568/59/1
f 569/56/1 570/57/1 571/58/1 572/59/1
f 573/56/1 574/57/1 575/58/1 576/59/1
f 577/56/1 578/57/1 579/58/1 580/59/1
f 581/56/1 582/57/1 583/58/1 584/59/1
f 585/56/1 586/57/1 587/58/1 588/59/1
f 589/56/1 590/57/1 591/58/1 592/59/1
f 593/56/1 594/57/1 595/58/1 596/59/1
f 597/56/1 598/57/1 599/58/1 600/59/1
f 601/56/1 602/57/1 603/58/1 604/59/1
f 605/56/1 606/57/1 607/58/1 608/59/1
f 609/56/1 610/57/1 611/58/1 612/59/1
f 613/56/1 614/57/1 615/58/1 616/59/1
f 617/56/1 618/57/1 619/58/1 620/59/1
f 621/56/1 622/57/1 623/58/1 624/59/1
f 625/56/1 626/57/1 627/58/1 628/59/1
f 629/56/1 630/57/1 631/58/1 632/59/1
f 633/56/1 634/57/1 635/58/1 636/59/1
f 637/60/1 638/61/1 639/62/1 640/63/1

