# Tiled2Unity generated file. Do not modify by hand.
# Wavefront file for 'Vila_norte_v2_mesh_0002.obj'

# Vertices (Count = 1020)
v -24 -1 0
v -25 -1 0
v -25 0 0
v -24 0 0
v -23 -1 0
v -24 -1 0
v -24 0 0
v -23 0 0
v -22 -1 0
v -23 -1 0
v -23 0 0
v -22 0 0
v -21 -1 0
v -22 -1 0
v -22 0 0
v -21 0 0
v -20 -1 0
v -21 -1 0
v -21 0 0
v -20 0 0
v -19 -1 0
v -20 -1 0
v -20 0 0
v -19 0 0
v -18 -1 0
v -19 -1 0
v -19 0 0
v -18 0 0
v -17 -1 0
v -18 -1 0
v -18 0 0
v -17 0 0
v -16 -1 0
v -17 -1 0
v -17 0 0
v -16 0 0
v -15 -1 0
v -16 -1 0
v -16 0 0
v -15 0 0
v -14 -1 0
v -15 -1 0
v -15 0 0
v -14 0 0
v -11 -1 0
v -12 -1 0
v -12 0 0
v -11 0 0
v -10 -1 0
v -11 -1 0
v -11 0 0
v -10 0 0
v -9 -1 0
v -10 -1 0
v -10 0 0
v -9 0 0
v -8 -1 0
v -9 -1 0
v -9 0 0
v -8 0 0
v -7 -1 0
v -8 -1 0
v -8 0 0
v -7 0 0
v -6 -1 0
v -7 -1 0
v -7 0 0
v -6 0 0
v -5 -1 0
v -6 -1 0
v -6 0 0
v -5 0 0
v -4 -1 0
v -5 -1 0
v -5 0 0
v -4 0 0
v -3 -1 0
v -4 -1 0
v -4 0 0
v -3 0 0
v -2 -1 0
v -3 -1 0
v -3 0 0
v -2 0 0
v -1 -1 0
v -2 -1 0
v -2 0 0
v -1 0 0
v 0 -1 0
v -1 -1 0
v -1 0 0
v 0 0 0
v -24 -2 0
v -25 -2 0
v -25 -1 0
v -24 -1 0
v -9 -2 0
v -10 -2 0
v -10 -1 0
v -9 -1 0
v -8 -2 0
v -9 -2 0
v -9 -1 0
v -8 -1 0
v -7 -2 0
v -8 -2 0
v -8 -1 0
v -7 -1 0
v -2 -2 0
v -3 -2 0
v -3 -1 0
v -2 -1 0
v 0 -2 0
v -1 -2 0
v -1 -1 0
v 0 -1 0
v -24 -3 0
v -25 -3 0
v -25 -2 0
v -24 -2 0
v -23 -3 0
v -24 -3 0
v -24 -2 0
v -23 -2 0
v -22 -3 0
v -23 -3 0
v -23 -2 0
v -22 -2 0
v -11 -3 0
v -12 -3 0
v -12 -2 0
v -11 -2 0
v -9 -3 0
v -10 -3 0
v -10 -2 0
v -9 -2 0
v -8 -3 0
v -9 -3 0
v -9 -2 0
v -8 -2 0
v -7 -3 0
v -8 -3 0
v -8 -2 0
v -7 -2 0
v -6 -3 0
v -7 -3 0
v -7 -2 0
v -6 -2 0
v -5 -3 0
v -6 -3 0
v -6 -2 0
v -5 -2 0
v -2 -3 0
v -3 -3 0
v -3 -2 0
v -2 -2 0
v -1 -3 0
v -2 -3 0
v -2 -2 0
v -1 -2 0
v 0 -3 0
v -1 -3 0
v -1 -2 0
v 0 -2 0
v -24 -4 0
v -25 -4 0
v -25 -3 0
v -24 -3 0
v -23 -4 0
v -24 -4 0
v -24 -3 0
v -23 -3 0
v -22 -4 0
v -23 -4 0
v -23 -3 0
v -22 -3 0
v -19 -4 0
v -20 -4 0
v -20 -3 0
v -19 -3 0
v -18 -4 0
v -19 -4 0
v -19 -3 0
v -18 -3 0
v -14 -4 0
v -15 -4 0
v -15 -3 0
v -14 -3 0
v -5 -4 0
v -6 -4 0
v -6 -3 0
v -5 -3 0
v -4 -4 0
v -5 -4 0
v -5 -3 0
v -4 -3 0
v -3 -4 0
v -4 -4 0
v -4 -3 0
v -3 -3 0
v 0 -4 0
v -1 -4 0
v -1 -3 0
v 0 -3 0
v -24 -5 0
v -25 -5 0
v -25 -4 0
v -24 -4 0
v -19 -5 0
v -20 -5 0
v -20 -4 0
v -19 -4 0
v -18 -5 0
v -19 -5 0
v -19 -4 0
v -18 -4 0
v -14 -5 0
v -15 -5 0
v -15 -4 0
v -14 -4 0
v -11 -5 0
v -12 -5 0
v -12 -4 0
v -11 -4 0
v -5 -5 0
v -6 -5 0
v -6 -4 0
v -5 -4 0
v -4 -5 0
v -5 -5 0
v -5 -4 0
v -4 -4 0
v 0 -5 0
v -1 -5 0
v -1 -4 0
v 0 -4 0
v -24 -6 0
v -25 -6 0
v -25 -5 0
v -24 -5 0
v -21 -6 0
v -22 -6 0
v -22 -5 0
v -21 -5 0
v -18 -6 0
v -19 -6 0
v -19 -5 0
v -18 -5 0
v -17 -6 0
v -18 -6 0
v -18 -5 0
v -17 -5 0
v -14 -6 0
v -15 -6 0
v -15 -5 0
v -14 -5 0
v -5 -6 0
v -6 -6 0
v -6 -5 0
v -5 -5 0
v -4 -6 0
v -5 -6 0
v -5 -5 0
v -4 -5 0
v -2 -6 0
v -3 -6 0
v -3 -5 0
v -2 -5 0
v 0 -6 0
v -1 -6 0
v -1 -5 0
v 0 -5 0
v -24 -7 0
v -25 -7 0
v -25 -6 0
v -24 -6 0
v -21 -7 0
v -22 -7 0
v -22 -6 0
v -21 -6 0
v -20 -7 0
v -21 -7 0
v -21 -6 0
v -20 -6 0
v -18 -7 0
v -19 -7 0
v -19 -6 0
v -18 -6 0
v -17 -7 0
v -18 -7 0
v -18 -6 0
v -17 -6 0
v -7 -7 0
v -8 -7 0
v -8 -6 0
v -7 -6 0
v -5 -7 0
v -6 -7 0
v -6 -6 0
v -5 -6 0
v -4 -7 0
v -5 -7 0
v -5 -6 0
v -4 -6 0
v -2 -7 0
v -3 -7 0
v -3 -6 0
v -2 -6 0
v -1 -7 0
v -2 -7 0
v -2 -6 0
v -1 -6 0
v 0 -7 0
v -1 -7 0
v -1 -6 0
v 0 -6 0
v -24 -8 0
v -25 -8 0
v -25 -7 0
v -24 -7 0
v -22 -8 0
v -23 -8 0
v -23 -7 0
v -22 -7 0
v -21 -8 0
v -22 -8 0
v -22 -7 0
v -21 -7 0
v -20 -8 0
v -21 -8 0
v -21 -7 0
v -20 -7 0
v -11 -8 0
v -12 -8 0
v -12 -7 0
v -11 -7 0
v -7 -8 0
v -8 -8 0
v -8 -7 0
v -7 -7 0
v -6 -8 0
v -7 -8 0
v -7 -7 0
v -6 -7 0
v -5 -8 0
v -6 -8 0
v -6 -7 0
v -5 -7 0
v -4 -8 0
v -5 -8 0
v -5 -7 0
v -4 -7 0
v 0 -8 0
v -1 -8 0
v -1 -7 0
v 0 -7 0
v -24 -9 0
v -25 -9 0
v -25 -8 0
v -24 -8 0
v -22 -9 0
v -23 -9 0
v -23 -8 0
v -22 -8 0
v -21 -9 0
v -22 -9 0
v -22 -8 0
v -21 -8 0
v -20 -9 0
v -21 -9 0
v -21 -8 0
v -20 -8 0
v -15 -9 0
v -16 -9 0
v -16 -8 0
v -15 -8 0
v -10 -9 0
v -11 -9 0
v -11 -8 0
v -10 -8 0
v -9 -9 0
v -10 -9 0
v -10 -8 0
v -9 -8 0
v -7 -9 0
v -8 -9 0
v -8 -8 0
v -7 -8 0
v -6 -9 0
v -7 -9 0
v -7 -8 0
v -6 -8 0
v -5 -9 0
v -6 -9 0
v -6 -8 0
v -5 -8 0
v 0 -9 0
v -1 -9 0
v -1 -8 0
v 0 -8 0
v -24 -10 0
v -25 -10 0
v -25 -9 0
v -24 -9 0
v -22 -10 0
v -23 -10 0
v -23 -9 0
v -22 -9 0
v -21 -10 0
v -22 -10 0
v -22 -9 0
v -21 -9 0
v -16 -10 0
v -17 -10 0
v -17 -9 0
v -16 -9 0
v -15 -10 0
v -16 -10 0
v -16 -9 0
v -15 -9 0
v -10 -10 0
v -11 -10 0
v -11 -9 0
v -10 -9 0
v -9 -10 0
v -10 -10 0
v -10 -9 0
v -9 -9 0
v -8 -10 0
v -9 -10 0
v -9 -9 0
v -8 -9 0
v -7 -10 0
v -8 -10 0
v -8 -9 0
v -7 -9 0
v -4 -10 0
v -5 -10 0
v -5 -9 0
v -4 -9 0
v 0 -10 0
v -1 -10 0
v -1 -9 0
v 0 -9 0
v -24 -11 0
v -25 -11 0
v -25 -10 0
v -24 -10 0
v -22 -11 0
v -23 -11 0
v -23 -10 0
v -22 -10 0
v -17 -11 0
v -18 -11 0
v -18 -10 0
v -17 -10 0
v -16 -11 0
v -17 -11 0
v -17 -10 0
v -16 -10 0
v -9 -11 0
v -10 -11 0
v -10 -10 0
v -9 -10 0
v -8 -11 0
v -9 -11 0
v -9 -10 0
v -8 -10 0
v -24 -12 0
v -25 -12 0
v -25 -11 0
v -24 -11 0
v -22 -12 0
v -23 -12 0
v -23 -11 0
v -22 -11 0
v -19 -12 0
v -20 -12 0
v -20 -11 0
v -19 -11 0
v -18 -12 0
v -19 -12 0
v -19 -11 0
v -18 -11 0
v -17 -12 0
v -18 -12 0
v -18 -11 0
v -17 -11 0
v -10 -12 0
v -11 -12 0
v -11 -11 0
v -10 -11 0
v -9 -12 0
v -10 -12 0
v -10 -11 0
v -9 -11 0
v -7 -12 0
v -8 -12 0
v -8 -11 0
v -7 -11 0
v -6 -12 0
v -7 -12 0
v -7 -11 0
v -6 -11 0
v -24 -13 0
v -25 -13 0
v -25 -12 0
v -24 -12 0
v -22 -13 0
v -23 -13 0
v -23 -12 0
v -22 -12 0
v -21 -13 0
v -22 -13 0
v -22 -12 0
v -21 -12 0
v -17 -13 0
v -18 -13 0
v -18 -12 0
v -17 -12 0
v -14 -13 0
v -15 -13 0
v -15 -12 0
v -14 -12 0
v -13 -13 0
v -14 -13 0
v -14 -12 0
v -13 -12 0
v -11 -13 0
v -12 -13 0
v -12 -12 0
v -11 -12 0
v -10 -13 0
v -11 -13 0
v -11 -12 0
v -10 -12 0
v 0 -13 0
v -1 -13 0
v -1 -12 0
v 0 -12 0
v -24 -14 0
v -25 -14 0
v -25 -13 0
v -24 -13 0
v -22 -14 0
v -23 -14 0
v -23 -13 0
v -22 -13 0
v -21 -14 0
v -22 -14 0
v -22 -13 0
v -21 -13 0
v -17 -14 0
v -18 -14 0
v -18 -13 0
v -17 -13 0
v -14 -14 0
v -15 -14 0
v -15 -13 0
v -14 -13 0
v -13 -14 0
v -14 -14 0
v -14 -13 0
v -13 -13 0
v -12 -14 0
v -13 -14 0
v -13 -13 0
v -12 -13 0
v -11 -14 0
v -12 -14 0
v -12 -13 0
v -11 -13 0
v -10 -14 0
v -11 -14 0
v -11 -13 0
v -10 -13 0
v -9 -14 0
v -10 -14 0
v -10 -13 0
v -9 -13 0
v 0 -14 0
v -1 -14 0
v -1 -13 0
v 0 -13 0
v -24 -15 0
v -25 -15 0
v -25 -14 0
v -24 -14 0
v -22 -15 0
v -23 -15 0
v -23 -14 0
v -22 -14 0
v -21 -15 0
v -22 -15 0
v -22 -14 0
v -21 -14 0
v -20 -15 0
v -21 -15 0
v -21 -14 0
v -20 -14 0
v -17 -15 0
v -18 -15 0
v -18 -14 0
v -17 -14 0
v -13 -15 0
v -14 -15 0
v -14 -14 0
v -13 -14 0
v -12 -15 0
v -13 -15 0
v -13 -14 0
v -12 -14 0
v -10 -15 0
v -11 -15 0
v -11 -14 0
v -10 -14 0
v -9 -15 0
v -10 -15 0
v -10 -14 0
v -9 -14 0
v 0 -15 0
v -1 -15 0
v -1 -14 0
v 0 -14 0
v -24 -16 0
v -25 -16 0
v -25 -15 0
v -24 -15 0
v -23 -16 0
v -24 -16 0
v -24 -15 0
v -23 -15 0
v -20 -16 0
v -21 -16 0
v -21 -15 0
v -20 -15 0
v -19 -16 0
v -20 -16 0
v -20 -15 0
v -19 -15 0
v -2 -16 0
v -3 -16 0
v -3 -15 0
v -2 -15 0
v 0 -16 0
v -1 -16 0
v -1 -15 0
v 0 -15 0
v -24 -17 0
v -25 -17 0
v -25 -16 0
v -24 -16 0
v -23 -17 0
v -24 -17 0
v -24 -16 0
v -23 -16 0
v -19 -17 0
v -20 -17 0
v -20 -16 0
v -19 -16 0
v -18 -17 0
v -19 -17 0
v -19 -16 0
v -18 -16 0
v -16 -17 0
v -17 -17 0
v -17 -16 0
v -16 -16 0
v -14 -17 0
v -15 -17 0
v -15 -16 0
v -14 -16 0
v -13 -17 0
v -14 -17 0
v -14 -16 0
v -13 -16 0
v -6 -17 0
v -7 -17 0
v -7 -16 0
v -6 -16 0
v -4 -17 0
v -5 -17 0
v -5 -16 0
v -4 -16 0
v -3 -17 0
v -4 -17 0
v -4 -16 0
v -3 -16 0
v -2 -17 0
v -3 -17 0
v -3 -16 0
v -2 -16 0
v -1 -17 0
v -2 -17 0
v -2 -16 0
v -1 -16 0
v 0 -17 0
v -1 -17 0
v -1 -16 0
v 0 -16 0
v -24 -18 0
v -25 -18 0
v -25 -17 0
v -24 -17 0
v -21 -18 0
v -22 -18 0
v -22 -17 0
v -21 -17 0
v -20 -18 0
v -21 -18 0
v -21 -17 0
v -20 -17 0
v -19 -18 0
v -20 -18 0
v -20 -17 0
v -19 -17 0
v -18 -18 0
v -19 -18 0
v -19 -17 0
v -18 -17 0
v -16 -18 0
v -17 -18 0
v -17 -17 0
v -16 -17 0
v -4 -18 0
v -5 -18 0
v -5 -17 0
v -4 -17 0
v -3 -18 0
v -4 -18 0
v -4 -17 0
v -3 -17 0
v 0 -18 0
v -1 -18 0
v -1 -17 0
v 0 -17 0
v -24 -19 0
v -25 -19 0
v -25 -18 0
v -24 -18 0
v -20 -19 0
v -21 -19 0
v -21 -18 0
v -20 -18 0
v -19 -19 0
v -20 -19 0
v -20 -18 0
v -19 -18 0
v -16 -19 0
v -17 -19 0
v -17 -18 0
v -16 -18 0
v -13 -19 0
v -14 -19 0
v -14 -18 0
v -13 -18 0
v -8 -19 0
v -9 -19 0
v -9 -18 0
v -8 -18 0
v -3 -19 0
v -4 -19 0
v -4 -18 0
v -3 -18 0
v -2 -19 0
v -3 -19 0
v -3 -18 0
v -2 -18 0
v 0 -19 0
v -1 -19 0
v -1 -18 0
v 0 -18 0
v -24 -20 0
v -25 -20 0
v -25 -19 0
v -24 -19 0
v -20 -20 0
v -21 -20 0
v -21 -19 0
v -20 -19 0
v -8 -20 0
v -9 -20 0
v -9 -19 0
v -8 -19 0
v -2 -20 0
v -3 -20 0
v -3 -19 0
v -2 -19 0
v 0 -20 0
v -1 -20 0
v -1 -19 0
v 0 -19 0
v -24 -21 0
v -25 -21 0
v -25 -20 0
v -24 -20 0
v -23 -21 0
v -24 -21 0
v -24 -20 0
v -23 -20 0
v -21 -21 0
v -22 -21 0
v -22 -20 0
v -21 -20 0
v -20 -21 0
v -21 -21 0
v -21 -20 0
v -20 -20 0
v -8 -21 0
v -9 -21 0
v -9 -20 0
v -8 -20 0
v -4 -21 0
v -5 -21 0
v -5 -20 0
v -4 -20 0
v -3 -21 0
v -4 -21 0
v -4 -20 0
v -3 -20 0
v -2 -21 0
v -3 -21 0
v -3 -20 0
v -2 -20 0
v 0 -21 0
v -1 -21 0
v -1 -20 0
v 0 -20 0
v -24 -22 0
v -25 -22 0
v -25 -21 0
v -24 -21 0
v -23 -22 0
v -24 -22 0
v -24 -21 0
v -23 -21 0
v -22 -22 0
v -23 -22 0
v -23 -21 0
v -22 -21 0
v -21 -22 0
v -22 -22 0
v -22 -21 0
v -21 -21 0
v -18 -22 0
v -19 -22 0
v -19 -21 0
v -18 -21 0
v -17 -22 0
v -18 -22 0
v -18 -21 0
v -17 -21 0
v -16 -22 0
v -17 -22 0
v -17 -21 0
v -16 -21 0
v -8 -22 0
v -9 -22 0
v -9 -21 0
v -8 -21 0
v -7 -22 0
v -8 -22 0
v -8 -21 0
v -7 -21 0
v -6 -22 0
v -7 -22 0
v -7 -21 0
v -6 -21 0
v -4 -22 0
v -5 -22 0
v -5 -21 0
v -4 -21 0
v -3 -22 0
v -4 -22 0
v -4 -21 0
v -3 -21 0
v -2 -22 0
v -3 -22 0
v -3 -21 0
v -2 -21 0
v 0 -22 0
v -1 -22 0
v -1 -21 0
v 0 -21 0
v -24 -23 0
v -25 -23 0
v -25 -22 0
v -24 -22 0
v -21 -23 0
v -22 -23 0
v -22 -22 0
v -21 -22 0
v -20 -23 0
v -21 -23 0
v -21 -22 0
v -20 -22 0
v -8 -23 0
v -9 -23 0
v -9 -22 0
v -8 -22 0
v -7 -23 0
v -8 -23 0
v -8 -22 0
v -7 -22 0
v -6 -23 0
v -7 -23 0
v -7 -22 0
v -6 -22 0
v -5 -23 0
v -6 -23 0
v -6 -22 0
v -5 -22 0
v -4 -23 0
v -5 -23 0
v -5 -22 0
v -4 -22 0
v 0 -23 0
v -1 -23 0
v -1 -22 0
v 0 -22 0
v -24 -24 0
v -25 -24 0
v -25 -23 0
v -24 -23 0
v 0 -24 0
v -1 -24 0
v -1 -23 0
v 0 -23 0
v -24 -25 0
v -25 -25 0
v -25 -24 0
v -24 -24 0
v -23 -25 0
v -24 -25 0
v -24 -24 0
v -23 -24 0
v -22 -25 0
v -23 -25 0
v -23 -24 0
v -22 -24 0
v -21 -25 0
v -22 -25 0
v -22 -24 0
v -21 -24 0
v -20 -25 0
v -21 -25 0
v -21 -24 0
v -20 -24 0
v -19 -25 0
v -20 -25 0
v -20 -24 0
v -19 -24 0
v -18 -25 0
v -19 -25 0
v -19 -24 0
v -18 -24 0
v -17 -25 0
v -18 -25 0
v -18 -24 0
v -17 -24 0
v -16 -25 0
v -17 -25 0
v -17 -24 0
v -16 -24 0
v -15 -25 0
v -16 -25 0
v -16 -24 0
v -15 -24 0
v -14 -25 0
v -15 -25 0
v -15 -24 0
v -14 -24 0
v -11 -25 0
v -12 -25 0
v -12 -24 0
v -11 -24 0
v -10 -25 0
v -11 -25 0
v -11 -24 0
v -10 -24 0
v -9 -25 0
v -10 -25 0
v -10 -24 0
v -9 -24 0
v -8 -25 0
v -9 -25 0
v -9 -24 0
v -8 -24 0
v -7 -25 0
v -8 -25 0
v -8 -24 0
v -7 -24 0
v -6 -25 0
v -7 -25 0
v -7 -24 0
v -6 -24 0
v -5 -25 0
v -6 -25 0
v -6 -24 0
v -5 -24 0
v -4 -25 0
v -5 -25 0
v -5 -24 0
v -4 -24 0
v -3 -25 0
v -4 -25 0
v -4 -24 0
v -3 -24 0
v -2 -25 0
v -3 -25 0
v -3 -24 0
v -2 -24 0
v -1 -25 0
v -2 -25 0
v -2 -24 0
v -1 -24 0
v 0 -25 0
v -1 -25 0
v -1 -24 0
v 0 -24 0

# Texture cooridinates (Count = 72)
vt 0.125 0.5277778
vt 0.15 0.5277778
vt 0.15 0.5555556
vt 0.125 0.5555556
vt 0.15 0.5
vt 0.175 0.5
vt 0.175 0.5277778
vt 0.125 0.4444444
vt 0.15 0.4444444
vt 0.15 0.4722222
vt 0.125 0.4722222
vt 0.125 0.5
vt 0.175 0.4722222
vt 0.075 0.6666666
vt 0.1 0.6666666
vt 0.1 0.6944444
vt 0.075 0.6944444
vt 0.175 0.6944444
vt 0.2 0.6944444
vt 0.2 0.7222222
vt 0.175 0.7222222
vt 0.175 0.5555556
vt 0.85 0.8333333
vt 0.875 0.8333333
vt 0.875 0.8611111
vt 0.85 0.8611111
vt 0.825 0.8333333
vt 0.825 0.8611111
vt 0.1 0.4722222
vt 0.1 0.5
vt 0.075 0.6388889
vt 0.1 0.6388889
vt 0.05 0.6388889
vt 0.05 0.6666666
vt 0.2 0.4722222
vt 0.2 0.5
vt 0.85 0.8055556
vt 0.875 0.8055556
vt 0.825 0.8055556
vt 0 0.75
vt 0.025 0.75
vt 0.025 0.7777778
vt 0 0.7777778
vt 0.05 0.75
vt 0.05 0.7777778
vt 0.8 0.8888889
vt 0.825 0.8888889
vt 0.825 0.9166667
vt 0.8 0.9166667
vt 0.775 0.8888889
vt 0.775 0.9166667
vt 0.8 0.8611111
vt 0.775 0.8611111
vt 0.075 0.5
vt 0.1 0.5277778
vt 0.075 0.5277778
vt 0.05 0.4722222
vt 0.075 0.4722222
vt 0.05 0.5
vt 0 0.9722222
vt 0.025 0.9722222
vt 0.025 1
vt 0 1
vt 0.05 0.5277778
vt 0.125 0.8333333
vt 0.15 0.8333333
vt 0.15 0.8611111
vt 0.125 0.8611111
vt 0.1 0.8333333
vt 0.1 0.8611111
vt 0.075 0.8333333
vt 0.075 0.8611111

# Normal
vn 0 0 -1

# Mesh description
g Vila_norte_v2_mesh_0002

# Faces
f 1/1/1 2/2/1 3/3/1 4/4/1
f 5/5/1 6/6/1 7/7/1 8/2/1
f 9/8/1 10/9/1 11/10/1 12/11/1
f 13/8/1 14/9/1 15/10/1 16/11/1
f 17/8/1 18/9/1 19/10/1 20/11/1
f 21/8/1 22/9/1 23/10/1 24/11/1
f 25/8/1 26/9/1 27/10/1 28/11/1
f 29/8/1 30/9/1 31/10/1 32/11/1
f 33/8/1 34/9/1 35/10/1 36/11/1
f 37/8/1 38/9/1 39/10/1 40/11/1
f 41/12/1 42/5/1 43/2/1 44/1/1
f 45/5/1 46/6/1 47/7/1 48/2/1
f 49/8/1 50/9/1 51/10/1 52/11/1
f 53/8/1 54/9/1 55/10/1 56/11/1
f 57/8/1 58/9/1 59/10/1 60/11/1
f 61/8/1 62/9/1 63/10/1 64/11/1
f 65/8/1 66/9/1 67/10/1 68/11/1
f 69/8/1 70/9/1 71/10/1 72/11/1
f 73/8/1 74/9/1 75/10/1 76/11/1
f 77/8/1 78/9/1 79/10/1 80/11/1
f 81/8/1 82/9/1 83/10/1 84/11/1
f 85/8/1 86/9/1 87/10/1 88/11/1
f 89/12/1 90/5/1 91/2/1 92/1/1
f 93/10/1 94/13/1 95/6/1 96/5/1
f 97/14/1 98/15/1 99/16/1 100/17/1
f 101/14/1 102/15/1 103/16/1 104/17/1
f 105/18/1 106/19/1 107/20/1 108/21/1
f 109/14/1 110/15/1 111/16/1 112/17/1
f 113/2/1 114/7/1 115/22/1 116/3/1
f 117/10/1 118/13/1 119/6/1 120/5/1
f 121/23/1 122/24/1 123/25/1 124/26/1
f 125/27/1 126/23/1 127/26/1 128/28/1
f 129/29/1 130/11/1 131/12/1 132/30/1
f 133/31/1 134/32/1 135/15/1 136/14/1
f 137/31/1 138/32/1 139/15/1 140/14/1
f 141/33/1 142/31/1 143/14/1 144/34/1
f 145/18/1 146/19/1 147/20/1 148/21/1
f 149/18/1 150/19/1 151/20/1 152/21/1
f 153/31/1 154/32/1 155/15/1 156/14/1
f 157/33/1 158/31/1 159/14/1 160/34/1
f 161/13/1 162/35/1 163/36/1 164/6/1
f 165/10/1 166/13/1 167/6/1 168/5/1
f 169/37/1 170/38/1 171/24/1 172/23/1
f 173/39/1 174/37/1 175/23/1 176/27/1
f 177/2/1 178/7/1 179/22/1 180/3/1
f 181/1/1 182/2/1 183/3/1 184/4/1
f 185/29/1 186/11/1 187/12/1 188/30/1
f 189/2/1 190/7/1 191/22/1 192/3/1
f 193/1/1 194/2/1 195/3/1 196/4/1
f 197/40/1 198/41/1 199/42/1 200/43/1
f 201/13/1 202/35/1 203/36/1 204/6/1
f 205/10/1 206/13/1 207/6/1 208/5/1
f 209/5/1 210/6/1 211/7/1 212/2/1
f 213/12/1 214/5/1 215/2/1 216/1/1
f 217/29/1 218/11/1 219/12/1 220/30/1
f 221/29/1 222/11/1 223/12/1 224/30/1
f 225/5/1 226/6/1 227/7/1 228/2/1
f 229/12/1 230/5/1 231/2/1 232/1/1
f 233/13/1 234/35/1 235/36/1 236/6/1
f 237/10/1 238/13/1 239/6/1 240/5/1
f 241/14/1 242/15/1 243/16/1 244/17/1
f 245/31/1 246/32/1 247/15/1 248/14/1
f 249/33/1 250/31/1 251/14/1 252/34/1
f 253/29/1 254/11/1 255/12/1 256/30/1
f 257/14/1 258/15/1 259/16/1 260/17/1
f 261/18/1 262/19/1 263/20/1 264/21/1
f 265/14/1 266/15/1 267/16/1 268/17/1
f 269/13/1 270/35/1 271/36/1 272/6/1
f 273/10/1 274/13/1 275/6/1 276/5/1
f 277/31/1 278/32/1 279/15/1 280/14/1
f 281/33/1 282/31/1 283/14/1 284/34/1
f 285/41/1 286/44/1 287/45/1 288/42/1
f 289/40/1 290/41/1 291/42/1 292/43/1
f 293/14/1 294/15/1 295/16/1 296/17/1
f 297/31/1 298/32/1 299/15/1 300/14/1
f 301/33/1 302/31/1 303/14/1 304/34/1
f 305/31/1 306/32/1 307/15/1 308/14/1
f 309/33/1 310/31/1 311/14/1 312/34/1
f 313/13/1 314/35/1 315/36/1 316/6/1
f 317/10/1 318/13/1 319/6/1 320/5/1
f 321/18/1 322/19/1 323/20/1 324/21/1
f 325/46/1 326/47/1 327/48/1 328/49/1
f 329/50/1 330/46/1 331/49/1 332/51/1
f 333/29/1 334/11/1 335/12/1 336/30/1
f 337/31/1 338/32/1 339/15/1 340/14/1
f 341/46/1 342/47/1 343/48/1 344/49/1
f 345/50/1 346/46/1 347/49/1 348/51/1
f 349/18/1 350/19/1 351/20/1 352/21/1
f 353/13/1 354/35/1 355/36/1 356/6/1
f 357/10/1 358/13/1 359/6/1 360/5/1
f 361/18/1 362/19/1 363/20/1 364/21/1
f 365/52/1 366/28/1 367/47/1 368/46/1
f 369/53/1 370/52/1 371/46/1 372/50/1
f 373/54/1 374/30/1 375/55/1 376/56/1
f 377/2/1 378/7/1 379/22/1 380/3/1
f 381/1/1 382/2/1 383/3/1 384/4/1
f 385/18/1 386/19/1 387/20/1 388/21/1
f 389/52/1 390/28/1 391/47/1 392/46/1
f 393/53/1 394/52/1 395/46/1 396/50/1
f 397/13/1 398/35/1 399/36/1 400/6/1
f 401/10/1 402/13/1 403/6/1 404/5/1
f 405/41/1 406/44/1 407/45/1 408/42/1
f 409/40/1 410/41/1 411/42/1 412/43/1
f 413/54/1 414/30/1 415/55/1 416/56/1
f 417/57/1 418/58/1 419/54/1 420/59/1
f 421/5/1 422/6/1 423/7/1 424/2/1
f 425/12/1 426/5/1 427/2/1 428/1/1
f 429/18/1 430/19/1 431/20/1 432/21/1
f 433/18/1 434/19/1 435/20/1 436/21/1
f 437/54/1 438/30/1 439/55/1 440/56/1
f 441/5/1 442/6/1 443/7/1 444/2/1
f 445/10/1 446/13/1 447/6/1 448/5/1
f 449/18/1 450/19/1 451/20/1 452/21/1
f 453/54/1 454/30/1 455/55/1 456/56/1
f 457/57/1 458/58/1 459/54/1 460/59/1
f 461/18/1 462/19/1 463/20/1 464/21/1
f 465/18/1 466/19/1 467/20/1 468/21/1
f 469/10/1 470/13/1 471/6/1 472/5/1
f 473/18/1 474/19/1 475/20/1 476/21/1
f 477/41/1 478/44/1 479/45/1 480/42/1
f 481/40/1 482/41/1 483/42/1 484/43/1
f 485/29/1 486/11/1 487/12/1 488/30/1
f 489/18/1 490/19/1 491/20/1 492/21/1
f 493/18/1 494/19/1 495/20/1 496/21/1
f 497/30/1 498/12/1 499/1/1 500/55/1
f 501/30/1 502/12/1 503/1/1 504/55/1
f 505/10/1 506/13/1 507/6/1 508/5/1
f 509/14/1 510/15/1 511/16/1 512/17/1
f 513/18/1 514/19/1 515/20/1 516/21/1
f 517/29/1 518/11/1 519/12/1 520/30/1
f 521/2/1 522/7/1 523/22/1 524/3/1
f 525/1/1 526/2/1 527/3/1 528/4/1
f 529/18/1 530/19/1 531/20/1 532/21/1
f 533/18/1 534/19/1 535/20/1 536/21/1
f 537/2/1 538/7/1 539/22/1 540/3/1
f 541/10/1 542/13/1 543/6/1 544/5/1
f 545/14/1 546/15/1 547/16/1 548/17/1
f 549/33/1 550/31/1 551/14/1 552/34/1
f 553/29/1 554/11/1 555/12/1 556/30/1
f 557/5/1 558/6/1 559/7/1 560/2/1
f 561/12/1 562/5/1 563/2/1 564/1/1
f 565/18/1 566/19/1 567/20/1 568/21/1
f 569/18/1 570/19/1 571/20/1 572/21/1
f 573/60/1 574/61/1 575/62/1 576/63/1
f 577/60/1 578/61/1 579/62/1 580/63/1
f 581/13/1 582/35/1 583/36/1 584/6/1
f 585/10/1 586/13/1 587/6/1 588/5/1
f 589/31/1 590/32/1 591/15/1 592/14/1
f 593/33/1 594/31/1 595/14/1 596/34/1
f 597/18/1 598/19/1 599/20/1 600/21/1
f 601/29/1 602/11/1 603/12/1 604/30/1
f 605/31/1 606/32/1 607/15/1 608/14/1
f 609/33/1 610/31/1 611/14/1 612/34/1
f 613/60/1 614/61/1 615/62/1 616/63/1
f 617/60/1 618/61/1 619/62/1 620/63/1
f 621/13/1 622/35/1 623/36/1 624/6/1
f 625/2/1 626/7/1 627/22/1 628/3/1
f 629/1/1 630/2/1 631/3/1 632/4/1
f 633/18/1 634/19/1 635/20/1 636/21/1
f 637/18/1 638/19/1 639/20/1 640/21/1
f 641/14/1 642/15/1 643/16/1 644/17/1
f 645/13/1 646/35/1 647/36/1 648/6/1
f 649/5/1 650/6/1 651/7/1 652/2/1
f 653/12/1 654/5/1 655/2/1 656/1/1
f 657/46/1 658/47/1 659/48/1 660/49/1
f 661/50/1 662/46/1 663/49/1 664/51/1
f 665/29/1 666/11/1 667/12/1 668/30/1
f 669/58/1 670/29/1 671/30/1 672/54/1
f 673/59/1 674/54/1 675/56/1 676/64/1
f 677/57/1 678/58/1 679/54/1 680/59/1
f 681/18/1 682/19/1 683/20/1 684/21/1
f 685/18/1 686/19/1 687/20/1 688/21/1
f 689/31/1 690/32/1 691/15/1 692/14/1
f 693/33/1 694/31/1 695/14/1 696/34/1
f 697/13/1 698/35/1 699/36/1 700/6/1
f 701/10/1 702/13/1 703/6/1 704/5/1
f 705/41/1 706/44/1 707/45/1 708/42/1
f 709/40/1 710/41/1 711/42/1 712/43/1
f 713/52/1 714/28/1 715/47/1 716/46/1
f 717/53/1 718/52/1 719/46/1 720/50/1
f 721/29/1 722/11/1 723/12/1 724/30/1
f 725/18/1 726/19/1 727/20/1 728/21/1
f 729/18/1 730/19/1 731/20/1 732/21/1
f 733/13/1 734/35/1 735/36/1 736/6/1
f 737/10/1 738/13/1 739/6/1 740/5/1
f 741/18/1 742/19/1 743/20/1 744/21/1
f 745/18/1 746/19/1 747/20/1 748/21/1
f 749/29/1 750/11/1 751/12/1 752/30/1
f 753/29/1 754/11/1 755/12/1 756/30/1
f 757/29/1 758/11/1 759/12/1 760/30/1
f 761/18/1 762/19/1 763/20/1 764/21/1
f 765/18/1 766/19/1 767/20/1 768/21/1
f 769/13/1 770/35/1 771/36/1 772/6/1
f 773/10/1 774/13/1 775/6/1 776/5/1
f 777/18/1 778/19/1 779/20/1 780/21/1
f 781/57/1 782/58/1 783/54/1 784/59/1
f 785/18/1 786/19/1 787/20/1 788/21/1
f 789/13/1 790/35/1 791/36/1 792/6/1
f 793/10/1 794/13/1 795/6/1 796/5/1
f 797/14/1 798/15/1 799/16/1 800/17/1
f 801/18/1 802/19/1 803/20/1 804/21/1
f 805/18/1 806/19/1 807/20/1 808/21/1
f 809/18/1 810/19/1 811/20/1 812/21/1
f 813/14/1 814/15/1 815/16/1 816/17/1
f 817/2/1 818/7/1 819/22/1 820/3/1
f 821/1/1 822/2/1 823/3/1 824/4/1
f 825/13/1 826/35/1 827/36/1 828/6/1
f 829/10/1 830/13/1 831/6/1 832/5/1
f 833/31/1 834/32/1 835/15/1 836/14/1
f 837/33/1 838/31/1 839/14/1 840/34/1
f 841/18/1 842/19/1 843/20/1 844/21/1
f 845/65/1 846/66/1 847/67/1 848/68/1
f 849/69/1 850/65/1 851/68/1 852/70/1
f 853/71/1 854/69/1 855/70/1 856/72/1
f 857/18/1 858/19/1 859/20/1 860/21/1
f 861/46/1 862/47/1 863/48/1 864/49/1
f 865/50/1 866/46/1 867/49/1 868/51/1
f 869/31/1 870/32/1 871/15/1 872/14/1
f 873/5/1 874/6/1 875/7/1 876/2/1
f 877/12/1 878/5/1 879/2/1 880/1/1
f 881/13/1 882/35/1 883/36/1 884/6/1
f 885/10/1 886/13/1 887/6/1 888/5/1
f 889/18/1 890/19/1 891/20/1 892/21/1
f 893/18/1 894/19/1 895/20/1 896/21/1
f 897/18/1 898/19/1 899/20/1 900/21/1
f 901/52/1 902/28/1 903/47/1 904/46/1
f 905/53/1 906/52/1 907/46/1 908/50/1
f 909/18/1 910/19/1 911/20/1 912/21/1
f 913/18/1 914/19/1 915/20/1 916/21/1
f 917/13/1 918/35/1 919/36/1 920/6/1
f 921/12/1 922/5/1 923/2/1 924/1/1
f 925/5/1 926/6/1 927/7/1 928/2/1
f 929/2/1 930/7/1 931/22/1 932/3/1
f 933/11/1 934/10/1 935/5/1 936/12/1
f 937/11/1 938/10/1 939/5/1 940/12/1
f 941/11/1 942/10/1 943/5/1 944/12/1
f 945/11/1 946/10/1 947/5/1 948/12/1
f 949/11/1 950/10/1 951/5/1 952/12/1
f 953/11/1 954/10/1 955/5/1 956/12/1
f 957/11/1 958/10/1 959/5/1 960/12/1
f 961/11/1 962/10/1 963/5/1 964/12/1
f 965/11/1 966/10/1 967/5/1 968/12/1
f 969/1/1 970/2/1 971/3/1 972/4/1
f 973/2/1 974/7/1 975/22/1 976/3/1
f 977/11/1 978/10/1 979/5/1 980/12/1
f 981/11/1 982/10/1 983/5/1 984/12/1
f 985/11/1 986/10/1 987/5/1 988/12/1
f 989/11/1 990/10/1 991/5/1 992/12/1
f 993/11/1 994/10/1 995/5/1 996/12/1
f 997/11/1 998/10/1 999/5/1 1000/12/1
f 1001/11/1 1002/10/1 1003/5/1 1004/12/1
f 1005/11/1 1006/10/1 1007/5/1 1008/12/1
f 1009/11/1 1010/10/1 1011/5/1 1012/12/1
f 1013/11/1 1014/10/1 1015/5/1 1016/12/1
f 1017/1/1 1018/2/1 1019/3/1 1020/4/1

