# Tiled2Unity generated file. Do not modify by hand.
# Wavefront file for 'Vila_norte_mesh_0002.obj'

# Vertices (Count = 1020)
v -24 -1 0
v -25 -1 0
v -25 0 0
v -24 0 0
v -23 -1 0
v -24 -1 0
v -24 0 0
v -23 0 0
v -22 -1 0
v -23 -1 0
v -23 0 0
v -22 0 0
v -21 -1 0
v -22 -1 0
v -22 0 0
v -21 0 0
v -20 -1 0
v -21 -1 0
v -21 0 0
v -20 0 0
v -19 -1 0
v -20 -1 0
v -20 0 0
v -19 0 0
v -18 -1 0
v -19 -1 0
v -19 0 0
v -18 0 0
v -17 -1 0
v -18 -1 0
v -18 0 0
v -17 0 0
v -16 -1 0
v -17 -1 0
v -17 0 0
v -16 0 0
v -15 -1 0
v -16 -1 0
v -16 0 0
v -15 0 0
v -14 -1 0
v -15 -1 0
v -15 0 0
v -14 0 0
v -11 -1 0
v -12 -1 0
v -12 0 0
v -11 0 0
v -10 -1 0
v -11 -1 0
v -11 0 0
v -10 0 0
v -9 -1 0
v -10 -1 0
v -10 0 0
v -9 0 0
v -8 -1 0
v -9 -1 0
v -9 0 0
v -8 0 0
v -7 -1 0
v -8 -1 0
v -8 0 0
v -7 0 0
v -6 -1 0
v -7 -1 0
v -7 0 0
v -6 0 0
v -5 -1 0
v -6 -1 0
v -6 0 0
v -5 0 0
v -4 -1 0
v -5 -1 0
v -5 0 0
v -4 0 0
v -3 -1 0
v -4 -1 0
v -4 0 0
v -3 0 0
v -2 -1 0
v -3 -1 0
v -3 0 0
v -2 0 0
v -1 -1 0
v -2 -1 0
v -2 0 0
v -1 0 0
v 0 -1 0
v -1 -1 0
v -1 0 0
v 0 0 0
v -24 -2 0
v -25 -2 0
v -25 -1 0
v -24 -1 0
v -9 -2 0
v -10 -2 0
v -10 -1 0
v -9 -1 0
v -8 -2 0
v -9 -2 0
v -9 -1 0
v -8 -1 0
v -7 -2 0
v -8 -2 0
v -8 -1 0
v -7 -1 0
v -2 -2 0
v -3 -2 0
v -3 -1 0
v -2 -1 0
v 0 -2 0
v -1 -2 0
v -1 -1 0
v 0 -1 0
v -24 -3 0
v -25 -3 0
v -25 -2 0
v -24 -2 0
v -23 -3 0
v -24 -3 0
v -24 -2 0
v -23 -2 0
v -22 -3 0
v -23 -3 0
v -23 -2 0
v -22 -2 0
v -11 -3 0
v -12 -3 0
v -12 -2 0
v -11 -2 0
v -9 -3 0
v -10 -3 0
v -10 -2 0
v -9 -2 0
v -8 -3 0
v -9 -3 0
v -9 -2 0
v -8 -2 0
v -7 -3 0
v -8 -3 0
v -8 -2 0
v -7 -2 0
v -6 -3 0
v -7 -3 0
v -7 -2 0
v -6 -2 0
v -5 -3 0
v -6 -3 0
v -6 -2 0
v -5 -2 0
v -2 -3 0
v -3 -3 0
v -3 -2 0
v -2 -2 0
v -1 -3 0
v -2 -3 0
v -2 -2 0
v -1 -2 0
v 0 -3 0
v -1 -3 0
v -1 -2 0
v 0 -2 0
v -24 -4 0
v -25 -4 0
v -25 -3 0
v -24 -3 0
v -23 -4 0
v -24 -4 0
v -24 -3 0
v -23 -3 0
v -22 -4 0
v -23 -4 0
v -23 -3 0
v -22 -3 0
v -19 -4 0
v -20 -4 0
v -20 -3 0
v -19 -3 0
v -18 -4 0
v -19 -4 0
v -19 -3 0
v -18 -3 0
v -14 -4 0
v -15 -4 0
v -15 -3 0
v -14 -3 0
v -5 -4 0
v -6 -4 0
v -6 -3 0
v -5 -3 0
v -4 -4 0
v -5 -4 0
v -5 -3 0
v -4 -3 0
v -3 -4 0
v -4 -4 0
v -4 -3 0
v -3 -3 0
v 0 -4 0
v -1 -4 0
v -1 -3 0
v 0 -3 0
v -24 -5 0
v -25 -5 0
v -25 -4 0
v -24 -4 0
v -19 -5 0
v -20 -5 0
v -20 -4 0
v -19 -4 0
v -18 -5 0
v -19 -5 0
v -19 -4 0
v -18 -4 0
v -14 -5 0
v -15 -5 0
v -15 -4 0
v -14 -4 0
v -11 -5 0
v -12 -5 0
v -12 -4 0
v -11 -4 0
v -5 -5 0
v -6 -5 0
v -6 -4 0
v -5 -4 0
v -4 -5 0
v -5 -5 0
v -5 -4 0
v -4 -4 0
v 0 -5 0
v -1 -5 0
v -1 -4 0
v 0 -4 0
v -24 -6 0
v -25 -6 0
v -25 -5 0
v -24 -5 0
v -21 -6 0
v -22 -6 0
v -22 -5 0
v -21 -5 0
v -18 -6 0
v -19 -6 0
v -19 -5 0
v -18 -5 0
v -17 -6 0
v -18 -6 0
v -18 -5 0
v -17 -5 0
v -14 -6 0
v -15 -6 0
v -15 -5 0
v -14 -5 0
v -5 -6 0
v -6 -6 0
v -6 -5 0
v -5 -5 0
v -4 -6 0
v -5 -6 0
v -5 -5 0
v -4 -5 0
v -2 -6 0
v -3 -6 0
v -3 -5 0
v -2 -5 0
v 0 -6 0
v -1 -6 0
v -1 -5 0
v 0 -5 0
v -24 -7 0
v -25 -7 0
v -25 -6 0
v -24 -6 0
v -21 -7 0
v -22 -7 0
v -22 -6 0
v -21 -6 0
v -20 -7 0
v -21 -7 0
v -21 -6 0
v -20 -6 0
v -18 -7 0
v -19 -7 0
v -19 -6 0
v -18 -6 0
v -17 -7 0
v -18 -7 0
v -18 -6 0
v -17 -6 0
v -7 -7 0
v -8 -7 0
v -8 -6 0
v -7 -6 0
v -5 -7 0
v -6 -7 0
v -6 -6 0
v -5 -6 0
v -4 -7 0
v -5 -7 0
v -5 -6 0
v -4 -6 0
v -2 -7 0
v -3 -7 0
v -3 -6 0
v -2 -6 0
v -1 -7 0
v -2 -7 0
v -2 -6 0
v -1 -6 0
v 0 -7 0
v -1 -7 0
v -1 -6 0
v 0 -6 0
v -24 -8 0
v -25 -8 0
v -25 -7 0
v -24 -7 0
v -22 -8 0
v -23 -8 0
v -23 -7 0
v -22 -7 0
v -21 -8 0
v -22 -8 0
v -22 -7 0
v -21 -7 0
v -20 -8 0
v -21 -8 0
v -21 -7 0
v -20 -7 0
v -11 -8 0
v -12 -8 0
v -12 -7 0
v -11 -7 0
v -7 -8 0
v -8 -8 0
v -8 -7 0
v -7 -7 0
v -6 -8 0
v -7 -8 0
v -7 -7 0
v -6 -7 0
v -5 -8 0
v -6 -8 0
v -6 -7 0
v -5 -7 0
v -4 -8 0
v -5 -8 0
v -5 -7 0
v -4 -7 0
v 0 -8 0
v -1 -8 0
v -1 -7 0
v 0 -7 0
v -24 -9 0
v -25 -9 0
v -25 -8 0
v -24 -8 0
v -22 -9 0
v -23 -9 0
v -23 -8 0
v -22 -8 0
v -21 -9 0
v -22 -9 0
v -22 -8 0
v -21 -8 0
v -20 -9 0
v -21 -9 0
v -21 -8 0
v -20 -8 0
v -15 -9 0
v -16 -9 0
v -16 -8 0
v -15 -8 0
v -10 -9 0
v -11 -9 0
v -11 -8 0
v -10 -8 0
v -9 -9 0
v -10 -9 0
v -10 -8 0
v -9 -8 0
v -7 -9 0
v -8 -9 0
v -8 -8 0
v -7 -8 0
v -6 -9 0
v -7 -9 0
v -7 -8 0
v -6 -8 0
v -5 -9 0
v -6 -9 0
v -6 -8 0
v -5 -8 0
v 0 -9 0
v -1 -9 0
v -1 -8 0
v 0 -8 0
v -24 -10 0
v -25 -10 0
v -25 -9 0
v -24 -9 0
v -22 -10 0
v -23 -10 0
v -23 -9 0
v -22 -9 0
v -21 -10 0
v -22 -10 0
v -22 -9 0
v -21 -9 0
v -16 -10 0
v -17 -10 0
v -17 -9 0
v -16 -9 0
v -15 -10 0
v -16 -10 0
v -16 -9 0
v -15 -9 0
v -10 -10 0
v -11 -10 0
v -11 -9 0
v -10 -9 0
v -9 -10 0
v -10 -10 0
v -10 -9 0
v -9 -9 0
v -8 -10 0
v -9 -10 0
v -9 -9 0
v -8 -9 0
v -7 -10 0
v -8 -10 0
v -8 -9 0
v -7 -9 0
v -4 -10 0
v -5 -10 0
v -5 -9 0
v -4 -9 0
v 0 -10 0
v -1 -10 0
v -1 -9 0
v 0 -9 0
v -24 -11 0
v -25 -11 0
v -25 -10 0
v -24 -10 0
v -22 -11 0
v -23 -11 0
v -23 -10 0
v -22 -10 0
v -17 -11 0
v -18 -11 0
v -18 -10 0
v -17 -10 0
v -16 -11 0
v -17 -11 0
v -17 -10 0
v -16 -10 0
v -9 -11 0
v -10 -11 0
v -10 -10 0
v -9 -10 0
v -8 -11 0
v -9 -11 0
v -9 -10 0
v -8 -10 0
v -24 -12 0
v -25 -12 0
v -25 -11 0
v -24 -11 0
v -22 -12 0
v -23 -12 0
v -23 -11 0
v -22 -11 0
v -19 -12 0
v -20 -12 0
v -20 -11 0
v -19 -11 0
v -18 -12 0
v -19 -12 0
v -19 -11 0
v -18 -11 0
v -17 -12 0
v -18 -12 0
v -18 -11 0
v -17 -11 0
v -10 -12 0
v -11 -12 0
v -11 -11 0
v -10 -11 0
v -9 -12 0
v -10 -12 0
v -10 -11 0
v -9 -11 0
v -7 -12 0
v -8 -12 0
v -8 -11 0
v -7 -11 0
v -6 -12 0
v -7 -12 0
v -7 -11 0
v -6 -11 0
v -24 -13 0
v -25 -13 0
v -25 -12 0
v -24 -12 0
v -22 -13 0
v -23 -13 0
v -23 -12 0
v -22 -12 0
v -21 -13 0
v -22 -13 0
v -22 -12 0
v -21 -12 0
v -17 -13 0
v -18 -13 0
v -18 -12 0
v -17 -12 0
v -14 -13 0
v -15 -13 0
v -15 -12 0
v -14 -12 0
v -13 -13 0
v -14 -13 0
v -14 -12 0
v -13 -12 0
v -11 -13 0
v -12 -13 0
v -12 -12 0
v -11 -12 0
v -10 -13 0
v -11 -13 0
v -11 -12 0
v -10 -12 0
v 0 -13 0
v -1 -13 0
v -1 -12 0
v 0 -12 0
v -24 -14 0
v -25 -14 0
v -25 -13 0
v -24 -13 0
v -22 -14 0
v -23 -14 0
v -23 -13 0
v -22 -13 0
v -21 -14 0
v -22 -14 0
v -22 -13 0
v -21 -13 0
v -17 -14 0
v -18 -14 0
v -18 -13 0
v -17 -13 0
v -14 -14 0
v -15 -14 0
v -15 -13 0
v -14 -13 0
v -13 -14 0
v -14 -14 0
v -14 -13 0
v -13 -13 0
v -12 -14 0
v -13 -14 0
v -13 -13 0
v -12 -13 0
v -11 -14 0
v -12 -14 0
v -12 -13 0
v -11 -13 0
v -10 -14 0
v -11 -14 0
v -11 -13 0
v -10 -13 0
v -9 -14 0
v -10 -14 0
v -10 -13 0
v -9 -13 0
v 0 -14 0
v -1 -14 0
v -1 -13 0
v 0 -13 0
v -24 -15 0
v -25 -15 0
v -25 -14 0
v -24 -14 0
v -22 -15 0
v -23 -15 0
v -23 -14 0
v -22 -14 0
v -21 -15 0
v -22 -15 0
v -22 -14 0
v -21 -14 0
v -20 -15 0
v -21 -15 0
v -21 -14 0
v -20 -14 0
v -17 -15 0
v -18 -15 0
v -18 -14 0
v -17 -14 0
v -13 -15 0
v -14 -15 0
v -14 -14 0
v -13 -14 0
v -12 -15 0
v -13 -15 0
v -13 -14 0
v -12 -14 0
v -10 -15 0
v -11 -15 0
v -11 -14 0
v -10 -14 0
v -9 -15 0
v -10 -15 0
v -10 -14 0
v -9 -14 0
v 0 -15 0
v -1 -15 0
v -1 -14 0
v 0 -14 0
v -24 -16 0
v -25 -16 0
v -25 -15 0
v -24 -15 0
v -23 -16 0
v -24 -16 0
v -24 -15 0
v -23 -15 0
v -20 -16 0
v -21 -16 0
v -21 -15 0
v -20 -15 0
v -19 -16 0
v -20 -16 0
v -20 -15 0
v -19 -15 0
v -2 -16 0
v -3 -16 0
v -3 -15 0
v -2 -15 0
v 0 -16 0
v -1 -16 0
v -1 -15 0
v 0 -15 0
v -24 -17 0
v -25 -17 0
v -25 -16 0
v -24 -16 0
v -23 -17 0
v -24 -17 0
v -24 -16 0
v -23 -16 0
v -19 -17 0
v -20 -17 0
v -20 -16 0
v -19 -16 0
v -18 -17 0
v -19 -17 0
v -19 -16 0
v -18 -16 0
v -16 -17 0
v -17 -17 0
v -17 -16 0
v -16 -16 0
v -14 -17 0
v -15 -17 0
v -15 -16 0
v -14 -16 0
v -13 -17 0
v -14 -17 0
v -14 -16 0
v -13 -16 0
v -6 -17 0
v -7 -17 0
v -7 -16 0
v -6 -16 0
v -4 -17 0
v -5 -17 0
v -5 -16 0
v -4 -16 0
v -3 -17 0
v -4 -17 0
v -4 -16 0
v -3 -16 0
v -2 -17 0
v -3 -17 0
v -3 -16 0
v -2 -16 0
v -1 -17 0
v -2 -17 0
v -2 -16 0
v -1 -16 0
v 0 -17 0
v -1 -17 0
v -1 -16 0
v 0 -16 0
v -24 -18 0
v -25 -18 0
v -25 -17 0
v -24 -17 0
v -21 -18 0
v -22 -18 0
v -22 -17 0
v -21 -17 0
v -20 -18 0
v -21 -18 0
v -21 -17 0
v -20 -17 0
v -19 -18 0
v -20 -18 0
v -20 -17 0
v -19 -17 0
v -18 -18 0
v -19 -18 0
v -19 -17 0
v -18 -17 0
v -16 -18 0
v -17 -18 0
v -17 -17 0
v -16 -17 0
v -4 -18 0
v -5 -18 0
v -5 -17 0
v -4 -17 0
v -3 -18 0
v -4 -18 0
v -4 -17 0
v -3 -17 0
v 0 -18 0
v -1 -18 0
v -1 -17 0
v 0 -17 0
v -24 -19 0
v -25 -19 0
v -25 -18 0
v -24 -18 0
v -20 -19 0
v -21 -19 0
v -21 -18 0
v -20 -18 0
v -19 -19 0
v -20 -19 0
v -20 -18 0
v -19 -18 0
v -16 -19 0
v -17 -19 0
v -17 -18 0
v -16 -18 0
v -13 -19 0
v -14 -19 0
v -14 -18 0
v -13 -18 0
v -8 -19 0
v -9 -19 0
v -9 -18 0
v -8 -18 0
v -3 -19 0
v -4 -19 0
v -4 -18 0
v -3 -18 0
v -2 -19 0
v -3 -19 0
v -3 -18 0
v -2 -18 0
v 0 -19 0
v -1 -19 0
v -1 -18 0
v 0 -18 0
v -24 -20 0
v -25 -20 0
v -25 -19 0
v -24 -19 0
v -20 -20 0
v -21 -20 0
v -21 -19 0
v -20 -19 0
v -8 -20 0
v -9 -20 0
v -9 -19 0
v -8 -19 0
v -2 -20 0
v -3 -20 0
v -3 -19 0
v -2 -19 0
v 0 -20 0
v -1 -20 0
v -1 -19 0
v 0 -19 0
v -24 -21 0
v -25 -21 0
v -25 -20 0
v -24 -20 0
v -23 -21 0
v -24 -21 0
v -24 -20 0
v -23 -20 0
v -21 -21 0
v -22 -21 0
v -22 -20 0
v -21 -20 0
v -20 -21 0
v -21 -21 0
v -21 -20 0
v -20 -20 0
v -8 -21 0
v -9 -21 0
v -9 -20 0
v -8 -20 0
v -4 -21 0
v -5 -21 0
v -5 -20 0
v -4 -20 0
v -3 -21 0
v -4 -21 0
v -4 -20 0
v -3 -20 0
v -2 -21 0
v -3 -21 0
v -3 -20 0
v -2 -20 0
v 0 -21 0
v -1 -21 0
v -1 -20 0
v 0 -20 0
v -24 -22 0
v -25 -22 0
v -25 -21 0
v -24 -21 0
v -23 -22 0
v -24 -22 0
v -24 -21 0
v -23 -21 0
v -22 -22 0
v -23 -22 0
v -23 -21 0
v -22 -21 0
v -21 -22 0
v -22 -22 0
v -22 -21 0
v -21 -21 0
v -18 -22 0
v -19 -22 0
v -19 -21 0
v -18 -21 0
v -17 -22 0
v -18 -22 0
v -18 -21 0
v -17 -21 0
v -16 -22 0
v -17 -22 0
v -17 -21 0
v -16 -21 0
v -8 -22 0
v -9 -22 0
v -9 -21 0
v -8 -21 0
v -7 -22 0
v -8 -22 0
v -8 -21 0
v -7 -21 0
v -6 -22 0
v -7 -22 0
v -7 -21 0
v -6 -21 0
v -4 -22 0
v -5 -22 0
v -5 -21 0
v -4 -21 0
v -3 -22 0
v -4 -22 0
v -4 -21 0
v -3 -21 0
v -2 -22 0
v -3 -22 0
v -3 -21 0
v -2 -21 0
v 0 -22 0
v -1 -22 0
v -1 -21 0
v 0 -21 0
v -24 -23 0
v -25 -23 0
v -25 -22 0
v -24 -22 0
v -21 -23 0
v -22 -23 0
v -22 -22 0
v -21 -22 0
v -20 -23 0
v -21 -23 0
v -21 -22 0
v -20 -22 0
v -8 -23 0
v -9 -23 0
v -9 -22 0
v -8 -22 0
v -7 -23 0
v -8 -23 0
v -8 -22 0
v -7 -22 0
v -6 -23 0
v -7 -23 0
v -7 -22 0
v -6 -22 0
v -5 -23 0
v -6 -23 0
v -6 -22 0
v -5 -22 0
v -4 -23 0
v -5 -23 0
v -5 -22 0
v -4 -22 0
v 0 -23 0
v -1 -23 0
v -1 -22 0
v 0 -22 0
v -24 -24 0
v -25 -24 0
v -25 -23 0
v -24 -23 0
v 0 -24 0
v -1 -24 0
v -1 -23 0
v 0 -23 0
v -24 -25 0
v -25 -25 0
v -25 -24 0
v -24 -24 0
v -23 -25 0
v -24 -25 0
v -24 -24 0
v -23 -24 0
v -22 -25 0
v -23 -25 0
v -23 -24 0
v -22 -24 0
v -21 -25 0
v -22 -25 0
v -22 -24 0
v -21 -24 0
v -20 -25 0
v -21 -25 0
v -21 -24 0
v -20 -24 0
v -19 -25 0
v -20 -25 0
v -20 -24 0
v -19 -24 0
v -18 -25 0
v -19 -25 0
v -19 -24 0
v -18 -24 0
v -17 -25 0
v -18 -25 0
v -18 -24 0
v -17 -24 0
v -16 -25 0
v -17 -25 0
v -17 -24 0
v -16 -24 0
v -15 -25 0
v -16 -25 0
v -16 -24 0
v -15 -24 0
v -14 -25 0
v -15 -25 0
v -15 -24 0
v -14 -24 0
v -11 -25 0
v -12 -25 0
v -12 -24 0
v -11 -24 0
v -10 -25 0
v -11 -25 0
v -11 -24 0
v -10 -24 0
v -9 -25 0
v -10 -25 0
v -10 -24 0
v -9 -24 0
v -8 -25 0
v -9 -25 0
v -9 -24 0
v -8 -24 0
v -7 -25 0
v -8 -25 0
v -8 -24 0
v -7 -24 0
v -6 -25 0
v -7 -25 0
v -7 -24 0
v -6 -24 0
v -5 -25 0
v -6 -25 0
v -6 -24 0
v -5 -24 0
v -4 -25 0
v -5 -25 0
v -5 -24 0
v -4 -24 0
v -3 -25 0
v -4 -25 0
v -4 -24 0
v -3 -24 0
v -2 -25 0
v -3 -25 0
v -3 -24 0
v -2 -24 0
v -1 -25 0
v -2 -25 0
v -2 -24 0
v -1 -24 0
v 0 -25 0
v -1 -25 0
v -1 -24 0
v 0 -24 0

# Texture cooridinates (Count = 79)
vt 0.075 0.6111111
vt 0.1 0.6111111
vt 0.1 0.6388889
vt 0.075 0.6388889
vt 0.05 0.6111111
vt 0.05 0.6388889
vt 0.025 0.6111111
vt 0.025 0.6388889
vt 0.025 0.5833334
vt 0.05 0.5833334
vt 0.075 0.6666666
vt 0.1 0.6666666
vt 0.1 0.6944444
vt 0.075 0.6944444
vt 0.175 0.6944444
vt 0.2 0.6944444
vt 0.2 0.7222222
vt 0.175 0.7222222
vt 0.85 0.8333333
vt 0.875 0.8333333
vt 0.875 0.8611111
vt 0.85 0.8611111
vt 0.825 0.8333333
vt 0.825 0.8611111
vt 0.1 0.4722222
vt 0.125 0.4722222
vt 0.125 0.5
vt 0.1 0.5
vt 0.05 0.6666666
vt 0.85 0.8055556
vt 0.875 0.8055556
vt 0.825 0.8055556
vt 0.15 0.5277778
vt 0.175 0.5277778
vt 0.175 0.5555556
vt 0.15 0.5555556
vt 0.125 0.5277778
vt 0.125 0.5555556
vt 0 0.75
vt 0.025 0.75
vt 0.025 0.7777778
vt 0 0.7777778
vt 0.15 0.5
vt 0.175 0.5
vt 0.05 0.75
vt 0.05 0.7777778
vt 0.8 0.8888889
vt 0.825 0.8888889
vt 0.825 0.9166667
vt 0.8 0.9166667
vt 0.775 0.8888889
vt 0.775 0.9166667
vt 0.8 0.8611111
vt 0.775 0.8611111
vt 0.075 0.5
vt 0.1 0.5277778
vt 0.075 0.5277778
vt 0.05 0.4722222
vt 0.075 0.4722222
vt 0.05 0.5
vt 0.075 0.5833334
vt 0.1 0.5833334
vt 0 0.9722222
vt 0.025 0.9722222
vt 0.025 1
vt 0 1
vt 0.05 0.5277778
vt 0.125 0.8333333
vt 0.15 0.8333333
vt 0.15 0.8611111
vt 0.125 0.8611111
vt 0.1 0.8333333
vt 0.1 0.8611111
vt 0.075 0.8333333
vt 0.075 0.8611111
vt 0.075 0.5555556
vt 0.1 0.5555556
vt 0.025 0.5555556
vt 0.05 0.5555556

# Normal
vn 0 0 -1

# Mesh description
g Vila_norte_mesh_0002

# Faces
f 1/1/1 2/2/1 3/3/1 4/4/1
f 5/5/1 6/1/1 7/4/1 8/6/1
f 9/5/1 10/1/1 11/4/1 12/6/1
f 13/5/1 14/1/1 15/4/1 16/6/1
f 17/5/1 18/1/1 19/4/1 20/6/1
f 21/5/1 22/1/1 23/4/1 24/6/1
f 25/5/1 26/1/1 27/4/1 28/6/1
f 29/5/1 30/1/1 31/4/1 32/6/1
f 33/5/1 34/1/1 35/4/1 36/6/1
f 37/5/1 38/1/1 39/4/1 40/6/1
f 41/5/1 42/1/1 43/4/1 44/6/1
f 45/5/1 46/1/1 47/4/1 48/6/1
f 49/5/1 50/1/1 51/4/1 52/6/1
f 53/5/1 54/1/1 55/4/1 56/6/1
f 57/5/1 58/1/1 59/4/1 60/6/1
f 61/5/1 62/1/1 63/4/1 64/6/1
f 65/5/1 66/1/1 67/4/1 68/6/1
f 69/5/1 70/1/1 71/4/1 72/6/1
f 73/5/1 74/1/1 75/4/1 76/6/1
f 77/5/1 78/1/1 79/4/1 80/6/1
f 81/5/1 82/1/1 83/4/1 84/6/1
f 85/5/1 86/1/1 87/4/1 88/6/1
f 89/7/1 90/5/1 91/6/1 92/8/1
f 93/9/1 94/10/1 95/5/1 96/7/1
f 97/11/1 98/12/1 99/13/1 100/14/1
f 101/11/1 102/12/1 103/13/1 104/14/1
f 105/15/1 106/16/1 107/17/1 108/18/1
f 109/11/1 110/12/1 111/13/1 112/14/1
f 113/9/1 114/10/1 115/5/1 116/7/1
f 117/9/1 118/10/1 119/5/1 120/7/1
f 121/19/1 122/20/1 123/21/1 124/22/1
f 125/23/1 126/19/1 127/22/1 128/24/1
f 129/25/1 130/26/1 131/27/1 132/28/1
f 133/4/1 134/3/1 135/12/1 136/11/1
f 137/4/1 138/3/1 139/12/1 140/11/1
f 141/6/1 142/4/1 143/11/1 144/29/1
f 145/15/1 146/16/1 147/17/1 148/18/1
f 149/15/1 150/16/1 151/17/1 152/18/1
f 153/4/1 154/3/1 155/12/1 156/11/1
f 157/6/1 158/4/1 159/11/1 160/29/1
f 161/9/1 162/10/1 163/5/1 164/7/1
f 165/9/1 166/10/1 167/5/1 168/7/1
f 169/30/1 170/31/1 171/20/1 172/19/1
f 173/32/1 174/30/1 175/19/1 176/23/1
f 177/33/1 178/34/1 179/35/1 180/36/1
f 181/37/1 182/33/1 183/36/1 184/38/1
f 185/25/1 186/26/1 187/27/1 188/28/1
f 189/33/1 190/34/1 191/35/1 192/36/1
f 193/37/1 194/33/1 195/36/1 196/38/1
f 197/39/1 198/40/1 199/41/1 200/42/1
f 201/9/1 202/10/1 203/5/1 204/7/1
f 205/9/1 206/10/1 207/5/1 208/7/1
f 209/43/1 210/44/1 211/34/1 212/33/1
f 213/27/1 214/43/1 215/33/1 216/37/1
f 217/25/1 218/26/1 219/27/1 220/28/1
f 221/25/1 222/26/1 223/27/1 224/28/1
f 225/43/1 226/44/1 227/34/1 228/33/1
f 229/27/1 230/43/1 231/33/1 232/37/1
f 233/9/1 234/10/1 235/5/1 236/7/1
f 237/9/1 238/10/1 239/5/1 240/7/1
f 241/11/1 242/12/1 243/13/1 244/14/1
f 245/4/1 246/3/1 247/12/1 248/11/1
f 249/6/1 250/4/1 251/11/1 252/29/1
f 253/25/1 254/26/1 255/27/1 256/28/1
f 257/11/1 258/12/1 259/13/1 260/14/1
f 261/15/1 262/16/1 263/17/1 264/18/1
f 265/11/1 266/12/1 267/13/1 268/14/1
f 269/9/1 270/10/1 271/5/1 272/7/1
f 273/9/1 274/10/1 275/5/1 276/7/1
f 277/4/1 278/3/1 279/12/1 280/11/1
f 281/6/1 282/4/1 283/11/1 284/29/1
f 285/40/1 286/45/1 287/46/1 288/41/1
f 289/39/1 290/40/1 291/41/1 292/42/1
f 293/11/1 294/12/1 295/13/1 296/14/1
f 297/4/1 298/3/1 299/12/1 300/11/1
f 301/6/1 302/4/1 303/11/1 304/29/1
f 305/4/1 306/3/1 307/12/1 308/11/1
f 309/6/1 310/4/1 311/11/1 312/29/1
f 313/9/1 314/10/1 315/5/1 316/7/1
f 317/9/1 318/10/1 319/5/1 320/7/1
f 321/15/1 322/16/1 323/17/1 324/18/1
f 325/47/1 326/48/1 327/49/1 328/50/1
f 329/51/1 330/47/1 331/50/1 332/52/1
f 333/25/1 334/26/1 335/27/1 336/28/1
f 337/4/1 338/3/1 339/12/1 340/11/1
f 341/47/1 342/48/1 343/49/1 344/50/1
f 345/51/1 346/47/1 347/50/1 348/52/1
f 349/15/1 350/16/1 351/17/1 352/18/1
f 353/9/1 354/10/1 355/5/1 356/7/1
f 357/9/1 358/10/1 359/5/1 360/7/1
f 361/15/1 362/16/1 363/17/1 364/18/1
f 365/53/1 366/24/1 367/48/1 368/47/1
f 369/54/1 370/53/1 371/47/1 372/51/1
f 373/55/1 374/28/1 375/56/1 376/57/1
f 377/33/1 378/34/1 379/35/1 380/36/1
f 381/37/1 382/33/1 383/36/1 384/38/1
f 385/15/1 386/16/1 387/17/1 388/18/1
f 389/53/1 390/24/1 391/48/1 392/47/1
f 393/54/1 394/53/1 395/47/1 396/51/1
f 397/9/1 398/10/1 399/5/1 400/7/1
f 401/9/1 402/10/1 403/5/1 404/7/1
f 405/40/1 406/45/1 407/46/1 408/41/1
f 409/39/1 410/40/1 411/41/1 412/42/1
f 413/55/1 414/28/1 415/56/1 416/57/1
f 417/58/1 418/59/1 419/55/1 420/60/1
f 421/43/1 422/44/1 423/34/1 424/33/1
f 425/27/1 426/43/1 427/33/1 428/37/1
f 429/15/1 430/16/1 431/17/1 432/18/1
f 433/15/1 434/16/1 435/17/1 436/18/1
f 437/55/1 438/28/1 439/56/1 440/57/1
f 441/9/1 442/10/1 443/5/1 444/7/1
f 445/9/1 446/10/1 447/5/1 448/7/1
f 449/15/1 450/16/1 451/17/1 452/18/1
f 453/55/1 454/28/1 455/56/1 456/57/1
f 457/58/1 458/59/1 459/55/1 460/60/1
f 461/15/1 462/16/1 463/17/1 464/18/1
f 465/15/1 466/16/1 467/17/1 468/18/1
f 469/9/1 470/10/1 471/5/1 472/7/1
f 473/15/1 474/16/1 475/17/1 476/18/1
f 477/40/1 478/45/1 479/46/1 480/41/1
f 481/39/1 482/40/1 483/41/1 484/42/1
f 485/25/1 486/26/1 487/27/1 488/28/1
f 489/15/1 490/16/1 491/17/1 492/18/1
f 493/15/1 494/16/1 495/17/1 496/18/1
f 497/28/1 498/27/1 499/37/1 500/56/1
f 501/28/1 502/27/1 503/37/1 504/56/1
f 505/9/1 506/10/1 507/5/1 508/7/1
f 509/11/1 510/12/1 511/13/1 512/14/1
f 513/15/1 514/16/1 515/17/1 516/18/1
f 517/25/1 518/26/1 519/27/1 520/28/1
f 521/33/1 522/34/1 523/35/1 524/36/1
f 525/37/1 526/33/1 527/36/1 528/38/1
f 529/15/1 530/16/1 531/17/1 532/18/1
f 533/15/1 534/16/1 535/17/1 536/18/1
f 537/61/1 538/62/1 539/2/1 540/1/1
f 541/9/1 542/10/1 543/5/1 544/7/1
f 545/11/1 546/12/1 547/13/1 548/14/1
f 549/6/1 550/4/1 551/11/1 552/29/1
f 553/25/1 554/26/1 555/27/1 556/28/1
f 557/43/1 558/44/1 559/34/1 560/33/1
f 561/27/1 562/43/1 563/33/1 564/37/1
f 565/15/1 566/16/1 567/17/1 568/18/1
f 569/15/1 570/16/1 571/17/1 572/18/1
f 573/63/1 574/64/1 575/65/1 576/66/1
f 577/63/1 578/64/1 579/65/1 580/66/1
f 581/61/1 582/62/1 583/2/1 584/1/1
f 585/9/1 586/10/1 587/5/1 588/7/1
f 589/4/1 590/3/1 591/12/1 592/11/1
f 593/6/1 594/4/1 595/11/1 596/29/1
f 597/15/1 598/16/1 599/17/1 600/18/1
f 601/25/1 602/26/1 603/27/1 604/28/1
f 605/4/1 606/3/1 607/12/1 608/11/1
f 609/6/1 610/4/1 611/11/1 612/29/1
f 613/63/1 614/64/1 615/65/1 616/66/1
f 617/63/1 618/64/1 619/65/1 620/66/1
f 621/61/1 622/62/1 623/2/1 624/1/1
f 625/33/1 626/34/1 627/35/1 628/36/1
f 629/37/1 630/33/1 631/36/1 632/38/1
f 633/15/1 634/16/1 635/17/1 636/18/1
f 637/15/1 638/16/1 639/17/1 640/18/1
f 641/11/1 642/12/1 643/13/1 644/14/1
f 645/61/1 646/62/1 647/2/1 648/1/1
f 649/43/1 650/44/1 651/34/1 652/33/1
f 653/27/1 654/43/1 655/33/1 656/37/1
f 657/47/1 658/48/1 659/49/1 660/50/1
f 661/51/1 662/47/1 663/50/1 664/52/1
f 665/25/1 666/26/1 667/27/1 668/28/1
f 669/59/1 670/25/1 671/28/1 672/55/1
f 673/60/1 674/55/1 675/57/1 676/67/1
f 677/58/1 678/59/1 679/55/1 680/60/1
f 681/15/1 682/16/1 683/17/1 684/18/1
f 685/15/1 686/16/1 687/17/1 688/18/1
f 689/4/1 690/3/1 691/12/1 692/11/1
f 693/6/1 694/4/1 695/11/1 696/29/1
f 697/61/1 698/62/1 699/2/1 700/1/1
f 701/9/1 702/10/1 703/5/1 704/7/1
f 705/40/1 706/45/1 707/46/1 708/41/1
f 709/39/1 710/40/1 711/41/1 712/42/1
f 713/53/1 714/24/1 715/48/1 716/47/1
f 717/54/1 718/53/1 719/47/1 720/51/1
f 721/25/1 722/26/1 723/27/1 724/28/1
f 725/15/1 726/16/1 727/17/1 728/18/1
f 729/15/1 730/16/1 731/17/1 732/18/1
f 733/61/1 734/62/1 735/2/1 736/1/1
f 737/9/1 738/10/1 739/5/1 740/7/1
f 741/15/1 742/16/1 743/17/1 744/18/1
f 745/15/1 746/16/1 747/17/1 748/18/1
f 749/25/1 750/26/1 751/27/1 752/28/1
f 753/25/1 754/26/1 755/27/1 756/28/1
f 757/25/1 758/26/1 759/27/1 760/28/1
f 761/15/1 762/16/1 763/17/1 764/18/1
f 765/15/1 766/16/1 767/17/1 768/18/1
f 769/61/1 770/62/1 771/2/1 772/1/1
f 773/9/1 774/10/1 775/5/1 776/7/1
f 777/15/1 778/16/1 779/17/1 780/18/1
f 781/58/1 782/59/1 783/55/1 784/60/1
f 785/15/1 786/16/1 787/17/1 788/18/1
f 789/61/1 790/62/1 791/2/1 792/1/1
f 793/9/1 794/10/1 795/5/1 796/7/1
f 797/11/1 798/12/1 799/13/1 800/14/1
f 801/15/1 802/16/1 803/17/1 804/18/1
f 805/15/1 806/16/1 807/17/1 808/18/1
f 809/15/1 810/16/1 811/17/1 812/18/1
f 813/11/1 814/12/1 815/13/1 816/14/1
f 817/33/1 818/34/1 819/35/1 820/36/1
f 821/37/1 822/33/1 823/36/1 824/38/1
f 825/61/1 826/62/1 827/2/1 828/1/1
f 829/9/1 830/10/1 831/5/1 832/7/1
f 833/4/1 834/3/1 835/12/1 836/11/1
f 837/6/1 838/4/1 839/11/1 840/29/1
f 841/15/1 842/16/1 843/17/1 844/18/1
f 845/68/1 846/69/1 847/70/1 848/71/1
f 849/72/1 850/68/1 851/71/1 852/73/1
f 853/74/1 854/72/1 855/73/1 856/75/1
f 857/15/1 858/16/1 859/17/1 860/18/1
f 861/47/1 862/48/1 863/49/1 864/50/1
f 865/51/1 866/47/1 867/50/1 868/52/1
f 869/4/1 870/3/1 871/12/1 872/11/1
f 873/43/1 874/44/1 875/34/1 876/33/1
f 877/27/1 878/43/1 879/33/1 880/37/1
f 881/61/1 882/62/1 883/2/1 884/1/1
f 885/9/1 886/10/1 887/5/1 888/7/1
f 889/15/1 890/16/1 891/17/1 892/18/1
f 893/15/1 894/16/1 895/17/1 896/18/1
f 897/15/1 898/16/1 899/17/1 900/18/1
f 901/53/1 902/24/1 903/48/1 904/47/1
f 905/54/1 906/53/1 907/47/1 908/51/1
f 909/15/1 910/16/1 911/17/1 912/18/1
f 913/15/1 914/16/1 915/17/1 916/18/1
f 917/61/1 918/62/1 919/2/1 920/1/1
f 921/9/1 922/10/1 923/5/1 924/7/1
f 925/61/1 926/62/1 927/2/1 928/1/1
f 929/76/1 930/77/1 931/62/1 932/61/1
f 933/5/1 934/1/1 935/4/1 936/6/1
f 937/5/1 938/1/1 939/4/1 940/6/1
f 941/5/1 942/1/1 943/4/1 944/6/1
f 945/5/1 946/1/1 947/4/1 948/6/1
f 949/5/1 950/1/1 951/4/1 952/6/1
f 953/5/1 954/1/1 955/4/1 956/6/1
f 957/5/1 958/1/1 959/4/1 960/6/1
f 961/5/1 962/1/1 963/4/1 964/6/1
f 965/5/1 966/1/1 967/4/1 968/6/1
f 969/5/1 970/1/1 971/4/1 972/6/1
f 973/5/1 974/1/1 975/4/1 976/6/1
f 977/5/1 978/1/1 979/4/1 980/6/1
f 981/5/1 982/1/1 983/4/1 984/6/1
f 985/5/1 986/1/1 987/4/1 988/6/1
f 989/5/1 990/1/1 991/4/1 992/6/1
f 993/5/1 994/1/1 995/4/1 996/6/1
f 997/5/1 998/1/1 999/4/1 1000/6/1
f 1001/5/1 1002/1/1 1003/4/1 1004/6/1
f 1005/5/1 1006/1/1 1007/4/1 1008/6/1
f 1009/5/1 1010/1/1 1011/4/1 1012/6/1
f 1013/5/1 1014/1/1 1015/4/1 1016/6/1
f 1017/78/1 1018/79/1 1019/10/1 1020/9/1

