# Tiled2Unity generated file. Do not modify by hand.
# Wavefront file for 'YtansitionOeste_mesh_0006.obj'

# Vertices (Count = 392)
v -24 -1 0
v -25 -1 0
v -25 0 0
v -24 0 0
v -23 -1 0
v -24 -1 0
v -24 0 0
v -23 0 0
v -22 -1 0
v -23 -1 0
v -23 0 0
v -22 0 0
v -21 -1 0
v -22 -1 0
v -22 0 0
v -21 0 0
v -20 -1 0
v -21 -1 0
v -21 0 0
v -20 0 0
v -19 -1 0
v -20 -1 0
v -20 0 0
v -19 0 0
v -18 -1 0
v -19 -1 0
v -19 0 0
v -18 0 0
v -17 -1 0
v -18 -1 0
v -18 0 0
v -17 0 0
v -16 -1 0
v -17 -1 0
v -17 0 0
v -16 0 0
v -15 -1 0
v -16 -1 0
v -16 0 0
v -15 0 0
v -14 -1 0
v -15 -1 0
v -15 0 0
v -14 0 0
v -13 -1 0
v -14 -1 0
v -14 0 0
v -13 0 0
v -12 -1 0
v -13 -1 0
v -13 0 0
v -12 0 0
v -11 -1 0
v -12 -1 0
v -12 0 0
v -11 0 0
v -10 -1 0
v -11 -1 0
v -11 0 0
v -10 0 0
v -24 -2 0
v -25 -2 0
v -25 -1 0
v -24 -1 0
v -24 -3 0
v -25 -3 0
v -25 -2 0
v -24 -2 0
v -21 -3 0
v -22 -3 0
v -22 -2 0
v -21 -2 0
v -20 -3 0
v -21 -3 0
v -21 -2 0
v -20 -2 0
v -24 -4 0
v -25 -4 0
v -25 -3 0
v -24 -3 0
v -21 -4 0
v -22 -4 0
v -22 -3 0
v -21 -3 0
v -20 -4 0
v -21 -4 0
v -21 -3 0
v -20 -3 0
v -24 -5 0
v -25 -5 0
v -25 -4 0
v -24 -4 0
v -17 -5 0
v -18 -5 0
v -18 -4 0
v -17 -4 0
v -24 -6 0
v -25 -6 0
v -25 -5 0
v -24 -5 0
v -22 -6 0
v -23 -6 0
v -23 -5 0
v -22 -5 0
v -21 -6 0
v -22 -6 0
v -22 -5 0
v -21 -5 0
v -17 -6 0
v -18 -6 0
v -18 -5 0
v -17 -5 0
v -24 -7 0
v -25 -7 0
v -25 -6 0
v -24 -6 0
v -22 -7 0
v -23 -7 0
v -23 -6 0
v -22 -6 0
v -21 -7 0
v -22 -7 0
v -22 -6 0
v -21 -6 0
v -16 -7 0
v -17 -7 0
v -17 -6 0
v -16 -6 0
v -15 -7 0
v -16 -7 0
v -16 -6 0
v -15 -6 0
v -24 -8 0
v -25 -8 0
v -25 -7 0
v -24 -7 0
v -18 -8 0
v -19 -8 0
v -19 -7 0
v -18 -7 0
v -17 -8 0
v -18 -8 0
v -18 -7 0
v -17 -7 0
v -24 -9 0
v -25 -9 0
v -25 -8 0
v -24 -8 0
v -18 -9 0
v -19 -9 0
v -19 -8 0
v -18 -8 0
v -17 -9 0
v -18 -9 0
v -18 -8 0
v -17 -8 0
v -5 -9 0
v -6 -9 0
v -6 -8 0
v -5 -8 0
v -24 -10 0
v -25 -10 0
v -25 -9 0
v -24 -9 0
v -22 -10 0
v -23 -10 0
v -23 -9 0
v -22 -9 0
v -21 -10 0
v -22 -10 0
v -22 -9 0
v -21 -9 0
v -11 -10 0
v -12 -10 0
v -12 -9 0
v -11 -9 0
v -5 -10 0
v -6 -10 0
v -6 -9 0
v -5 -9 0
v -4 -10 0
v -5 -10 0
v -5 -9 0
v -4 -9 0
v -24 -11 0
v -25 -11 0
v -25 -10 0
v -24 -10 0
v -17 -11 0
v -18 -11 0
v -18 -10 0
v -17 -10 0
v -16 -11 0
v -17 -11 0
v -17 -10 0
v -16 -10 0
v -17 -12 0
v -18 -12 0
v -18 -11 0
v -17 -11 0
v -16 -12 0
v -17 -12 0
v -17 -11 0
v -16 -11 0
v -24 -14 0
v -25 -14 0
v -25 -13 0
v -24 -13 0
v -24 -15 0
v -25 -15 0
v -25 -14 0
v -24 -14 0
v -22 -15 0
v -23 -15 0
v -23 -14 0
v -22 -14 0
v -24 -16 0
v -25 -16 0
v -25 -15 0
v -24 -15 0
v -22 -16 0
v -23 -16 0
v -23 -15 0
v -22 -15 0
v -18 -16 0
v -19 -16 0
v -19 -15 0
v -18 -15 0
v -17 -16 0
v -18 -16 0
v -18 -15 0
v -17 -15 0
v -24 -17 0
v -25 -17 0
v -25 -16 0
v -24 -16 0
v -22 -17 0
v -23 -17 0
v -23 -16 0
v -22 -16 0
v -21 -17 0
v -22 -17 0
v -22 -16 0
v -21 -16 0
v -18 -17 0
v -19 -17 0
v -19 -16 0
v -18 -16 0
v -17 -17 0
v -18 -17 0
v -18 -16 0
v -17 -16 0
v -24 -18 0
v -25 -18 0
v -25 -17 0
v -24 -17 0
v -22 -18 0
v -23 -18 0
v -23 -17 0
v -22 -17 0
v -21 -18 0
v -22 -18 0
v -22 -17 0
v -21 -17 0
v -24 -19 0
v -25 -19 0
v -25 -18 0
v -24 -18 0
v -24 -20 0
v -25 -20 0
v -25 -19 0
v -24 -19 0
v -20 -20 0
v -21 -20 0
v -21 -19 0
v -20 -19 0
v -24 -21 0
v -25 -21 0
v -25 -20 0
v -24 -20 0
v -20 -21 0
v -21 -21 0
v -21 -20 0
v -20 -20 0
v -18 -21 0
v -19 -21 0
v -19 -20 0
v -18 -20 0
v -17 -21 0
v -18 -21 0
v -18 -20 0
v -17 -20 0
v -4 -21 0
v -5 -21 0
v -5 -20 0
v -4 -20 0
v -24 -22 0
v -25 -22 0
v -25 -21 0
v -24 -21 0
v -18 -22 0
v -19 -22 0
v -19 -21 0
v -18 -21 0
v -17 -22 0
v -18 -22 0
v -18 -21 0
v -17 -21 0
v -24 -23 0
v -25 -23 0
v -25 -22 0
v -24 -22 0
v -22 -23 0
v -23 -23 0
v -23 -22 0
v -22 -22 0
v -21 -23 0
v -22 -23 0
v -22 -22 0
v -21 -22 0
v -24 -24 0
v -25 -24 0
v -25 -23 0
v -24 -23 0
v -17 -24 0
v -18 -24 0
v -18 -23 0
v -17 -23 0
v -16 -24 0
v -17 -24 0
v -17 -23 0
v -16 -23 0
v -24 -25 0
v -25 -25 0
v -25 -24 0
v -24 -24 0
v -23 -25 0
v -24 -25 0
v -24 -24 0
v -23 -24 0
v -22 -25 0
v -23 -25 0
v -23 -24 0
v -22 -24 0
v -21 -25 0
v -22 -25 0
v -22 -24 0
v -21 -24 0
v -20 -25 0
v -21 -25 0
v -21 -24 0
v -20 -24 0
v -19 -25 0
v -20 -25 0
v -20 -24 0
v -19 -24 0
v -18 -25 0
v -19 -25 0
v -19 -24 0
v -18 -24 0
v -17 -25 0
v -18 -25 0
v -18 -24 0
v -17 -24 0
v -16 -25 0
v -17 -25 0
v -17 -24 0
v -16 -24 0
v -15 -25 0
v -16 -25 0
v -16 -24 0
v -15 -24 0
v -14 -25 0
v -15 -25 0
v -15 -24 0
v -14 -24 0
v -13 -25 0
v -14 -25 0
v -14 -24 0
v -13 -24 0
v -12 -25 0
v -13 -25 0
v -13 -24 0
v -12 -24 0
v -11 -25 0
v -12 -25 0
v -12 -24 0
v -11 -24 0
v -10 -25 0
v -11 -25 0
v -11 -24 0
v -10 -24 0

# Texture cooridinates (Count = 41)
vt 0.125 0.5277778
vt 0.15 0.5277778
vt 0.15 0.5555556
vt 0.125 0.5555556
vt 0.125 0.4444444
vt 0.15 0.4444444
vt 0.15 0.4722222
vt 0.125 0.4722222
vt 0.175 0.4722222
vt 0.175 0.5
vt 0.15 0.5
vt 0.175 0.5277778
vt 0.175 0.5555556
vt 0.125 0.5
vt 0.075 0.6666666
vt 0.1 0.6666666
vt 0.1 0.6944444
vt 0.075 0.6944444
vt 0.8 0.8888889
vt 0.825 0.8888889
vt 0.825 0.9166667
vt 0.8 0.9166667
vt 0.775 0.8888889
vt 0.775 0.9166667
vt 0.075 0.6388889
vt 0.1 0.6388889
vt 0.8 0.8611111
vt 0.825 0.8611111
vt 0.775 0.8611111
vt 0.05 0.6388889
vt 0.05 0.6666666
vt 0.675 0.8888889
vt 0.7 0.8888889
vt 0.7 0.9166667
vt 0.675 0.9166667
vt 0.725 0.9166667
vt 0.75 0.9166667
vt 0.75 0.9444444
vt 0.725 0.9444444
vt 0.725 0.8888889
vt 0.75 0.8888889

# Normal
vn 0 0 -1

# Mesh description
g YtansitionOeste_mesh_0006

# Faces
f 1/1/1 2/2/1 3/3/1 4/4/1
f 5/5/1 6/6/1 7/7/1 8/8/1
f 9/5/1 10/6/1 11/7/1 12/8/1
f 13/5/1 14/6/1 15/7/1 16/8/1
f 17/5/1 18/6/1 19/7/1 20/8/1
f 21/5/1 22/6/1 23/7/1 24/8/1
f 25/5/1 26/6/1 27/7/1 28/8/1
f 29/5/1 30/6/1 31/7/1 32/8/1
f 33/5/1 34/6/1 35/7/1 36/8/1
f 37/5/1 38/6/1 39/7/1 40/8/1
f 41/5/1 42/6/1 43/7/1 44/8/1
f 45/5/1 46/6/1 47/7/1 48/8/1
f 49/5/1 50/6/1 51/7/1 52/8/1
f 53/5/1 54/6/1 55/7/1 56/8/1
f 57/5/1 58/6/1 59/7/1 60/8/1
f 61/7/1 62/9/1 63/10/1 64/11/1
f 65/7/1 66/9/1 67/10/1 68/11/1
f 69/2/1 70/12/1 71/13/1 72/3/1
f 73/1/1 74/2/1 75/3/1 76/4/1
f 77/7/1 78/9/1 79/10/1 80/11/1
f 81/11/1 82/10/1 83/12/1 84/2/1
f 85/14/1 86/11/1 87/2/1 88/1/1
f 89/7/1 90/9/1 91/10/1 92/11/1
f 93/15/1 94/16/1 95/17/1 96/18/1
f 97/7/1 98/9/1 99/10/1 100/11/1
f 101/19/1 102/20/1 103/21/1 104/22/1
f 105/23/1 106/19/1 107/22/1 108/24/1
f 109/25/1 110/26/1 111/16/1 112/15/1
f 113/7/1 114/9/1 115/10/1 116/11/1
f 117/27/1 118/28/1 119/20/1 120/19/1
f 121/29/1 122/27/1 123/19/1 124/23/1
f 125/25/1 126/26/1 127/16/1 128/15/1
f 129/30/1 130/25/1 131/15/1 132/31/1
f 133/7/1 134/9/1 135/10/1 136/11/1
f 137/2/1 138/12/1 139/13/1 140/3/1
f 141/1/1 142/2/1 143/3/1 144/4/1
f 145/7/1 146/9/1 147/10/1 148/11/1
f 149/11/1 150/10/1 151/12/1 152/2/1
f 153/14/1 154/11/1 155/2/1 156/1/1
f 157/32/1 158/33/1 159/34/1 160/35/1
f 161/7/1 162/9/1 163/10/1 164/11/1
f 165/25/1 166/26/1 167/16/1 168/15/1
f 169/30/1 170/25/1 171/15/1 172/31/1
f 173/36/1 174/37/1 175/38/1 176/39/1
f 177/40/1 178/41/1 179/37/1 180/36/1
f 181/36/1 182/37/1 183/38/1 184/39/1
f 185/14/1 186/11/1 187/2/1 188/1/1
f 189/25/1 190/26/1 191/16/1 192/15/1
f 193/30/1 194/25/1 195/15/1 196/31/1
f 197/25/1 198/26/1 199/16/1 200/15/1
f 201/30/1 202/25/1 203/15/1 204/31/1
f 205/1/1 206/2/1 207/3/1 208/4/1
f 209/7/1 210/9/1 211/10/1 212/11/1
f 213/15/1 214/16/1 215/17/1 216/18/1
f 217/7/1 218/9/1 219/10/1 220/11/1
f 221/25/1 222/26/1 223/16/1 224/15/1
f 225/19/1 226/20/1 227/21/1 228/22/1
f 229/23/1 230/19/1 231/22/1 232/24/1
f 233/7/1 234/9/1 235/10/1 236/11/1
f 237/2/1 238/12/1 239/13/1 240/3/1
f 241/1/1 242/2/1 243/3/1 244/4/1
f 245/27/1 246/28/1 247/20/1 248/19/1
f 249/29/1 250/27/1 251/19/1 252/23/1
f 253/7/1 254/9/1 255/10/1 256/11/1
f 257/11/1 258/10/1 259/12/1 260/2/1
f 261/14/1 262/11/1 263/2/1 264/1/1
f 265/7/1 266/9/1 267/10/1 268/11/1
f 269/7/1 270/9/1 271/10/1 272/11/1
f 273/15/1 274/16/1 275/17/1 276/18/1
f 277/7/1 278/9/1 279/10/1 280/11/1
f 281/25/1 282/26/1 283/16/1 284/15/1
f 285/2/1 286/12/1 287/13/1 288/3/1
f 289/1/1 290/2/1 291/3/1 292/4/1
f 293/32/1 294/33/1 295/34/1 296/35/1
f 297/7/1 298/9/1 299/10/1 300/11/1
f 301/11/1 302/10/1 303/12/1 304/2/1
f 305/14/1 306/11/1 307/2/1 308/1/1
f 309/7/1 310/9/1 311/10/1 312/11/1
f 313/25/1 314/26/1 315/16/1 316/15/1
f 317/30/1 318/25/1 319/15/1 320/31/1
f 321/7/1 322/9/1 323/10/1 324/11/1
f 325/25/1 326/26/1 327/16/1 328/15/1
f 329/30/1 330/25/1 331/15/1 332/31/1
f 333/14/1 334/11/1 335/2/1 336/1/1
f 337/2/1 338/12/1 339/13/1 340/3/1
f 341/8/1 342/7/1 343/11/1 344/14/1
f 345/8/1 346/7/1 347/11/1 348/14/1
f 349/8/1 350/7/1 351/11/1 352/14/1
f 353/8/1 354/7/1 355/11/1 356/14/1
f 357/8/1 358/7/1 359/11/1 360/14/1
f 361/8/1 362/7/1 363/11/1 364/14/1
f 365/8/1 366/7/1 367/11/1 368/14/1
f 369/8/1 370/7/1 371/11/1 372/14/1
f 373/8/1 374/7/1 375/11/1 376/14/1
f 377/8/1 378/7/1 379/11/1 380/14/1
f 381/8/1 382/7/1 383/11/1 384/14/1
f 385/8/1 386/7/1 387/11/1 388/14/1
f 389/1/1 390/2/1 391/3/1 392/4/1

