# Tiled2Unity generated file. Do not modify by hand.
# Wavefront file for 'YtansitionOeste_mesh_0004.obj'

# Vertices (Count = 628)
v -4 -1 0
v -5 -1 0
v -5 0 0
v -4 0 0
v -3 -1 0
v -4 -1 0
v -4 0 0
v -3 0 0
v -2 -1 0
v -3 -1 0
v -3 0 0
v -2 0 0
v -1 -1 0
v -2 -1 0
v -2 0 0
v -1 0 0
v -8 -2 0
v -9 -2 0
v -9 -1 0
v -8 -1 0
v -7 -2 0
v -8 -2 0
v -8 -1 0
v -7 -1 0
v -6 -2 0
v -7 -2 0
v -7 -1 0
v -6 -1 0
v -4 -2 0
v -5 -2 0
v -5 -1 0
v -4 -1 0
v -3 -2 0
v -4 -2 0
v -4 -1 0
v -3 -1 0
v -2 -2 0
v -3 -2 0
v -3 -1 0
v -2 -1 0
v -1 -2 0
v -2 -2 0
v -2 -1 0
v -1 -1 0
v -8 -3 0
v -9 -3 0
v -9 -2 0
v -8 -2 0
v -7 -3 0
v -8 -3 0
v -8 -2 0
v -7 -2 0
v -6 -3 0
v -7 -3 0
v -7 -2 0
v -6 -2 0
v -4 -3 0
v -5 -3 0
v -5 -2 0
v -4 -2 0
v -3 -3 0
v -4 -3 0
v -4 -2 0
v -3 -2 0
v -2 -3 0
v -3 -3 0
v -3 -2 0
v -2 -2 0
v -1 -3 0
v -2 -3 0
v -2 -2 0
v -1 -2 0
v -8 -4 0
v -9 -4 0
v -9 -3 0
v -8 -3 0
v -7 -4 0
v -8 -4 0
v -8 -3 0
v -7 -3 0
v -6 -4 0
v -7 -4 0
v -7 -3 0
v -6 -3 0
v -4 -4 0
v -5 -4 0
v -5 -3 0
v -4 -3 0
v -3 -4 0
v -4 -4 0
v -4 -3 0
v -3 -3 0
v -2 -4 0
v -3 -4 0
v -3 -3 0
v -2 -3 0
v -1 -4 0
v -2 -4 0
v -2 -3 0
v -1 -3 0
v -9 -5 0
v -10 -5 0
v -10 -4 0
v -9 -4 0
v -8 -5 0
v -9 -5 0
v -9 -4 0
v -8 -4 0
v -7 -5 0
v -8 -5 0
v -8 -4 0
v -7 -4 0
v -6 -5 0
v -7 -5 0
v -7 -4 0
v -6 -4 0
v -4 -5 0
v -5 -5 0
v -5 -4 0
v -4 -4 0
v -3 -5 0
v -4 -5 0
v -4 -4 0
v -3 -4 0
v -2 -5 0
v -3 -5 0
v -3 -4 0
v -2 -4 0
v -1 -5 0
v -2 -5 0
v -2 -4 0
v -1 -4 0
v -11 -6 0
v -12 -6 0
v -12 -5 0
v -11 -5 0
v -9 -6 0
v -10 -6 0
v -10 -5 0
v -9 -5 0
v -8 -6 0
v -9 -6 0
v -9 -5 0
v -8 -5 0
v -7 -6 0
v -8 -6 0
v -8 -5 0
v -7 -5 0
v -6 -6 0
v -7 -6 0
v -7 -5 0
v -6 -5 0
v -11 -7 0
v -12 -7 0
v -12 -6 0
v -11 -6 0
v -9 -7 0
v -10 -7 0
v -10 -6 0
v -9 -6 0
v -8 -7 0
v -9 -7 0
v -9 -6 0
v -8 -6 0
v -7 -7 0
v -8 -7 0
v -8 -6 0
v -7 -6 0
v -6 -7 0
v -7 -7 0
v -7 -6 0
v -6 -6 0
v -3 -7 0
v -4 -7 0
v -4 -6 0
v -3 -6 0
v -2 -7 0
v -3 -7 0
v -3 -6 0
v -2 -6 0
v -1 -7 0
v -2 -7 0
v -2 -6 0
v -1 -6 0
v 0 -7 0
v -1 -7 0
v -1 -6 0
v 0 -6 0
v -9 -8 0
v -10 -8 0
v -10 -7 0
v -9 -7 0
v -8 -8 0
v -9 -8 0
v -9 -7 0
v -8 -7 0
v -7 -8 0
v -8 -8 0
v -8 -7 0
v -7 -7 0
v -6 -8 0
v -7 -8 0
v -7 -7 0
v -6 -7 0
v -3 -8 0
v -4 -8 0
v -4 -7 0
v -3 -7 0
v -2 -8 0
v -3 -8 0
v -3 -7 0
v -2 -7 0
v -1 -8 0
v -2 -8 0
v -2 -7 0
v -1 -7 0
v 0 -8 0
v -1 -8 0
v -1 -7 0
v 0 -7 0
v -9 -9 0
v -10 -9 0
v -10 -8 0
v -9 -8 0
v -8 -9 0
v -9 -9 0
v -9 -8 0
v -8 -8 0
v -7 -9 0
v -8 -9 0
v -8 -8 0
v -7 -8 0
v -6 -9 0
v -7 -9 0
v -7 -8 0
v -6 -8 0
v -3 -9 0
v -4 -9 0
v -4 -8 0
v -3 -8 0
v -2 -9 0
v -3 -9 0
v -3 -8 0
v -2 -8 0
v -1 -9 0
v -2 -9 0
v -2 -8 0
v -1 -8 0
v 0 -9 0
v -1 -9 0
v -1 -8 0
v 0 -8 0
v -9 -10 0
v -10 -10 0
v -10 -9 0
v -9 -9 0
v -3 -10 0
v -4 -10 0
v -4 -9 0
v -3 -9 0
v -2 -10 0
v -3 -10 0
v -3 -9 0
v -2 -9 0
v -1 -10 0
v -2 -10 0
v -2 -9 0
v -1 -9 0
v 0 -10 0
v -1 -10 0
v -1 -9 0
v 0 -9 0
v -9 -11 0
v -10 -11 0
v -10 -10 0
v -9 -10 0
v -3 -11 0
v -4 -11 0
v -4 -10 0
v -3 -10 0
v -2 -11 0
v -3 -11 0
v -3 -10 0
v -2 -10 0
v -1 -11 0
v -2 -11 0
v -2 -10 0
v -1 -10 0
v 0 -11 0
v -1 -11 0
v -1 -10 0
v 0 -10 0
v -8 -14 0
v -9 -14 0
v -9 -13 0
v -8 -13 0
v -7 -14 0
v -8 -14 0
v -8 -13 0
v -7 -13 0
v -6 -14 0
v -7 -14 0
v -7 -13 0
v -6 -13 0
v -5 -14 0
v -6 -14 0
v -6 -13 0
v -5 -13 0
v -8 -15 0
v -9 -15 0
v -9 -14 0
v -8 -14 0
v -7 -15 0
v -8 -15 0
v -8 -14 0
v -7 -14 0
v -6 -15 0
v -7 -15 0
v -7 -14 0
v -6 -14 0
v -5 -15 0
v -6 -15 0
v -6 -14 0
v -5 -14 0
v -8 -16 0
v -9 -16 0
v -9 -15 0
v -8 -15 0
v -7 -16 0
v -8 -16 0
v -8 -15 0
v -7 -15 0
v -6 -16 0
v -7 -16 0
v -7 -15 0
v -6 -15 0
v -5 -16 0
v -6 -16 0
v -6 -15 0
v -5 -15 0
v -3 -16 0
v -4 -16 0
v -4 -15 0
v -3 -15 0
v -2 -16 0
v -3 -16 0
v -3 -15 0
v -2 -15 0
v -1 -16 0
v -2 -16 0
v -2 -15 0
v -1 -15 0
v 0 -16 0
v -1 -16 0
v -1 -15 0
v 0 -15 0
v -8 -17 0
v -9 -17 0
v -9 -16 0
v -8 -16 0
v -7 -17 0
v -8 -17 0
v -8 -16 0
v -7 -16 0
v -6 -17 0
v -7 -17 0
v -7 -16 0
v -6 -16 0
v -5 -17 0
v -6 -17 0
v -6 -16 0
v -5 -16 0
v -3 -17 0
v -4 -17 0
v -4 -16 0
v -3 -16 0
v -2 -17 0
v -3 -17 0
v -3 -16 0
v -2 -16 0
v -1 -17 0
v -2 -17 0
v -2 -16 0
v -1 -16 0
v 0 -17 0
v -1 -17 0
v -1 -16 0
v 0 -16 0
v -11 -18 0
v -12 -18 0
v -12 -17 0
v -11 -17 0
v -10 -18 0
v -11 -18 0
v -11 -17 0
v -10 -17 0
v -8 -18 0
v -9 -18 0
v -9 -17 0
v -8 -17 0
v -7 -18 0
v -8 -18 0
v -8 -17 0
v -7 -17 0
v -6 -18 0
v -7 -18 0
v -7 -17 0
v -6 -17 0
v -5 -18 0
v -6 -18 0
v -6 -17 0
v -5 -17 0
v -3 -18 0
v -4 -18 0
v -4 -17 0
v -3 -17 0
v -2 -18 0
v -3 -18 0
v -3 -17 0
v -2 -17 0
v -1 -18 0
v -2 -18 0
v -2 -17 0
v -1 -17 0
v 0 -18 0
v -1 -18 0
v -1 -17 0
v 0 -17 0
v -11 -19 0
v -12 -19 0
v -12 -18 0
v -11 -18 0
v -10 -19 0
v -11 -19 0
v -11 -18 0
v -10 -18 0
v -8 -19 0
v -9 -19 0
v -9 -18 0
v -8 -18 0
v -7 -19 0
v -8 -19 0
v -8 -18 0
v -7 -18 0
v -6 -19 0
v -7 -19 0
v -7 -18 0
v -6 -18 0
v -5 -19 0
v -6 -19 0
v -6 -18 0
v -5 -18 0
v -3 -19 0
v -4 -19 0
v -4 -18 0
v -3 -18 0
v -2 -19 0
v -3 -19 0
v -3 -18 0
v -2 -18 0
v -1 -19 0
v -2 -19 0
v -2 -18 0
v -1 -18 0
v 0 -19 0
v -1 -19 0
v -1 -18 0
v 0 -18 0
v -8 -20 0
v -9 -20 0
v -9 -19 0
v -8 -19 0
v -7 -20 0
v -8 -20 0
v -8 -19 0
v -7 -19 0
v -6 -20 0
v -7 -20 0
v -7 -19 0
v -6 -19 0
v -5 -20 0
v -6 -20 0
v -6 -19 0
v -5 -19 0
v -3 -20 0
v -4 -20 0
v -4 -19 0
v -3 -19 0
v -2 -20 0
v -3 -20 0
v -3 -19 0
v -2 -19 0
v -1 -20 0
v -2 -20 0
v -2 -19 0
v -1 -19 0
v 0 -20 0
v -1 -20 0
v -1 -19 0
v 0 -19 0
v -8 -21 0
v -9 -21 0
v -9 -20 0
v -8 -20 0
v -7 -21 0
v -8 -21 0
v -8 -20 0
v -7 -20 0
v -6 -21 0
v -7 -21 0
v -7 -20 0
v -6 -20 0
v -5 -21 0
v -6 -21 0
v -6 -20 0
v -5 -20 0
v -3 -21 0
v -4 -21 0
v -4 -20 0
v -3 -20 0
v -2 -21 0
v -3 -21 0
v -3 -20 0
v -2 -20 0
v -1 -21 0
v -2 -21 0
v -2 -20 0
v -1 -20 0
v 0 -21 0
v -1 -21 0
v -1 -20 0
v 0 -20 0
v -14 -22 0
v -15 -22 0
v -15 -21 0
v -14 -21 0
v -8 -22 0
v -9 -22 0
v -9 -21 0
v -8 -21 0
v -7 -22 0
v -8 -22 0
v -8 -21 0
v -7 -21 0
v -6 -22 0
v -7 -22 0
v -7 -21 0
v -6 -21 0
v -5 -22 0
v -6 -22 0
v -6 -21 0
v -5 -21 0
v -3 -22 0
v -4 -22 0
v -4 -21 0
v -3 -21 0
v -2 -22 0
v -3 -22 0
v -3 -21 0
v -2 -21 0
v -1 -22 0
v -2 -22 0
v -2 -21 0
v -1 -21 0
v 0 -22 0
v -1 -22 0
v -1 -21 0
v 0 -21 0
v -14 -23 0
v -15 -23 0
v -15 -22 0
v -14 -22 0
v -8 -23 0
v -9 -23 0
v -9 -22 0
v -8 -22 0
v -7 -23 0
v -8 -23 0
v -8 -22 0
v -7 -22 0
v -6 -23 0
v -7 -23 0
v -7 -22 0
v -6 -22 0
v -5 -23 0
v -6 -23 0
v -6 -22 0
v -5 -22 0
v -3 -23 0
v -4 -23 0
v -4 -22 0
v -3 -22 0
v -2 -23 0
v -3 -23 0
v -3 -22 0
v -2 -22 0
v -1 -23 0
v -2 -23 0
v -2 -22 0
v -1 -22 0
v 0 -23 0
v -1 -23 0
v -1 -22 0
v 0 -22 0
v -7 -24 0
v -8 -24 0
v -8 -23 0
v -7 -23 0
v -6 -24 0
v -7 -24 0
v -7 -23 0
v -6 -23 0
v -5 -24 0
v -6 -24 0
v -6 -23 0
v -5 -23 0
v -3 -24 0
v -4 -24 0
v -4 -23 0
v -3 -23 0
v -2 -24 0
v -3 -24 0
v -3 -23 0
v -2 -23 0
v -1 -24 0
v -2 -24 0
v -2 -23 0
v -1 -23 0

# Texture cooridinates (Count = 76)
vt 0.5 0.8666667
vt 0.5416667 0.8666667
vt 0.5416667 0.9333333
vt 0.5 0.9333333
vt 0.4583333 0.8666667
vt 0.4583333 0.9333333
vt 0.4166667 0.8666667
vt 0.4166667 0.9333333
vt 0.375 0.8666667
vt 0.375 0.9333333
vt 0.625 0.4
vt 0.6666667 0.4
vt 0.6666667 0.4666666
vt 0.625 0.4666666
vt 0.5833333 0.4
vt 0.5833333 0.4666666
vt 0.5416667 0.4
vt 0.5416667 0.4666666
vt 0.5 0.8
vt 0.5416667 0.8
vt 0.4583333 0.8
vt 0.4166667 0.8
vt 0.375 0.8
vt 0.625 0.3333333
vt 0.6666667 0.3333333
vt 0.5833333 0.3333333
vt 0.5416667 0.3333333
vt 0.5 0.7333333
vt 0.5416667 0.7333333
vt 0.4583333 0.7333333
vt 0.4166667 0.7333333
vt 0.375 0.7333333
vt 0.625 0.2666667
vt 0.6666667 0.2666667
vt 0.5833333 0.2666667
vt 0.5416667 0.2666667
vt 0.5 0.6666666
vt 0.5416667 0.6666666
vt 0.4583333 0.6666666
vt 0.4166667 0.6666666
vt 0.375 0.6666666
vt 0.5 0.6
vt 0.5416667 0.6
vt 0.4583333 0.6
vt 0.4166667 0.6
vt 0.375 0.6
vt 0.375 0.3333333
vt 0.4166667 0.3333333
vt 0.4166667 0.4
vt 0.375 0.4
vt 0.375 0.2666667
vt 0.4166667 0.2666667
vt 0.125 0.6
vt 0.1666667 0.6
vt 0.1666667 0.6666666
vt 0.125 0.6666666
vt 0.4166667 0.1333333
vt 0.4583333 0.1333333
vt 0.4583333 0.2
vt 0.4166667 0.2
vt 0.4166667 0.06666666
vt 0.4583333 0.06666666
vt 0.5 0.3333333
vt 0.5 0.4
vt 0.4583333 0.3333333
vt 0.4583333 0.4
vt 0.5 0.2666667
vt 0.4583333 0.2666667
vt 0.625 0.1333333
vt 0.6666667 0.1333333
vt 0.6666667 0.2
vt 0.625 0.2
vt 0.5833333 0.1333333
vt 0.5833333 0.2
vt 0.5416667 0.1333333
vt 0.5416667 0.2

# Normal
vn 0 0 -1

# Mesh description
g YtansitionOeste_mesh_0004

# Faces
f 1/1/1 2/2/1 3/3/1 4/4/1
f 5/5/1 6/1/1 7/4/1 8/6/1
f 9/7/1 10/5/1 11/6/1 12/8/1
f 13/9/1 14/7/1 15/8/1 16/10/1
f 17/11/1 18/12/1 19/13/1 20/14/1
f 21/15/1 22/11/1 23/14/1 24/16/1
f 25/17/1 26/15/1 27/16/1 28/18/1
f 29/19/1 30/20/1 31/2/1 32/1/1
f 33/21/1 34/19/1 35/1/1 36/5/1
f 37/22/1 38/21/1 39/5/1 40/7/1
f 41/23/1 42/22/1 43/7/1 44/9/1
f 45/24/1 46/25/1 47/12/1 48/11/1
f 49/26/1 50/24/1 51/11/1 52/15/1
f 53/27/1 54/26/1 55/15/1 56/17/1
f 57/28/1 58/29/1 59/20/1 60/19/1
f 61/30/1 62/28/1 63/19/1 64/21/1
f 65/31/1 66/30/1 67/21/1 68/22/1
f 69/32/1 70/31/1 71/22/1 72/23/1
f 73/33/1 74/34/1 75/25/1 76/24/1
f 77/35/1 78/33/1 79/24/1 80/26/1
f 81/36/1 82/35/1 83/26/1 84/27/1
f 85/37/1 86/38/1 87/29/1 88/28/1
f 89/39/1 90/37/1 91/28/1 92/30/1
f 93/40/1 94/39/1 95/30/1 96/31/1
f 97/41/1 98/40/1 99/31/1 100/32/1
f 101/1/1 102/2/1 103/3/1 104/4/1
f 105/5/1 106/1/1 107/4/1 108/6/1
f 109/7/1 110/5/1 111/6/1 112/8/1
f 113/9/1 114/7/1 115/8/1 116/10/1
f 117/42/1 118/43/1 119/38/1 120/37/1
f 121/44/1 122/42/1 123/37/1 124/39/1
f 125/45/1 126/44/1 127/39/1 128/40/1
f 129/46/1 130/45/1 131/40/1 132/41/1
f 133/47/1 134/48/1 135/49/1 136/50/1
f 137/19/1 138/20/1 139/2/1 140/1/1
f 141/21/1 142/19/1 143/1/1 144/5/1
f 145/22/1 146/21/1 147/5/1 148/7/1
f 149/23/1 150/22/1 151/7/1 152/9/1
f 153/51/1 154/52/1 155/48/1 156/47/1
f 157/28/1 158/29/1 159/20/1 160/19/1
f 161/30/1 162/28/1 163/19/1 164/21/1
f 165/31/1 166/30/1 167/21/1 168/22/1
f 169/32/1 170/31/1 171/22/1 172/23/1
f 173/1/1 174/2/1 175/3/1 176/4/1
f 177/5/1 178/1/1 179/4/1 180/6/1
f 181/7/1 182/5/1 183/6/1 184/8/1
f 185/9/1 186/7/1 187/8/1 188/10/1
f 189/37/1 190/38/1 191/29/1 192/28/1
f 193/39/1 194/37/1 195/28/1 196/30/1
f 197/40/1 198/39/1 199/30/1 200/31/1
f 201/41/1 202/40/1 203/31/1 204/32/1
f 205/19/1 206/20/1 207/2/1 208/1/1
f 209/21/1 210/19/1 211/1/1 212/5/1
f 213/22/1 214/21/1 215/5/1 216/7/1
f 217/23/1 218/22/1 219/7/1 220/9/1
f 221/42/1 222/43/1 223/38/1 224/37/1
f 225/44/1 226/42/1 227/37/1 228/39/1
f 229/45/1 230/44/1 231/39/1 232/40/1
f 233/53/1 234/54/1 235/55/1 236/56/1
f 237/28/1 238/29/1 239/20/1 240/19/1
f 241/30/1 242/28/1 243/19/1 244/21/1
f 245/31/1 246/30/1 247/21/1 248/22/1
f 249/32/1 250/31/1 251/22/1 252/23/1
f 253/57/1 254/58/1 255/59/1 256/60/1
f 257/37/1 258/38/1 259/29/1 260/28/1
f 261/39/1 262/37/1 263/28/1 264/30/1
f 265/40/1 266/39/1 267/30/1 268/31/1
f 269/41/1 270/40/1 271/31/1 272/32/1
f 273/61/1 274/62/1 275/58/1 276/57/1
f 277/42/1 278/43/1 279/38/1 280/37/1
f 281/44/1 282/42/1 283/37/1 284/39/1
f 285/45/1 286/44/1 287/39/1 288/40/1
f 289/46/1 290/45/1 291/40/1 292/41/1
f 293/1/1 294/2/1 295/3/1 296/4/1
f 297/5/1 298/1/1 299/4/1 300/6/1
f 301/7/1 302/5/1 303/6/1 304/8/1
f 305/9/1 306/7/1 307/8/1 308/10/1
f 309/19/1 310/20/1 311/2/1 312/1/1
f 313/21/1 314/19/1 315/1/1 316/5/1
f 317/22/1 318/21/1 319/5/1 320/7/1
f 321/23/1 322/22/1 323/7/1 324/9/1
f 325/28/1 326/29/1 327/20/1 328/19/1
f 329/30/1 330/28/1 331/19/1 332/21/1
f 333/31/1 334/30/1 335/21/1 336/22/1
f 337/32/1 338/31/1 339/22/1 340/23/1
f 341/1/1 342/2/1 343/3/1 344/4/1
f 345/5/1 346/1/1 347/4/1 348/6/1
f 349/7/1 350/5/1 351/6/1 352/8/1
f 353/9/1 354/7/1 355/8/1 356/10/1
f 357/37/1 358/38/1 359/29/1 360/28/1
f 361/39/1 362/37/1 363/28/1 364/30/1
f 365/40/1 366/39/1 367/30/1 368/31/1
f 369/41/1 370/40/1 371/31/1 372/32/1
f 373/19/1 374/20/1 375/2/1 376/1/1
f 377/21/1 378/19/1 379/1/1 380/5/1
f 381/22/1 382/21/1 383/5/1 384/7/1
f 385/23/1 386/22/1 387/7/1 388/9/1
f 389/63/1 390/27/1 391/17/1 392/64/1
f 393/65/1 394/63/1 395/64/1 396/66/1
f 397/42/1 398/43/1 399/38/1 400/37/1
f 401/44/1 402/42/1 403/37/1 404/39/1
f 405/45/1 406/44/1 407/39/1 408/40/1
f 409/46/1 410/45/1 411/40/1 412/41/1
f 413/28/1 414/29/1 415/20/1 416/19/1
f 417/30/1 418/28/1 419/19/1 420/21/1
f 421/31/1 422/30/1 423/21/1 424/22/1
f 425/32/1 426/31/1 427/22/1 428/23/1
f 429/67/1 430/36/1 431/27/1 432/63/1
f 433/68/1 434/67/1 435/63/1 436/65/1
f 437/1/1 438/2/1 439/3/1 440/4/1
f 441/5/1 442/1/1 443/4/1 444/6/1
f 445/7/1 446/5/1 447/6/1 448/8/1
f 449/9/1 450/7/1 451/8/1 452/10/1
f 453/37/1 454/38/1 455/29/1 456/28/1
f 457/39/1 458/37/1 459/28/1 460/30/1
f 461/40/1 462/39/1 463/30/1 464/31/1
f 465/41/1 466/40/1 467/31/1 468/32/1
f 469/19/1 470/20/1 471/2/1 472/1/1
f 473/21/1 474/19/1 475/1/1 476/5/1
f 477/22/1 478/21/1 479/5/1 480/7/1
f 481/23/1 482/22/1 483/7/1 484/9/1
f 485/42/1 486/43/1 487/38/1 488/37/1
f 489/44/1 490/42/1 491/37/1 492/39/1
f 493/45/1 494/44/1 495/39/1 496/40/1
f 497/46/1 498/45/1 499/40/1 500/41/1
f 501/28/1 502/29/1 503/20/1 504/19/1
f 505/30/1 506/28/1 507/19/1 508/21/1
f 509/31/1 510/30/1 511/21/1 512/22/1
f 513/32/1 514/31/1 515/22/1 516/23/1
f 517/1/1 518/2/1 519/3/1 520/4/1
f 521/5/1 522/1/1 523/4/1 524/6/1
f 525/7/1 526/5/1 527/6/1 528/8/1
f 529/9/1 530/7/1 531/8/1 532/10/1
f 533/47/1 534/48/1 535/49/1 536/50/1
f 537/37/1 538/38/1 539/29/1 540/28/1
f 541/39/1 542/37/1 543/28/1 544/30/1
f 545/40/1 546/39/1 547/30/1 548/31/1
f 549/41/1 550/40/1 551/31/1 552/32/1
f 553/19/1 554/20/1 555/2/1 556/1/1
f 557/21/1 558/19/1 559/1/1 560/5/1
f 561/22/1 562/21/1 563/5/1 564/7/1
f 565/23/1 566/22/1 567/7/1 568/9/1
f 569/51/1 570/52/1 571/48/1 572/47/1
f 573/42/1 574/43/1 575/38/1 576/37/1
f 577/44/1 578/42/1 579/37/1 580/39/1
f 581/45/1 582/44/1 583/39/1 584/40/1
f 585/46/1 586/45/1 587/40/1 588/41/1
f 589/28/1 590/29/1 591/20/1 592/19/1
f 593/30/1 594/28/1 595/19/1 596/21/1
f 597/31/1 598/30/1 599/21/1 600/22/1
f 601/32/1 602/31/1 603/22/1 604/23/1
f 605/69/1 606/70/1 607/71/1 608/72/1
f 609/73/1 610/69/1 611/72/1 612/74/1
f 613/75/1 614/73/1 615/74/1 616/76/1
f 617/37/1 618/38/1 619/29/1 620/28/1
f 621/39/1 622/37/1 623/28/1 624/30/1
f 625/40/1 626/39/1 627/30/1 628/31/1

