# Tiled2Unity generated file. Do not modify by hand.
# Wavefront file for 'Vila_oeste_mesh_0003.obj'

# Vertices (Count = 380)
v -24 -1 0
v -25 -1 0
v -25 0 0
v -24 0 0
v -23 -1 0
v -24 -1 0
v -24 0 0
v -23 0 0
v -22 -1 0
v -23 -1 0
v -23 0 0
v -22 0 0
v -21 -1 0
v -22 -1 0
v -22 0 0
v -21 0 0
v -20 -1 0
v -21 -1 0
v -21 0 0
v -20 0 0
v -19 -1 0
v -20 -1 0
v -20 0 0
v -19 0 0
v -18 -1 0
v -19 -1 0
v -19 0 0
v -18 0 0
v -17 -1 0
v -18 -1 0
v -18 0 0
v -17 0 0
v -16 -1 0
v -17 -1 0
v -17 0 0
v -16 0 0
v -15 -1 0
v -16 -1 0
v -16 0 0
v -15 0 0
v -14 -1 0
v -15 -1 0
v -15 0 0
v -14 0 0
v -13 -1 0
v -14 -1 0
v -14 0 0
v -13 0 0
v -12 -1 0
v -13 -1 0
v -13 0 0
v -12 0 0
v -11 -1 0
v -12 -1 0
v -12 0 0
v -11 0 0
v -10 -1 0
v -11 -1 0
v -11 0 0
v -10 0 0
v -9 -1 0
v -10 -1 0
v -10 0 0
v -9 0 0
v -8 -1 0
v -9 -1 0
v -9 0 0
v -8 0 0
v -7 -1 0
v -8 -1 0
v -8 0 0
v -7 0 0
v -6 -1 0
v -7 -1 0
v -7 0 0
v -6 0 0
v -5 -1 0
v -6 -1 0
v -6 0 0
v -5 0 0
v -4 -1 0
v -5 -1 0
v -5 0 0
v -4 0 0
v -3 -1 0
v -4 -1 0
v -4 0 0
v -3 0 0
v -2 -1 0
v -3 -1 0
v -3 0 0
v -2 0 0
v -1 -1 0
v -2 -1 0
v -2 0 0
v -1 0 0
v 0 -1 0
v -1 -1 0
v -1 0 0
v 0 0 0
v -24 -2 0
v -25 -2 0
v -25 -1 0
v -24 -1 0
v -23 -2 0
v -24 -2 0
v -24 -1 0
v -23 -1 0
v -22 -2 0
v -23 -2 0
v -23 -1 0
v -22 -1 0
v -21 -2 0
v -22 -2 0
v -22 -1 0
v -21 -1 0
v -20 -2 0
v -21 -2 0
v -21 -1 0
v -20 -1 0
v -19 -2 0
v -20 -2 0
v -20 -1 0
v -19 -1 0
v -18 -2 0
v -19 -2 0
v -19 -1 0
v -18 -1 0
v -17 -2 0
v -18 -2 0
v -18 -1 0
v -17 -1 0
v -16 -2 0
v -17 -2 0
v -17 -1 0
v -16 -1 0
v -15 -2 0
v -16 -2 0
v -16 -1 0
v -15 -1 0
v -14 -2 0
v -15 -2 0
v -15 -1 0
v -14 -1 0
v -13 -2 0
v -14 -2 0
v -14 -1 0
v -13 -1 0
v -12 -2 0
v -13 -2 0
v -13 -1 0
v -12 -1 0
v -11 -2 0
v -12 -2 0
v -12 -1 0
v -11 -1 0
v -10 -2 0
v -11 -2 0
v -11 -1 0
v -10 -1 0
v -9 -2 0
v -10 -2 0
v -10 -1 0
v -9 -1 0
v -8 -2 0
v -9 -2 0
v -9 -1 0
v -8 -1 0
v -7 -2 0
v -8 -2 0
v -8 -1 0
v -7 -1 0
v -6 -2 0
v -7 -2 0
v -7 -1 0
v -6 -1 0
v -5 -2 0
v -6 -2 0
v -6 -1 0
v -5 -1 0
v -4 -2 0
v -5 -2 0
v -5 -1 0
v -4 -1 0
v -3 -2 0
v -4 -2 0
v -4 -1 0
v -3 -1 0
v -2 -2 0
v -3 -2 0
v -3 -1 0
v -2 -1 0
v -1 -2 0
v -2 -2 0
v -2 -1 0
v -1 -1 0
v 0 -2 0
v -1 -2 0
v -1 -1 0
v 0 -1 0
v -24 -3 0
v -25 -3 0
v -25 -2 0
v -24 -2 0
v -23 -3 0
v -24 -3 0
v -24 -2 0
v -23 -2 0
v -22 -3 0
v -23 -3 0
v -23 -2 0
v -22 -2 0
v -21 -3 0
v -22 -3 0
v -22 -2 0
v -21 -2 0
v -20 -3 0
v -21 -3 0
v -21 -2 0
v -20 -2 0
v -19 -3 0
v -20 -3 0
v -20 -2 0
v -19 -2 0
v -18 -3 0
v -19 -3 0
v -19 -2 0
v -18 -2 0
v -17 -3 0
v -18 -3 0
v -18 -2 0
v -17 -2 0
v -16 -3 0
v -17 -3 0
v -17 -2 0
v -16 -2 0
v -15 -3 0
v -16 -3 0
v -16 -2 0
v -15 -2 0
v -14 -3 0
v -15 -3 0
v -15 -2 0
v -14 -2 0
v -13 -3 0
v -14 -3 0
v -14 -2 0
v -13 -2 0
v -12 -3 0
v -13 -3 0
v -13 -2 0
v -12 -2 0
v -11 -3 0
v -12 -3 0
v -12 -2 0
v -11 -2 0
v -10 -3 0
v -11 -3 0
v -11 -2 0
v -10 -2 0
v -9 -3 0
v -10 -3 0
v -10 -2 0
v -9 -2 0
v -8 -3 0
v -9 -3 0
v -9 -2 0
v -8 -2 0
v -7 -3 0
v -8 -3 0
v -8 -2 0
v -7 -2 0
v -6 -3 0
v -7 -3 0
v -7 -2 0
v -6 -2 0
v -5 -3 0
v -6 -3 0
v -6 -2 0
v -5 -2 0
v -4 -3 0
v -5 -3 0
v -5 -2 0
v -4 -2 0
v -3 -3 0
v -4 -3 0
v -4 -2 0
v -3 -2 0
v -2 -3 0
v -3 -3 0
v -3 -2 0
v -2 -2 0
v -1 -3 0
v -2 -3 0
v -2 -2 0
v -1 -2 0
v 0 -3 0
v -1 -3 0
v -1 -2 0
v 0 -2 0
v -18 -5 0
v -19 -5 0
v -19 -4 0
v -18 -4 0
v -14 -9 0
v -15 -9 0
v -15 -8 0
v -14 -8 0
v -16 -13 0
v -17 -13 0
v -17 -12 0
v -16 -12 0
v -15 -13 0
v -16 -13 0
v -16 -12 0
v -15 -12 0
v -14 -13 0
v -15 -13 0
v -15 -12 0
v -14 -12 0
v -13 -13 0
v -14 -13 0
v -14 -12 0
v -13 -12 0
v -16 -14 0
v -17 -14 0
v -17 -13 0
v -16 -13 0
v -15 -14 0
v -16 -14 0
v -16 -13 0
v -15 -13 0
v -14 -14 0
v -15 -14 0
v -15 -13 0
v -14 -13 0
v -13 -14 0
v -14 -14 0
v -14 -13 0
v -13 -13 0
v -16 -18 0
v -17 -18 0
v -17 -17 0
v -16 -17 0
v -15 -18 0
v -16 -18 0
v -16 -17 0
v -15 -17 0
v -14 -18 0
v -15 -18 0
v -15 -17 0
v -14 -17 0
v -13 -18 0
v -14 -18 0
v -14 -17 0
v -13 -17 0
v -16 -19 0
v -17 -19 0
v -17 -18 0
v -16 -18 0
v -15 -19 0
v -16 -19 0
v -16 -18 0
v -15 -18 0
v -14 -19 0
v -15 -19 0
v -15 -18 0
v -14 -18 0
v -13 -19 0
v -14 -19 0
v -14 -18 0
v -13 -18 0
v -3 -20 0
v -4 -20 0
v -4 -19 0
v -3 -19 0
v -11 -24 0
v -12 -24 0
v -12 -23 0
v -11 -23 0

# Texture cooridinates (Count = 43)
vt 0.1764706 0.9375
vt 0.2058824 0.9375
vt 0.2058824 0.96875
vt 0.1764706 0.96875
vt 0.2352941 0.8125
vt 0.2647059 0.8125
vt 0.2647059 0.84375
vt 0.2352941 0.84375
vt 0.2058824 0.8125
vt 0.2058824 0.84375
vt 0.1764706 0.8125
vt 0.1764706 0.84375
vt 0.1764706 0.90625
vt 0.2058824 0.90625
vt 0.2352941 0.78125
vt 0.2647059 0.78125
vt 0.2058824 0.78125
vt 0.1764706 0.78125
vt 0.1764706 0.875
vt 0.2058824 0.875
vt 0.2352941 0.75
vt 0.2647059 0.75
vt 0.2058824 0.75
vt 0.1764706 0.75
vt 0.3529412 0.65625
vt 0.3823529 0.65625
vt 0.3823529 0.6875
vt 0.3529412 0.6875
vt 0.9411765 0.5625
vt 0.9705882 0.5625
vt 0.9705882 0.59375
vt 0.9411765 0.59375
vt 0.9117647 0.5625
vt 0.9117647 0.59375
vt 0.8823529 0.5625
vt 0.8823529 0.59375
vt 0.8529412 0.5625
vt 0.8529412 0.59375
vt 0.9411765 0.53125
vt 0.9705882 0.53125
vt 0.9117647 0.53125
vt 0.8823529 0.53125
vt 0.8529412 0.53125

# Normal
vn 0 0 -1

# Mesh description
g Vila_oeste_mesh_0003

# Faces
f 1/1/1 2/2/1 3/3/1 4/4/1
f 5/1/1 6/2/1 7/3/1 8/4/1
f 9/1/1 10/2/1 11/3/1 12/4/1
f 13/1/1 14/2/1 15/3/1 16/4/1
f 17/1/1 18/2/1 19/3/1 20/4/1
f 21/1/1 22/2/1 23/3/1 24/4/1
f 25/1/1 26/2/1 27/3/1 28/4/1
f 29/1/1 30/2/1 31/3/1 32/4/1
f 33/5/1 34/6/1 35/7/1 36/8/1
f 37/9/1 38/5/1 39/8/1 40/10/1
f 41/11/1 42/9/1 43/10/1 44/12/1
f 45/1/1 46/2/1 47/3/1 48/4/1
f 49/1/1 50/2/1 51/3/1 52/4/1
f 53/1/1 54/2/1 55/3/1 56/4/1
f 57/1/1 58/2/1 59/3/1 60/4/1
f 61/1/1 62/2/1 63/3/1 64/4/1
f 65/1/1 66/2/1 67/3/1 68/4/1
f 69/1/1 70/2/1 71/3/1 72/4/1
f 73/1/1 74/2/1 75/3/1 76/4/1
f 77/1/1 78/2/1 79/3/1 80/4/1
f 81/1/1 82/2/1 83/3/1 84/4/1
f 85/1/1 86/2/1 87/3/1 88/4/1
f 89/1/1 90/2/1 91/3/1 92/4/1
f 93/1/1 94/2/1 95/3/1 96/4/1
f 97/1/1 98/2/1 99/3/1 100/4/1
f 101/13/1 102/14/1 103/2/1 104/1/1
f 105/13/1 106/14/1 107/2/1 108/1/1
f 109/13/1 110/14/1 111/2/1 112/1/1
f 113/13/1 114/14/1 115/2/1 116/1/1
f 117/13/1 118/14/1 119/2/1 120/1/1
f 121/13/1 122/14/1 123/2/1 124/1/1
f 125/13/1 126/14/1 127/2/1 128/1/1
f 129/13/1 130/14/1 131/2/1 132/1/1
f 133/15/1 134/16/1 135/6/1 136/5/1
f 137/17/1 138/15/1 139/5/1 140/9/1
f 141/18/1 142/17/1 143/9/1 144/11/1
f 145/13/1 146/14/1 147/2/1 148/1/1
f 149/13/1 150/14/1 151/2/1 152/1/1
f 153/13/1 154/14/1 155/2/1 156/1/1
f 157/13/1 158/14/1 159/2/1 160/1/1
f 161/13/1 162/14/1 163/2/1 164/1/1
f 165/13/1 166/14/1 167/2/1 168/1/1
f 169/13/1 170/14/1 171/2/1 172/1/1
f 173/13/1 174/14/1 175/2/1 176/1/1
f 177/13/1 178/14/1 179/2/1 180/1/1
f 181/13/1 182/14/1 183/2/1 184/1/1
f 185/13/1 186/14/1 187/2/1 188/1/1
f 189/13/1 190/14/1 191/2/1 192/1/1
f 193/13/1 194/14/1 195/2/1 196/1/1
f 197/13/1 198/14/1 199/2/1 200/1/1
f 201/19/1 202/20/1 203/14/1 204/13/1
f 205/19/1 206/20/1 207/14/1 208/13/1
f 209/19/1 210/20/1 211/14/1 212/13/1
f 213/19/1 214/20/1 215/14/1 216/13/1
f 217/19/1 218/20/1 219/14/1 220/13/1
f 221/19/1 222/20/1 223/14/1 224/13/1
f 225/19/1 226/20/1 227/14/1 228/13/1
f 229/19/1 230/20/1 231/14/1 232/13/1
f 233/21/1 234/22/1 235/16/1 236/15/1
f 237/23/1 238/21/1 239/15/1 240/17/1
f 241/24/1 242/23/1 243/17/1 244/18/1
f 245/19/1 246/20/1 247/14/1 248/13/1
f 249/19/1 250/20/1 251/14/1 252/13/1
f 253/19/1 254/20/1 255/14/1 256/13/1
f 257/19/1 258/20/1 259/14/1 260/13/1
f 261/19/1 262/20/1 263/14/1 264/13/1
f 265/19/1 266/20/1 267/14/1 268/13/1
f 269/19/1 270/20/1 271/14/1 272/13/1
f 273/19/1 274/20/1 275/14/1 276/13/1
f 277/19/1 278/20/1 279/14/1 280/13/1
f 281/19/1 282/20/1 283/14/1 284/13/1
f 285/19/1 286/20/1 287/14/1 288/13/1
f 289/19/1 290/20/1 291/14/1 292/13/1
f 293/19/1 294/20/1 295/14/1 296/13/1
f 297/19/1 298/20/1 299/14/1 300/13/1
f 301/25/1 302/26/1 303/27/1 304/28/1
f 305/25/1 306/26/1 307/27/1 308/28/1
f 309/29/1 310/30/1 311/31/1 312/32/1
f 313/33/1 314/29/1 315/32/1 316/34/1
f 317/35/1 318/33/1 319/34/1 320/36/1
f 321/37/1 322/35/1 323/36/1 324/38/1
f 325/39/1 326/40/1 327/30/1 328/29/1
f 329/41/1 330/39/1 331/29/1 332/33/1
f 333/42/1 334/41/1 335/33/1 336/35/1
f 337/43/1 338/42/1 339/35/1 340/37/1
f 341/29/1 342/30/1 343/31/1 344/32/1
f 345/33/1 346/29/1 347/32/1 348/34/1
f 349/35/1 350/33/1 351/34/1 352/36/1
f 353/37/1 354/35/1 355/36/1 356/38/1
f 357/39/1 358/40/1 359/30/1 360/29/1
f 361/41/1 362/39/1 363/29/1 364/33/1
f 365/42/1 366/41/1 367/33/1 368/35/1
f 369/43/1 370/42/1 371/35/1 372/37/1
f 373/25/1 374/26/1 375/27/1 376/28/1
f 377/25/1 378/26/1 379/27/1 380/28/1

