# Tiled2Unity generated file. Do not modify by hand.
# Wavefront file for 'Vila_oeste_mesh_0006.obj'

# Vertices (Count = 504)
v -24 -1 0
v -25 -1 0
v -25 0 0
v -24 0 0
v -23 -1 0
v -24 -1 0
v -24 0 0
v -23 0 0
v -22 -1 0
v -23 -1 0
v -23 0 0
v -22 0 0
v -21 -1 0
v -22 -1 0
v -22 0 0
v -21 0 0
v -20 -1 0
v -21 -1 0
v -21 0 0
v -20 0 0
v -19 -1 0
v -20 -1 0
v -20 0 0
v -19 0 0
v -24 -2 0
v -25 -2 0
v -25 -1 0
v -24 -1 0
v -23 -2 0
v -24 -2 0
v -24 -1 0
v -23 -1 0
v -22 -2 0
v -23 -2 0
v -23 -1 0
v -22 -1 0
v -21 -2 0
v -22 -2 0
v -22 -1 0
v -21 -1 0
v -20 -2 0
v -21 -2 0
v -21 -1 0
v -20 -1 0
v -19 -2 0
v -20 -2 0
v -20 -1 0
v -19 -1 0
v -24 -3 0
v -25 -3 0
v -25 -2 0
v -24 -2 0
v -23 -3 0
v -24 -3 0
v -24 -2 0
v -23 -2 0
v -22 -3 0
v -23 -3 0
v -23 -2 0
v -22 -2 0
v -21 -3 0
v -22 -3 0
v -22 -2 0
v -21 -2 0
v -20 -3 0
v -21 -3 0
v -21 -2 0
v -20 -2 0
v -19 -3 0
v -20 -3 0
v -20 -2 0
v -19 -2 0
v -24 -4 0
v -25 -4 0
v -25 -3 0
v -24 -3 0
v -23 -4 0
v -24 -4 0
v -24 -3 0
v -23 -3 0
v -22 -4 0
v -23 -4 0
v -23 -3 0
v -22 -3 0
v -21 -4 0
v -22 -4 0
v -22 -3 0
v -21 -3 0
v -20 -4 0
v -21 -4 0
v -21 -3 0
v -20 -3 0
v -19 -4 0
v -20 -4 0
v -20 -3 0
v -19 -3 0
v -24 -5 0
v -25 -5 0
v -25 -4 0
v -24 -4 0
v -23 -5 0
v -24 -5 0
v -24 -4 0
v -23 -4 0
v -22 -5 0
v -23 -5 0
v -23 -4 0
v -22 -4 0
v -21 -5 0
v -22 -5 0
v -22 -4 0
v -21 -4 0
v -20 -5 0
v -21 -5 0
v -21 -4 0
v -20 -4 0
v -19 -5 0
v -20 -5 0
v -20 -4 0
v -19 -4 0
v -24 -6 0
v -25 -6 0
v -25 -5 0
v -24 -5 0
v -23 -6 0
v -24 -6 0
v -24 -5 0
v -23 -5 0
v -22 -6 0
v -23 -6 0
v -23 -5 0
v -22 -5 0
v -21 -6 0
v -22 -6 0
v -22 -5 0
v -21 -5 0
v -20 -6 0
v -21 -6 0
v -21 -5 0
v -20 -5 0
v -19 -6 0
v -20 -6 0
v -20 -5 0
v -19 -5 0
v -24 -7 0
v -25 -7 0
v -25 -6 0
v -24 -6 0
v -23 -7 0
v -24 -7 0
v -24 -6 0
v -23 -6 0
v -22 -7 0
v -23 -7 0
v -23 -6 0
v -22 -6 0
v -21 -7 0
v -22 -7 0
v -22 -6 0
v -21 -6 0
v -20 -7 0
v -21 -7 0
v -21 -6 0
v -20 -6 0
v -19 -7 0
v -20 -7 0
v -20 -6 0
v -19 -6 0
v -5 -11 0
v -6 -11 0
v -6 -10 0
v -5 -10 0
v -4 -11 0
v -5 -11 0
v -5 -10 0
v -4 -10 0
v -3 -11 0
v -4 -11 0
v -4 -10 0
v -3 -10 0
v -2 -11 0
v -3 -11 0
v -3 -10 0
v -2 -10 0
v -1 -11 0
v -2 -11 0
v -2 -10 0
v -1 -10 0
v 0 -11 0
v -1 -11 0
v -1 -10 0
v 0 -10 0
v -5 -12 0
v -6 -12 0
v -6 -11 0
v -5 -11 0
v -4 -12 0
v -5 -12 0
v -5 -11 0
v -4 -11 0
v -3 -12 0
v -4 -12 0
v -4 -11 0
v -3 -11 0
v -2 -12 0
v -3 -12 0
v -3 -11 0
v -2 -11 0
v -1 -12 0
v -2 -12 0
v -2 -11 0
v -1 -11 0
v 0 -12 0
v -1 -12 0
v -1 -11 0
v 0 -11 0
v -5 -13 0
v -6 -13 0
v -6 -12 0
v -5 -12 0
v -4 -13 0
v -5 -13 0
v -5 -12 0
v -4 -12 0
v -3 -13 0
v -4 -13 0
v -4 -12 0
v -3 -12 0
v -2 -13 0
v -3 -13 0
v -3 -12 0
v -2 -12 0
v -1 -13 0
v -2 -13 0
v -2 -12 0
v -1 -12 0
v 0 -13 0
v -1 -13 0
v -1 -12 0
v 0 -12 0
v -5 -14 0
v -6 -14 0
v -6 -13 0
v -5 -13 0
v -4 -14 0
v -5 -14 0
v -5 -13 0
v -4 -13 0
v -3 -14 0
v -4 -14 0
v -4 -13 0
v -3 -13 0
v -2 -14 0
v -3 -14 0
v -3 -13 0
v -2 -13 0
v -1 -14 0
v -2 -14 0
v -2 -13 0
v -1 -13 0
v 0 -14 0
v -1 -14 0
v -1 -13 0
v 0 -13 0
v -5 -15 0
v -6 -15 0
v -6 -14 0
v -5 -14 0
v -4 -15 0
v -5 -15 0
v -5 -14 0
v -4 -14 0
v -3 -15 0
v -4 -15 0
v -4 -14 0
v -3 -14 0
v -2 -15 0
v -3 -15 0
v -3 -14 0
v -2 -14 0
v -1 -15 0
v -2 -15 0
v -2 -14 0
v -1 -14 0
v 0 -15 0
v -1 -15 0
v -1 -14 0
v 0 -14 0
v -5 -16 0
v -6 -16 0
v -6 -15 0
v -5 -15 0
v -4 -16 0
v -5 -16 0
v -5 -15 0
v -4 -15 0
v -3 -16 0
v -4 -16 0
v -4 -15 0
v -3 -15 0
v -2 -16 0
v -3 -16 0
v -3 -15 0
v -2 -15 0
v -1 -16 0
v -2 -16 0
v -2 -15 0
v -1 -15 0
v 0 -16 0
v -1 -16 0
v -1 -15 0
v 0 -15 0
v -23 -17 0
v -24 -17 0
v -24 -16 0
v -23 -16 0
v -22 -17 0
v -23 -17 0
v -23 -16 0
v -22 -16 0
v -21 -17 0
v -22 -17 0
v -22 -16 0
v -21 -16 0
v -20 -17 0
v -21 -17 0
v -21 -16 0
v -20 -16 0
v -19 -17 0
v -20 -17 0
v -20 -16 0
v -19 -16 0
v -18 -17 0
v -19 -17 0
v -19 -16 0
v -18 -16 0
v -5 -17 0
v -6 -17 0
v -6 -16 0
v -5 -16 0
v -4 -17 0
v -5 -17 0
v -5 -16 0
v -4 -16 0
v -3 -17 0
v -4 -17 0
v -4 -16 0
v -3 -16 0
v -2 -17 0
v -3 -17 0
v -3 -16 0
v -2 -16 0
v -1 -17 0
v -2 -17 0
v -2 -16 0
v -1 -16 0
v 0 -17 0
v -1 -17 0
v -1 -16 0
v 0 -16 0
v -23 -18 0
v -24 -18 0
v -24 -17 0
v -23 -17 0
v -22 -18 0
v -23 -18 0
v -23 -17 0
v -22 -17 0
v -21 -18 0
v -22 -18 0
v -22 -17 0
v -21 -17 0
v -20 -18 0
v -21 -18 0
v -21 -17 0
v -20 -17 0
v -19 -18 0
v -20 -18 0
v -20 -17 0
v -19 -17 0
v -18 -18 0
v -19 -18 0
v -19 -17 0
v -18 -17 0
v -23 -19 0
v -24 -19 0
v -24 -18 0
v -23 -18 0
v -22 -19 0
v -23 -19 0
v -23 -18 0
v -22 -18 0
v -21 -19 0
v -22 -19 0
v -22 -18 0
v -21 -18 0
v -20 -19 0
v -21 -19 0
v -21 -18 0
v -20 -18 0
v -19 -19 0
v -20 -19 0
v -20 -18 0
v -19 -18 0
v -18 -19 0
v -19 -19 0
v -19 -18 0
v -18 -18 0
v -23 -20 0
v -24 -20 0
v -24 -19 0
v -23 -19 0
v -22 -20 0
v -23 -20 0
v -23 -19 0
v -22 -19 0
v -21 -20 0
v -22 -20 0
v -22 -19 0
v -21 -19 0
v -20 -20 0
v -21 -20 0
v -21 -19 0
v -20 -19 0
v -19 -20 0
v -20 -20 0
v -20 -19 0
v -19 -19 0
v -18 -20 0
v -19 -20 0
v -19 -19 0
v -18 -19 0
v -23 -21 0
v -24 -21 0
v -24 -20 0
v -23 -20 0
v -22 -21 0
v -23 -21 0
v -23 -20 0
v -22 -20 0
v -21 -21 0
v -22 -21 0
v -22 -20 0
v -21 -20 0
v -20 -21 0
v -21 -21 0
v -21 -20 0
v -20 -20 0
v -19 -21 0
v -20 -21 0
v -20 -20 0
v -19 -20 0
v -18 -21 0
v -19 -21 0
v -19 -20 0
v -18 -20 0
v -23 -22 0
v -24 -22 0
v -24 -21 0
v -23 -21 0
v -22 -22 0
v -23 -22 0
v -23 -21 0
v -22 -21 0
v -21 -22 0
v -22 -22 0
v -22 -21 0
v -21 -21 0
v -20 -22 0
v -21 -22 0
v -21 -21 0
v -20 -21 0
v -19 -22 0
v -20 -22 0
v -20 -21 0
v -19 -21 0
v -18 -22 0
v -19 -22 0
v -19 -21 0
v -18 -21 0
v -23 -23 0
v -24 -23 0
v -24 -22 0
v -23 -22 0
v -22 -23 0
v -23 -23 0
v -23 -22 0
v -22 -22 0
v -21 -23 0
v -22 -23 0
v -22 -22 0
v -21 -22 0
v -20 -23 0
v -21 -23 0
v -21 -22 0
v -20 -22 0
v -19 -23 0
v -20 -23 0
v -20 -22 0
v -19 -22 0
v -18 -23 0
v -19 -23 0
v -19 -22 0
v -18 -22 0

# Texture cooridinates (Count = 56)
vt 0.9166667 0.6666666
vt 0.9583333 0.6666666
vt 0.9583333 0.7333333
vt 0.9166667 0.7333333
vt 0.875 0.6666666
vt 0.875 0.7333333
vt 0.8333333 0.6666666
vt 0.8333333 0.7333333
vt 0.7916667 0.6666666
vt 0.7916667 0.7333333
vt 0.75 0.6666666
vt 0.75 0.7333333
vt 0.7083333 0.6666666
vt 0.7083333 0.7333333
vt 0.9166667 0.6
vt 0.9583333 0.6
vt 0.875 0.6
vt 0.8333333 0.6
vt 0.7916667 0.6
vt 0.75 0.6
vt 0.7083333 0.6
vt 0.9166667 0.5333333
vt 0.9583333 0.5333333
vt 0.875 0.5333333
vt 0.8333333 0.5333333
vt 0.7916667 0.5333333
vt 0.75 0.5333333
vt 0.7083333 0.5333333
vt 0.9166667 0.4666666
vt 0.9583333 0.4666666
vt 0.875 0.4666666
vt 0.8333333 0.4666666
vt 0.7916667 0.4666666
vt 0.75 0.4666666
vt 0.7083333 0.4666666
vt 0.9166667 0.4
vt 0.9583333 0.4
vt 0.875 0.4
vt 0.8333333 0.4
vt 0.7916667 0.4
vt 0.75 0.4
vt 0.7083333 0.4
vt 0.9166667 0.3333333
vt 0.9583333 0.3333333
vt 0.875 0.3333333
vt 0.8333333 0.3333333
vt 0.7916667 0.3333333
vt 0.75 0.3333333
vt 0.7083333 0.3333333
vt 0.9166667 0.2666667
vt 0.9583333 0.2666667
vt 0.875 0.2666667
vt 0.8333333 0.2666667
vt 0.7916667 0.2666667
vt 0.75 0.2666667
vt 0.7083333 0.2666667

# Normal
vn 0 0 -1

# Mesh description
g Vila_oeste_mesh_0006

# Faces
f 1/1/1 2/2/1 3/3/1 4/4/1
f 5/5/1 6/1/1 7/4/1 8/6/1
f 9/7/1 10/5/1 11/6/1 12/8/1
f 13/9/1 14/7/1 15/8/1 16/10/1
f 17/11/1 18/9/1 19/10/1 20/12/1
f 21/13/1 22/11/1 23/12/1 24/14/1
f 25/15/1 26/16/1 27/2/1 28/1/1
f 29/17/1 30/15/1 31/1/1 32/5/1
f 33/18/1 34/17/1 35/5/1 36/7/1
f 37/19/1 38/18/1 39/7/1 40/9/1
f 41/20/1 42/19/1 43/9/1 44/11/1
f 45/21/1 46/20/1 47/11/1 48/13/1
f 49/22/1 50/23/1 51/16/1 52/15/1
f 53/24/1 54/22/1 55/15/1 56/17/1
f 57/25/1 58/24/1 59/17/1 60/18/1
f 61/26/1 62/25/1 63/18/1 64/19/1
f 65/27/1 66/26/1 67/19/1 68/20/1
f 69/28/1 70/27/1 71/20/1 72/21/1
f 73/29/1 74/30/1 75/23/1 76/22/1
f 77/31/1 78/29/1 79/22/1 80/24/1
f 81/32/1 82/31/1 83/24/1 84/25/1
f 85/33/1 86/32/1 87/25/1 88/26/1
f 89/34/1 90/33/1 91/26/1 92/27/1
f 93/35/1 94/34/1 95/27/1 96/28/1
f 97/36/1 98/37/1 99/30/1 100/29/1
f 101/38/1 102/36/1 103/29/1 104/31/1
f 105/39/1 106/38/1 107/31/1 108/32/1
f 109/40/1 110/39/1 111/32/1 112/33/1
f 113/41/1 114/40/1 115/33/1 116/34/1
f 117/42/1 118/41/1 119/34/1 120/35/1
f 121/43/1 122/44/1 123/37/1 124/36/1
f 125/45/1 126/43/1 127/36/1 128/38/1
f 129/46/1 130/45/1 131/38/1 132/39/1
f 133/47/1 134/46/1 135/39/1 136/40/1
f 137/48/1 138/47/1 139/40/1 140/41/1
f 141/49/1 142/48/1 143/41/1 144/42/1
f 145/50/1 146/51/1 147/44/1 148/43/1
f 149/52/1 150/50/1 151/43/1 152/45/1
f 153/53/1 154/52/1 155/45/1 156/46/1
f 157/54/1 158/53/1 159/46/1 160/47/1
f 161/55/1 162/54/1 163/47/1 164/48/1
f 165/56/1 166/55/1 167/48/1 168/49/1
f 169/1/1 170/2/1 171/3/1 172/4/1
f 173/5/1 174/1/1 175/4/1 176/6/1
f 177/7/1 178/5/1 179/6/1 180/8/1
f 181/9/1 182/7/1 183/8/1 184/10/1
f 185/11/1 186/9/1 187/10/1 188/12/1
f 189/13/1 190/11/1 191/12/1 192/14/1
f 193/15/1 194/16/1 195/2/1 196/1/1
f 197/17/1 198/15/1 199/1/1 200/5/1
f 201/18/1 202/17/1 203/5/1 204/7/1
f 205/19/1 206/18/1 207/7/1 208/9/1
f 209/20/1 210/19/1 211/9/1 212/11/1
f 213/21/1 214/20/1 215/11/1 216/13/1
f 217/22/1 218/23/1 219/16/1 220/15/1
f 221/24/1 222/22/1 223/15/1 224/17/1
f 225/25/1 226/24/1 227/17/1 228/18/1
f 229/26/1 230/25/1 231/18/1 232/19/1
f 233/27/1 234/26/1 235/19/1 236/20/1
f 237/28/1 238/27/1 239/20/1 240/21/1
f 241/29/1 242/30/1 243/23/1 244/22/1
f 245/31/1 246/29/1 247/22/1 248/24/1
f 249/32/1 250/31/1 251/24/1 252/25/1
f 253/33/1 254/32/1 255/25/1 256/26/1
f 257/34/1 258/33/1 259/26/1 260/27/1
f 261/35/1 262/34/1 263/27/1 264/28/1
f 265/36/1 266/37/1 267/30/1 268/29/1
f 269/38/1 270/36/1 271/29/1 272/31/1
f 273/39/1 274/38/1 275/31/1 276/32/1
f 277/40/1 278/39/1 279/32/1 280/33/1
f 281/41/1 282/40/1 283/33/1 284/34/1
f 285/42/1 286/41/1 287/34/1 288/35/1
f 289/43/1 290/44/1 291/37/1 292/36/1
f 293/45/1 294/43/1 295/36/1 296/38/1
f 297/46/1 298/45/1 299/38/1 300/39/1
f 301/47/1 302/46/1 303/39/1 304/40/1
f 305/48/1 306/47/1 307/40/1 308/41/1
f 309/49/1 310/48/1 311/41/1 312/42/1
f 313/1/1 314/2/1 315/3/1 316/4/1
f 317/5/1 318/1/1 319/4/1 320/6/1
f 321/7/1 322/5/1 323/6/1 324/8/1
f 325/9/1 326/7/1 327/8/1 328/10/1
f 329/11/1 330/9/1 331/10/1 332/12/1
f 333/13/1 334/11/1 335/12/1 336/14/1
f 337/50/1 338/51/1 339/44/1 340/43/1
f 341/52/1 342/50/1 343/43/1 344/45/1
f 345/53/1 346/52/1 347/45/1 348/46/1
f 349/54/1 350/53/1 351/46/1 352/47/1
f 353/55/1 354/54/1 355/47/1 356/48/1
f 357/56/1 358/55/1 359/48/1 360/49/1
f 361/15/1 362/16/1 363/2/1 364/1/1
f 365/17/1 366/15/1 367/1/1 368/5/1
f 369/18/1 370/17/1 371/5/1 372/7/1
f 373/19/1 374/18/1 375/7/1 376/9/1
f 377/20/1 378/19/1 379/9/1 380/11/1
f 381/21/1 382/20/1 383/11/1 384/13/1
f 385/22/1 386/23/1 387/16/1 388/15/1
f 389/24/1 390/22/1 391/15/1 392/17/1
f 393/25/1 394/24/1 395/17/1 396/18/1
f 397/26/1 398/25/1 399/18/1 400/19/1
f 401/27/1 402/26/1 403/19/1 404/20/1
f 405/28/1 406/27/1 407/20/1 408/21/1
f 409/29/1 410/30/1 411/23/1 412/22/1
f 413/31/1 414/29/1 415/22/1 416/24/1
f 417/32/1 418/31/1 419/24/1 420/25/1
f 421/33/1 422/32/1 423/25/1 424/26/1
f 425/34/1 426/33/1 427/26/1 428/27/1
f 429/35/1 430/34/1 431/27/1 432/28/1
f 433/36/1 434/37/1 435/30/1 436/29/1
f 437/38/1 438/36/1 439/29/1 440/31/1
f 441/39/1 442/38/1 443/31/1 444/32/1
f 445/40/1 446/39/1 447/32/1 448/33/1
f 449/41/1 450/40/1 451/33/1 452/34/1
f 453/42/1 454/41/1 455/34/1 456/35/1
f 457/43/1 458/44/1 459/37/1 460/36/1
f 461/45/1 462/43/1 463/36/1 464/38/1
f 465/46/1 466/45/1 467/38/1 468/39/1
f 469/47/1 470/46/1 471/39/1 472/40/1
f 473/48/1 474/47/1 475/40/1 476/41/1
f 477/49/1 478/48/1 479/41/1 480/42/1
f 481/50/1 482/51/1 483/44/1 484/43/1
f 485/52/1 486/50/1 487/43/1 488/45/1
f 489/53/1 490/52/1 491/45/1 492/46/1
f 493/54/1 494/53/1 495/46/1 496/47/1
f 497/55/1 498/54/1 499/47/1 500/48/1
f 501/56/1 502/55/1 503/48/1 504/49/1

