# Tiled2Unity generated file. Do not modify by hand.
# Wavefront file for 'overworld2_mesh_0002.obj'

# Vertices (Count = 152)
v -9 -5 0
v -10 -5 0
v -10 -4 0
v -9 -4 0
v -8 -5 0
v -9 -5 0
v -9 -4 0
v -8 -4 0
v -7 -5 0
v -8 -5 0
v -8 -4 0
v -7 -4 0
v -6 -5 0
v -7 -5 0
v -7 -4 0
v -6 -4 0
v -5 -5 0
v -6 -5 0
v -6 -4 0
v -5 -4 0
v -9 -6 0
v -10 -6 0
v -10 -5 0
v -9 -5 0
v -8 -6 0
v -9 -6 0
v -9 -5 0
v -8 -5 0
v -7 -6 0
v -8 -6 0
v -8 -5 0
v -7 -5 0
v -6 -6 0
v -7 -6 0
v -7 -5 0
v -6 -5 0
v -5 -6 0
v -6 -6 0
v -6 -5 0
v -5 -5 0
v -4 -6 0
v -5 -6 0
v -5 -5 0
v -4 -5 0
v -3 -6 0
v -4 -6 0
v -4 -5 0
v -3 -5 0
v -9 -7 0
v -10 -7 0
v -10 -6 0
v -9 -6 0
v -8 -7 0
v -9 -7 0
v -9 -6 0
v -8 -6 0
v -7 -7 0
v -8 -7 0
v -8 -6 0
v -7 -6 0
v -6 -7 0
v -7 -7 0
v -7 -6 0
v -6 -6 0
v -5 -7 0
v -6 -7 0
v -6 -6 0
v -5 -6 0
v -4 -7 0
v -5 -7 0
v -5 -6 0
v -4 -6 0
v -3 -7 0
v -4 -7 0
v -4 -6 0
v -3 -6 0
v -9 -8 0
v -10 -8 0
v -10 -7 0
v -9 -7 0
v -8 -8 0
v -9 -8 0
v -9 -7 0
v -8 -7 0
v -7 -8 0
v -8 -8 0
v -8 -7 0
v -7 -7 0
v -6 -8 0
v -7 -8 0
v -7 -7 0
v -6 -7 0
v -5 -8 0
v -6 -8 0
v -6 -7 0
v -5 -7 0
v -4 -8 0
v -5 -8 0
v -5 -7 0
v -4 -7 0
v -3 -8 0
v -4 -8 0
v -4 -7 0
v -3 -7 0
v -10 -9 0
v -11 -9 0
v -11 -8 0
v -10 -8 0
v -9 -9 0
v -10 -9 0
v -10 -8 0
v -9 -8 0
v -8 -9 0
v -9 -9 0
v -9 -8 0
v -8 -8 0
v -7 -9 0
v -8 -9 0
v -8 -8 0
v -7 -8 0
v -6 -9 0
v -7 -9 0
v -7 -8 0
v -6 -8 0
v -5 -9 0
v -6 -9 0
v -6 -8 0
v -5 -8 0
v -4 -9 0
v -5 -9 0
v -5 -8 0
v -4 -8 0
v -3 -9 0
v -4 -9 0
v -4 -8 0
v -3 -8 0
v -10 -10 0
v -11 -10 0
v -11 -9 0
v -10 -9 0
v -9 -10 0
v -10 -10 0
v -10 -9 0
v -9 -9 0
v -4 -10 0
v -5 -10 0
v -5 -9 0
v -4 -9 0
v -3 -10 0
v -4 -10 0
v -4 -9 0
v -3 -9 0

# Texture cooridinates (Count = 60)
vt 0.25 0.9722222
vt 0.275 0.9722222
vt 0.275 1
vt 0.25 1
vt 0.225 0.9722222
vt 0.225 1
vt 0.2 0.9722222
vt 0.2 1
vt 0.175 0.9722222
vt 0.175 1
vt 0.15 0.9722222
vt 0.15 1
vt 0.25 0.9444444
vt 0.275 0.9444444
vt 0.225 0.9444444
vt 0.2 0.9444444
vt 0.175 0.9444444
vt 0.15 0.9444444
vt 0.875 0.9444444
vt 0.9 0.9444444
vt 0.9 0.9722222
vt 0.875 0.9722222
vt 0.25 0.9166667
vt 0.275 0.9166667
vt 0.225 0.9166667
vt 0.2 0.9166667
vt 0.175 0.9166667
vt 0.15 0.9166667
vt 0.25 0.8888889
vt 0.275 0.8888889
vt 0.225 0.8888889
vt 0.2 0.8888889
vt 0.175 0.8888889
vt 0.15 0.8888889
vt 0.35 0.8333333
vt 0.375 0.8333333
vt 0.375 0.8611111
vt 0.35 0.8611111
vt 0.325 0.8333333
vt 0.325 0.8611111
vt 0.675 0.4166667
vt 0.7 0.4166667
vt 0.7 0.4444444
vt 0.675 0.4444444
vt 0.25 0.8611111
vt 0.275 0.8611111
vt 0.225 0.8611111
vt 0.2 0.8611111
vt 0.175 0.8611111
vt 0.15 0.8611111
vt 0.35 0.8055556
vt 0.375 0.8055556
vt 0.325 0.8055556
vt 0.65 0.4166667
vt 0.65 0.4444444
vt 0.725 0.4166667
vt 0.725 0.4444444
vt 0.35 0.7777778
vt 0.375 0.7777778
vt 0.325 0.7777778

# Normal
vn 0 0 -1

# Mesh description
g overworld2_mesh_0002

# Faces
f 1/1/1 2/2/1 3/3/1 4/4/1
f 5/5/1 6/1/1 7/4/1 8/6/1
f 9/7/1 10/5/1 11/6/1 12/8/1
f 13/9/1 14/7/1 15/8/1 16/10/1
f 17/11/1 18/9/1 19/10/1 20/12/1
f 21/13/1 22/14/1 23/2/1 24/1/1
f 25/15/1 26/13/1 27/1/1 28/5/1
f 29/16/1 30/15/1 31/5/1 32/7/1
f 33/17/1 34/16/1 35/7/1 36/9/1
f 37/18/1 38/17/1 39/9/1 40/11/1
f 41/19/1 42/20/1 43/21/1 44/22/1
f 45/19/1 46/20/1 47/21/1 48/22/1
f 49/23/1 50/24/1 51/14/1 52/13/1
f 53/25/1 54/23/1 55/13/1 56/15/1
f 57/26/1 58/25/1 59/15/1 60/16/1
f 61/27/1 62/26/1 63/16/1 64/17/1
f 65/28/1 66/27/1 67/17/1 68/18/1
f 69/19/1 70/20/1 71/21/1 72/22/1
f 73/19/1 74/20/1 75/21/1 76/22/1
f 77/29/1 78/30/1 79/24/1 80/23/1
f 81/31/1 82/29/1 83/23/1 84/25/1
f 85/32/1 86/31/1 87/25/1 88/26/1
f 89/33/1 90/32/1 91/26/1 92/27/1
f 93/34/1 94/33/1 95/27/1 96/28/1
f 97/35/1 98/36/1 99/37/1 100/38/1
f 101/39/1 102/35/1 103/38/1 104/40/1
f 105/41/1 106/42/1 107/43/1 108/44/1
f 109/45/1 110/46/1 111/30/1 112/29/1
f 113/47/1 114/45/1 115/29/1 116/31/1
f 117/48/1 118/47/1 119/31/1 120/32/1
f 121/49/1 122/48/1 123/32/1 124/33/1
f 125/50/1 126/49/1 127/33/1 128/34/1
f 129/51/1 130/52/1 131/36/1 132/35/1
f 133/53/1 134/51/1 135/35/1 136/39/1
f 137/54/1 138/41/1 139/44/1 140/55/1
f 141/42/1 142/56/1 143/57/1 144/43/1
f 145/58/1 146/59/1 147/52/1 148/51/1
f 149/60/1 150/58/1 151/51/1 152/53/1

